<svg xmlns="http://www.w3.org/2000/svg" xmlns:xlink="http://www.w3.org/1999/xlink" width="500" zoomAndPan="magnify" viewBox="0 0 375 374.999991" height="500" preserveAspectRatio="xMidYMid meet" version="1.0"><defs><g/><clipPath id="a08f12c0f4"><path d="M 125.582031 125.582031 L 249.417969 125.582031 L 249.417969 249.417969 L 125.582031 249.417969 Z M 125.582031 125.582031 " clip-rule="nonzero"/></clipPath><clipPath id="6fbfdb9e12"><path d="M 187.5 125.582031 C 153.304688 125.582031 125.582031 153.304688 125.582031 187.5 C 125.582031 221.695312 153.304688 249.417969 187.5 249.417969 C 221.695312 249.417969 249.417969 221.695312 249.417969 187.5 C 249.417969 153.304688 221.695312 125.582031 187.5 125.582031 Z M 187.5 125.582031 " clip-rule="nonzero"/></clipPath></defs><g clip-path="url(#a08f12c0f4)"><g clip-path="url(#6fbfdb9e12)"><path fill="#ffffff" d="M 125.582031 125.582031 L 249.417969 125.582031 L 249.417969 249.417969 L 125.582031 249.417969 Z M 125.582031 125.582031 " fill-opacity="1" fill-rule="nonzero"/></g></g><g fill="#c6605d" fill-opacity="1"><g transform="translate(148.911602, 201.749987)"><g><path d="M 16.15625 10.6875 C 16.75 10.707031 17.335938 10.6875 17.921875 10.625 C 18.515625 10.5625 19.078125 10.414062 19.609375 10.1875 C 21.210938 9.414062 21.757812 8.203125 21.25 6.546875 C 20.976562 5.703125 20.546875 4.925781 19.953125 4.21875 C 19.265625 3.351562 18.507812 2.546875 17.6875 1.796875 C 16.875 1.054688 16.035156 0.347656 15.171875 -0.328125 C 14.679688 -0.691406 14.222656 -0.679688 13.796875 -0.296875 C 12.460938 0.703125 11.265625 1.816406 10.203125 3.046875 C 9.734375 3.597656 9.335938 4.203125 9.015625 4.859375 C 8.328125 6.492188 8.671875 7.875 10.046875 9 C 10.703125 9.507812 11.429688 9.878906 12.234375 10.109375 C 13.503906 10.492188 14.8125 10.6875 16.15625 10.6875 Z M 16.96875 -2.5 C 17.019531 -2.28125 17.113281 -2.097656 17.25 -1.953125 C 17.394531 -1.804688 17.539062 -1.6875 17.6875 -1.59375 C 17.789062 -1.519531 17.894531 -1.441406 18 -1.359375 C 18.40625 -1.003906 18.8125 -0.640625 19.21875 -0.265625 C 19.988281 0.410156 20.734375 1.078125 21.453125 1.734375 C 22.492188 2.703125 23.332031 3.820312 23.96875 5.09375 C 24.601562 6.363281 24.765625 7.597656 24.453125 8.796875 C 24.148438 10.003906 23.210938 10.960938 21.640625 11.671875 C 20.972656 11.972656 20.269531 12.175781 19.53125 12.28125 C 18.101562 12.457031 16.664062 12.523438 15.21875 12.484375 C 13.78125 12.453125 12.363281 12.25 10.96875 11.875 C 10.28125 11.6875 9.617188 11.441406 8.984375 11.140625 C 8.347656 10.835938 7.773438 10.441406 7.265625 9.953125 C 5.441406 8.296875 5.0625 6.359375 6.125 4.140625 C 6.550781 3.273438 7.09375 2.484375 7.75 1.765625 C 8.832031 0.648438 9.976562 -0.390625 11.1875 -1.359375 C 11.800781 -1.835938 12.101562 -2.1875 12.09375 -2.40625 C 12.082031 -2.632812 11.726562 -2.953125 11.03125 -3.359375 C 9.789062 -4.191406 8.535156 -5.019531 7.265625 -5.84375 C 6.585938 -6.269531 5.921875 -6.703125 5.265625 -7.140625 C 4.859375 -7.421875 4.453125 -7.6875 4.046875 -7.9375 C 3.023438 -8.582031 2.019531 -9.253906 1.03125 -9.953125 C -0.09375 -10.753906 -1.144531 -11.625 -2.125 -12.5625 C -3.101562 -13.5 -3.960938 -14.5625 -4.703125 -15.75 C -6.234375 -18.21875 -6.800781 -20.738281 -6.40625 -23.3125 C -6.019531 -25.882812 -4.898438 -28.363281 -3.046875 -30.75 C -1.203125 -33.132812 1.117188 -35.28125 3.921875 -37.1875 C 6.734375 -39.101562 9.773438 -40.648438 13.046875 -41.828125 C 16.328125 -43.015625 19.59375 -43.695312 22.84375 -43.875 C 26.09375 -44.050781 29.078125 -43.59375 31.796875 -42.5 C 34.523438 -41.40625 36.769531 -39.519531 38.53125 -36.84375 C 38.84375 -36.351562 39.101562 -35.835938 39.3125 -35.296875 C 39.53125 -34.753906 39.640625 -34.175781 39.640625 -33.5625 C 39.640625 -32.945312 39.363281 -32.5625 38.8125 -32.40625 C 38.425781 -32.300781 38.070312 -32.304688 37.75 -32.421875 C 37.4375 -32.546875 37.195312 -32.734375 37.03125 -32.984375 C 37.007812 -33.054688 36.988281 -33.144531 36.96875 -33.25 C 36.945312 -33.300781 36.9375 -33.351562 36.9375 -33.40625 C 35.757812 -36.632812 34.023438 -38.9375 31.734375 -40.3125 C 29.441406 -41.695312 26.847656 -42.34375 23.953125 -42.25 C 21.054688 -42.164062 18.097656 -41.535156 15.078125 -40.359375 C 12.054688 -39.179688 9.21875 -37.679688 6.5625 -35.859375 C 3.914062 -34.046875 1.695312 -32.09375 -0.09375 -30 C -1.894531 -27.914062 -3.007812 -25.890625 -3.4375 -23.921875 C -3.882812 -21.472656 -3.46875 -19.207031 -2.1875 -17.125 C -1.164062 -15.363281 0.132812 -13.851562 1.71875 -12.59375 C 2.9375 -11.632812 4.179688 -10.722656 5.453125 -9.859375 C 6.597656 -9.109375 7.734375 -8.378906 8.859375 -7.671875 C 10.410156 -6.679688 11.941406 -5.675781 13.453125 -4.65625 C 13.878906 -4.34375 14.273438 -4.203125 14.640625 -4.234375 C 15.015625 -4.265625 15.40625 -4.414062 15.8125 -4.6875 C 17.832031 -5.90625 19.820312 -7.023438 21.78125 -8.046875 C 23.75 -9.066406 24.835938 -9.347656 25.046875 -8.890625 C 25.265625 -8.429688 24.957031 -7.894531 24.125 -7.28125 C 22.15625 -6.238281 20.265625 -5.066406 18.453125 -3.765625 C 18.347656 -3.722656 18.25 -3.660156 18.15625 -3.578125 C 17.675781 -3.328125 17.28125 -2.96875 16.96875 -2.5 Z M 16.96875 -2.5 "/></g></g></g><g fill="#c6605d" fill-opacity="1"><g transform="translate(173.225406, 201.749987)"><g><path d="M 61.140625 -8.78125 C 61.222656 -8.726562 61.285156 -8.644531 61.328125 -8.53125 C 61.378906 -8.414062 61.40625 -8.304688 61.40625 -8.203125 C 61.4375 -7.953125 61.289062 -7.773438 60.96875 -7.671875 C 60.65625 -7.578125 60.253906 -7.515625 59.765625 -7.484375 C 59.273438 -7.453125 58.789062 -7.4375 58.3125 -7.4375 C 57.695312 -7.4375 57.238281 -7.414062 56.9375 -7.375 C 56.632812 -7.3125 56.457031 -7.171875 56.40625 -6.953125 C 56.351562 -6.742188 56.347656 -6.382812 56.390625 -5.875 C 56.421875 -5.59375 56.453125 -5.265625 56.484375 -4.890625 C 56.804688 0.648438 57.476562 6.144531 58.5 11.59375 C 58.519531 11.695312 58.550781 11.789062 58.59375 11.875 C 58.632812 12.070312 58.65625 12.273438 58.65625 12.484375 C 58.613281 12.835938 58.398438 13.085938 58.015625 13.234375 C 57.628906 13.390625 57.222656 13.382812 56.796875 13.21875 C 56.378906 13.0625 56.109375 12.675781 55.984375 12.0625 C 55.828125 11.238281 55.675781 10.421875 55.53125 9.609375 C 55.269531 8.484375 55.050781 7.347656 54.875 6.203125 C 54.207031 2.335938 53.734375 -1.546875 53.453125 -5.453125 C 53.429688 -6.066406 53.332031 -6.445312 53.15625 -6.59375 C 52.976562 -6.75 52.570312 -6.785156 51.9375 -6.703125 C 50.445312 -6.578125 48.976562 -6.425781 47.53125 -6.25 C 43.5 -5.695312 39.457031 -5.253906 35.40625 -4.921875 C 35.382812 -4.921875 35.359375 -4.921875 35.328125 -4.921875 C 35.285156 -4.921875 35.234375 -4.921875 35.171875 -4.921875 C 33.828125 -4.941406 32.925781 -4.265625 32.46875 -2.890625 C 31.082031 0.878906 29.425781 4.515625 27.5 8.015625 C 25.332031 11.984375 22.695312 15.625 19.59375 18.9375 C 17.425781 21.15625 14.957031 22.960938 12.1875 24.359375 C 9.414062 25.765625 6.5625 26.75 3.625 27.3125 C 0.695312 27.875 -2.101562 28.019531 -4.78125 27.75 C -7.457031 27.488281 -9.785156 26.800781 -11.765625 25.6875 C -13.753906 24.570312 -15.195312 23.039062 -16.09375 21.09375 C -16.988281 19.144531 -17.101562 16.769531 -16.4375 13.96875 C -15.78125 11.425781 -14.570312 9.242188 -12.8125 7.421875 C -11.050781 5.609375 -8.984375 4.085938 -6.609375 2.859375 C -4.242188 1.628906 -1.785156 0.613281 0.765625 -0.1875 C 3.316406 -1 5.726562 -1.679688 8 -2.234375 C 11.332031 -3.085938 14.875 -3.851562 18.625 -4.53125 C 22.375 -5.21875 25.957031 -5.707031 29.375 -6 C 30.257812 -6.019531 30.851562 -6.460938 31.15625 -7.328125 C 31.363281 -7.910156 31.597656 -8.488281 31.859375 -9.0625 C 31.960938 -9.3125 32.0625 -9.546875 32.15625 -9.765625 C 32.632812 -10.953125 33.117188 -12.140625 33.609375 -13.328125 C 35.265625 -17.554688 37.046875 -21.816406 38.953125 -26.109375 C 40.867188 -30.410156 43.023438 -34.535156 45.421875 -38.484375 C 47.828125 -42.441406 50.582031 -46.023438 53.6875 -49.234375 C 54.476562 -50.003906 55.304688 -50.738281 56.171875 -51.4375 C 56.578125 -51.78125 57.144531 -52.039062 57.875 -52.21875 C 58.601562 -52.394531 59.222656 -52.359375 59.734375 -52.109375 C 60.242188 -51.867188 60.382812 -51.265625 60.15625 -50.296875 C 59.625 -48.296875 59.164062 -46.257812 58.78125 -44.1875 C 58.394531 -42.113281 58.046875 -40.046875 57.734375 -37.984375 C 57.734375 -37.878906 57.722656 -37.773438 57.703125 -37.671875 C 56.984375 -32.992188 56.539062 -28.582031 56.375 -24.4375 C 56.21875 -20.300781 56.148438 -15.875 56.171875 -11.15625 C 56.171875 -10.644531 56.191406 -10.132812 56.234375 -9.625 C 56.273438 -9.269531 56.457031 -9.082031 56.78125 -9.0625 C 57.34375 -9.019531 57.894531 -9.019531 58.4375 -9.0625 C 59.070312 -9.082031 59.707031 -9.082031 60.34375 -9.0625 C 60.625 -9.019531 60.890625 -8.925781 61.140625 -8.78125 Z M 29.40625 -2.9375 C 29.613281 -3.488281 29.632812 -3.828125 29.46875 -3.953125 C 29.300781 -4.085938 28.9375 -4.113281 28.375 -4.03125 C 25.664062 -3.6875 22.960938 -3.296875 20.265625 -2.859375 C 17.566406 -2.421875 14.890625 -1.882812 12.234375 -1.25 C 11.847656 -1.144531 11.453125 -1.050781 11.046875 -0.96875 C 8.835938 -0.4375 6.460938 0.1875 3.921875 0.90625 C 1.390625 1.632812 -1.070312 2.5625 -3.46875 3.6875 C -5.875 4.8125 -7.953125 6.210938 -9.703125 7.890625 C -11.460938 9.566406 -12.6875 11.59375 -13.375 13.96875 C -14.082031 16.925781 -13.914062 19.320312 -12.875 21.15625 C -11.832031 23 -10.191406 24.316406 -7.953125 25.109375 C -5.710938 25.910156 -3.179688 26.207031 -0.359375 26 C 2.453125 25.800781 5.257812 25.132812 8.0625 24 C 10.863281 22.863281 13.378906 21.296875 15.609375 19.296875 C 18.710938 16.304688 21.347656 12.953125 23.515625 9.234375 C 24.679688 7.296875 25.738281 5.304688 26.6875 3.265625 C 27.632812 1.222656 28.539062 -0.84375 29.40625 -2.9375 Z M 55.75 -43.375 C 55.75 -43.4375 55.757812 -43.515625 55.78125 -43.609375 C 55.863281 -44.023438 55.972656 -44.597656 56.109375 -45.328125 C 56.253906 -46.066406 56.347656 -46.734375 56.390625 -47.328125 C 56.472656 -47.835938 56.457031 -48.140625 56.34375 -48.234375 C 56.226562 -48.335938 55.957031 -48.132812 55.53125 -47.625 C 55.269531 -47.320312 55.015625 -47.019531 54.765625 -46.71875 C 53.785156 -45.632812 52.84375 -44.519531 51.9375 -43.375 C 49.875 -40.726562 47.945312 -37.738281 46.15625 -34.40625 C 44.375 -31.082031 42.71875 -27.632812 41.1875 -24.0625 C 39.65625 -20.5 38.210938 -17.023438 36.859375 -13.640625 C 36.222656 -12.078125 35.597656 -10.570312 34.984375 -9.125 C 34.453125 -7.875 34.25 -7.125 34.375 -6.875 C 34.5 -6.632812 35.082031 -6.609375 36.125 -6.796875 C 36.28125 -6.796875 36.460938 -6.804688 36.671875 -6.828125 C 39.804688 -7.128906 42.925781 -7.472656 46.03125 -7.859375 C 47.394531 -8.015625 48.75 -8.171875 50.09375 -8.328125 C 50.363281 -8.367188 50.628906 -8.398438 50.890625 -8.421875 C 51.347656 -8.484375 51.820312 -8.535156 52.3125 -8.578125 C 52.613281 -8.609375 52.832031 -8.703125 52.96875 -8.859375 C 53.113281 -9.015625 53.1875 -9.269531 53.1875 -9.625 C 53.1875 -9.84375 53.1875 -10.082031 53.1875 -10.34375 C 53.1875 -10.46875 53.1875 -10.59375 53.1875 -10.71875 C 53.15625 -16.488281 53.285156 -21.90625 53.578125 -26.96875 C 53.878906 -32.039062 54.601562 -37.507812 55.75 -43.375 Z M 55.75 -43.375 "/></g></g></g></svg>