<svg xmlns="http://www.w3.org/2000/svg" xmlns:xlink="http://www.w3.org/1999/xlink" width="500" zoomAndPan="magnify" viewBox="0 0 375 374.999991" height="500" preserveAspectRatio="xMidYMid meet" version="1.0"><defs><g/><clipPath id="e11f803937"><path d="M 84.375 84.375 L 290.625 84.375 L 290.625 290.625 L 84.375 290.625 Z M 84.375 84.375 " clip-rule="nonzero"/></clipPath><clipPath id="d82159f982"><path d="M 187.5 84.375 C 130.546875 84.375 84.375 130.546875 84.375 187.5 C 84.375 244.453125 130.546875 290.625 187.5 290.625 C 244.453125 290.625 290.625 244.453125 290.625 187.5 C 290.625 130.546875 244.453125 84.375 187.5 84.375 Z M 187.5 84.375 " clip-rule="nonzero"/></clipPath><clipPath id="47398b1495"><path d="M 95.035156 180.648438 L 108.710938 180.648438 L 108.710938 194.324219 L 95.035156 194.324219 Z M 95.035156 180.648438 " clip-rule="nonzero"/></clipPath><clipPath id="1fa6903c72"><path d="M 101.875 180.648438 L 104.050781 185.308594 L 108.710938 187.484375 L 104.050781 189.660156 L 101.875 194.324219 L 99.699219 189.660156 L 95.035156 187.484375 L 99.699219 185.308594 Z M 101.875 180.648438 " clip-rule="nonzero"/></clipPath><clipPath id="ff2db045a5"><path d="M 267.945312 180.648438 L 281.621094 180.648438 L 281.621094 194.324219 L 267.945312 194.324219 Z M 267.945312 180.648438 " clip-rule="nonzero"/></clipPath><clipPath id="ad054e7dbb"><path d="M 274.78125 180.648438 L 276.960938 185.308594 L 281.621094 187.484375 L 276.960938 189.660156 L 274.78125 194.324219 L 272.605469 189.660156 L 267.945312 187.484375 L 272.605469 185.308594 Z M 274.78125 180.648438 " clip-rule="nonzero"/></clipPath></defs><g clip-path="url(#e11f803937)"><g clip-path="url(#d82159f982)"><path fill="#e96840" d="M 84.375 84.375 L 290.625 84.375 L 290.625 290.625 L 84.375 290.625 Z M 84.375 84.375 " fill-opacity="1" fill-rule="nonzero"/></g></g><g clip-path="url(#47398b1495)"><g clip-path="url(#1fa6903c72)"><path fill="#ffd8d7" d="M 95.035156 180.648438 L 108.710938 180.648438 L 108.710938 194.324219 L 95.035156 194.324219 Z M 95.035156 180.648438 " fill-opacity="1" fill-rule="nonzero"/></g></g><g clip-path="url(#ff2db045a5)"><g clip-path="url(#ad054e7dbb)"><path fill="#ffd8d7" d="M 267.945312 180.648438 L 281.621094 180.648438 L 281.621094 194.324219 L 267.945312 194.324219 Z M 267.945312 180.648438 " fill-opacity="1" fill-rule="nonzero"/></g></g><g fill="#ffffff" fill-opacity="1"><g transform="translate(139.639433, 202.124987)"><g><path d="M 19.796875 13.09375 C 20.515625 13.125 21.234375 13.097656 21.953125 13.015625 C 22.671875 12.941406 23.359375 12.757812 24.015625 12.46875 C 25.984375 11.53125 26.65625 10.050781 26.03125 8.03125 C 25.6875 6.988281 25.15625 6.035156 24.4375 5.171875 C 23.601562 4.109375 22.679688 3.117188 21.671875 2.203125 C 20.671875 1.296875 19.640625 0.425781 18.578125 -0.40625 C 17.984375 -0.84375 17.425781 -0.828125 16.90625 -0.359375 C 15.269531 0.859375 13.800781 2.21875 12.5 3.71875 C 11.925781 4.40625 11.441406 5.148438 11.046875 5.953125 C 10.191406 7.960938 10.609375 9.65625 12.296875 11.03125 C 13.109375 11.65625 14.003906 12.109375 14.984375 12.390625 C 16.546875 12.859375 18.148438 13.09375 19.796875 13.09375 Z M 20.78125 -3.0625 C 20.84375 -2.789062 20.957031 -2.566406 21.125 -2.390625 C 21.300781 -2.210938 21.484375 -2.066406 21.671875 -1.953125 C 21.796875 -1.859375 21.921875 -1.757812 22.046875 -1.65625 C 22.546875 -1.226562 23.046875 -0.78125 23.546875 -0.3125 C 24.484375 0.507812 25.390625 1.320312 26.265625 2.125 C 27.546875 3.300781 28.578125 4.671875 29.359375 6.234375 C 30.140625 7.796875 30.335938 9.3125 29.953125 10.78125 C 29.578125 12.25 28.425781 13.421875 26.5 14.296875 C 25.6875 14.671875 24.828125 14.921875 23.921875 15.046875 C 22.179688 15.265625 20.425781 15.347656 18.65625 15.296875 C 16.882812 15.253906 15.144531 15 13.4375 14.53125 C 12.59375 14.3125 11.78125 14.015625 11 13.640625 C 10.21875 13.273438 9.515625 12.796875 8.890625 12.203125 C 6.671875 10.171875 6.207031 7.789062 7.5 5.0625 C 8.019531 4.007812 8.6875 3.046875 9.5 2.171875 C 10.8125 0.796875 12.210938 -0.476562 13.703125 -1.65625 C 14.460938 -2.25 14.832031 -2.679688 14.8125 -2.953125 C 14.800781 -3.222656 14.367188 -3.609375 13.515625 -4.109375 C 11.992188 -5.128906 10.453125 -6.144531 8.890625 -7.15625 C 8.066406 -7.675781 7.253906 -8.207031 6.453125 -8.75 C 5.953125 -9.09375 5.453125 -9.421875 4.953125 -9.734375 C 3.710938 -10.515625 2.476562 -11.335938 1.25 -12.203125 C -0.125 -13.179688 -1.410156 -14.242188 -2.609375 -15.390625 C -3.804688 -16.535156 -4.859375 -17.832031 -5.765625 -19.28125 C -7.640625 -22.300781 -8.332031 -25.382812 -7.84375 -28.53125 C -7.363281 -31.6875 -5.992188 -34.726562 -3.734375 -37.65625 C -1.472656 -40.582031 1.375 -43.210938 4.8125 -45.546875 C 8.25 -47.890625 11.972656 -49.785156 15.984375 -51.234375 C 20.003906 -52.679688 24.003906 -53.515625 27.984375 -53.734375 C 31.960938 -53.953125 35.617188 -53.390625 38.953125 -52.046875 C 42.285156 -50.710938 45.03125 -48.40625 47.1875 -45.125 C 47.570312 -44.53125 47.894531 -43.898438 48.15625 -43.234375 C 48.414062 -42.566406 48.546875 -41.859375 48.546875 -41.109375 C 48.546875 -40.347656 48.207031 -39.878906 47.53125 -39.703125 C 47.0625 -39.566406 46.628906 -39.570312 46.234375 -39.71875 C 45.847656 -39.863281 45.554688 -40.09375 45.359375 -40.40625 C 45.328125 -40.488281 45.300781 -40.59375 45.28125 -40.71875 C 45.25 -40.789062 45.234375 -40.851562 45.234375 -40.90625 C 43.796875 -44.863281 41.671875 -47.6875 38.859375 -49.375 C 36.054688 -51.070312 32.878906 -51.863281 29.328125 -51.75 C 25.785156 -51.644531 22.164062 -50.875 18.46875 -49.4375 C 14.769531 -48 11.296875 -46.164062 8.046875 -43.9375 C 4.796875 -41.707031 2.070312 -39.3125 -0.125 -36.75 C -2.320312 -34.1875 -3.6875 -31.703125 -4.21875 -29.296875 C -4.757812 -26.296875 -4.25 -23.519531 -2.6875 -20.96875 C -1.4375 -18.8125 0.160156 -16.96875 2.109375 -15.4375 C 3.597656 -14.257812 5.125 -13.132812 6.6875 -12.0625 C 8.09375 -11.15625 9.484375 -10.265625 10.859375 -9.390625 C 12.753906 -8.179688 14.625 -6.953125 16.46875 -5.703125 C 17 -5.316406 17.488281 -5.140625 17.9375 -5.171875 C 18.394531 -5.210938 18.875 -5.40625 19.375 -5.75 C 21.84375 -7.238281 24.28125 -8.609375 26.6875 -9.859375 C 29.09375 -11.109375 30.425781 -11.453125 30.6875 -10.890625 C 30.945312 -10.328125 30.566406 -9.671875 29.546875 -8.921875 C 27.128906 -7.640625 24.816406 -6.207031 22.609375 -4.625 C 22.484375 -4.5625 22.363281 -4.484375 22.25 -4.390625 C 21.644531 -4.078125 21.15625 -3.632812 20.78125 -3.0625 Z M 20.78125 -3.0625 "/></g></g></g><g fill="#ffffff" fill-opacity="1"><g transform="translate(169.422663, 202.124987)"><g><path d="M 74.890625 -10.75 C 74.984375 -10.695312 75.054688 -10.597656 75.109375 -10.453125 C 75.171875 -10.304688 75.203125 -10.171875 75.203125 -10.046875 C 75.242188 -9.734375 75.066406 -9.515625 74.671875 -9.390625 C 74.285156 -9.273438 73.796875 -9.195312 73.203125 -9.15625 C 72.609375 -9.125 72.015625 -9.109375 71.421875 -9.109375 C 70.660156 -9.109375 70.097656 -9.082031 69.734375 -9.03125 C 69.359375 -8.957031 69.140625 -8.785156 69.078125 -8.515625 C 69.015625 -8.253906 69.015625 -7.8125 69.078125 -7.1875 C 69.097656 -6.851562 69.128906 -6.453125 69.171875 -5.984375 C 69.578125 0.796875 70.40625 7.523438 71.65625 14.203125 C 71.675781 14.328125 71.707031 14.4375 71.75 14.53125 C 71.8125 14.78125 71.84375 15.03125 71.84375 15.28125 C 71.78125 15.71875 71.515625 16.03125 71.046875 16.21875 C 70.578125 16.40625 70.082031 16.398438 69.5625 16.203125 C 69.050781 16.003906 68.71875 15.523438 68.5625 14.765625 C 68.375 13.765625 68.191406 12.765625 68.015625 11.765625 C 67.703125 10.390625 67.429688 9 67.203125 7.59375 C 66.390625 2.851562 65.8125 -1.90625 65.46875 -6.6875 C 65.445312 -7.4375 65.320312 -7.898438 65.09375 -8.078125 C 64.875 -8.265625 64.378906 -8.3125 63.609375 -8.21875 C 61.785156 -8.0625 59.988281 -7.875 58.21875 -7.65625 C 53.28125 -6.976562 48.328125 -6.4375 43.359375 -6.03125 C 43.328125 -6.03125 43.300781 -6.03125 43.28125 -6.03125 C 43.21875 -6.03125 43.148438 -6.03125 43.078125 -6.03125 C 41.429688 -6.050781 40.328125 -5.21875 39.765625 -3.53125 C 38.078125 1.082031 36.046875 5.53125 33.671875 9.8125 C 31.015625 14.675781 27.785156 19.140625 23.984375 23.203125 C 21.335938 25.910156 18.316406 28.125 14.921875 29.84375 C 11.523438 31.5625 8.03125 32.765625 4.4375 33.453125 C 0.851562 34.140625 -2.570312 34.316406 -5.84375 33.984375 C -9.125 33.660156 -11.984375 32.816406 -14.421875 31.453125 C -16.859375 30.097656 -18.617188 28.226562 -19.703125 25.84375 C -20.796875 23.457031 -20.941406 20.546875 -20.140625 17.109375 C -19.328125 13.992188 -17.84375 11.320312 -15.6875 9.09375 C -13.53125 6.875 -11 5.007812 -8.09375 3.5 C -5.195312 1.988281 -2.1875 0.742188 0.9375 -0.234375 C 4.0625 -1.222656 7.015625 -2.0625 9.796875 -2.75 C 13.878906 -3.78125 18.210938 -4.710938 22.796875 -5.546875 C 27.390625 -6.390625 31.78125 -6.988281 35.96875 -7.34375 C 37.0625 -7.375 37.796875 -7.921875 38.171875 -8.984375 C 38.421875 -9.691406 38.703125 -10.394531 39.015625 -11.09375 C 39.140625 -11.40625 39.257812 -11.695312 39.375 -11.96875 C 39.96875 -13.414062 40.566406 -14.867188 41.171875 -16.328125 C 43.203125 -21.503906 45.382812 -26.722656 47.71875 -31.984375 C 50.0625 -37.253906 52.703125 -42.304688 55.640625 -47.140625 C 58.578125 -51.984375 61.945312 -56.367188 65.75 -60.296875 C 66.71875 -61.234375 67.734375 -62.132812 68.796875 -63 C 69.296875 -63.414062 69.988281 -63.734375 70.875 -63.953125 C 71.769531 -64.171875 72.53125 -64.128906 73.15625 -63.828125 C 73.78125 -63.535156 73.953125 -62.796875 73.671875 -61.609375 C 73.015625 -59.148438 72.453125 -56.648438 71.984375 -54.109375 C 71.515625 -51.578125 71.09375 -49.050781 70.71875 -46.53125 C 70.71875 -46.40625 70.703125 -46.273438 70.671875 -46.140625 C 69.785156 -40.410156 69.242188 -35.007812 69.046875 -29.9375 C 68.847656 -24.863281 68.765625 -19.441406 68.796875 -13.671875 C 68.796875 -13.046875 68.820312 -12.421875 68.875 -11.796875 C 68.925781 -11.347656 69.148438 -11.113281 69.546875 -11.09375 C 70.234375 -11.050781 70.90625 -11.050781 71.5625 -11.09375 C 72.34375 -11.113281 73.125 -11.113281 73.90625 -11.09375 C 74.25 -11.050781 74.578125 -10.9375 74.890625 -10.75 Z M 36.015625 -3.59375 C 36.273438 -4.28125 36.300781 -4.703125 36.09375 -4.859375 C 35.882812 -5.015625 35.441406 -5.039062 34.765625 -4.9375 C 31.441406 -4.507812 28.125 -4.03125 24.8125 -3.5 C 21.507812 -2.96875 18.234375 -2.3125 14.984375 -1.53125 C 14.515625 -1.40625 14.03125 -1.289062 13.53125 -1.1875 C 10.820312 -0.539062 7.914062 0.222656 4.8125 1.109375 C 1.707031 2.003906 -1.3125 3.140625 -4.25 4.515625 C -7.1875 5.890625 -9.726562 7.601562 -11.875 9.65625 C -14.03125 11.71875 -15.535156 14.203125 -16.390625 17.109375 C -17.253906 20.734375 -17.046875 23.671875 -15.765625 25.921875 C -14.492188 28.171875 -12.484375 29.785156 -9.734375 30.765625 C -6.992188 31.742188 -3.898438 32.109375 -0.453125 31.859375 C 2.992188 31.609375 6.4375 30.785156 9.875 29.390625 C 13.3125 28.003906 16.390625 26.082031 19.109375 23.625 C 22.910156 19.96875 26.140625 15.859375 28.796875 11.296875 C 30.234375 8.929688 31.53125 6.5 32.6875 4 C 33.84375 1.5 34.953125 -1.03125 36.015625 -3.59375 Z M 68.28125 -53.125 C 68.28125 -53.195312 68.296875 -53.289062 68.328125 -53.40625 C 68.429688 -53.914062 68.566406 -54.617188 68.734375 -55.515625 C 68.898438 -56.421875 69.015625 -57.238281 69.078125 -57.96875 C 69.171875 -58.582031 69.144531 -58.953125 69 -59.078125 C 68.863281 -59.203125 68.535156 -58.953125 68.015625 -58.328125 C 67.703125 -57.953125 67.390625 -57.582031 67.078125 -57.21875 C 65.878906 -55.894531 64.722656 -54.53125 63.609375 -53.125 C 61.078125 -49.875 58.71875 -46.210938 56.53125 -42.140625 C 54.34375 -38.066406 52.3125 -33.84375 50.4375 -29.46875 C 48.570312 -25.101562 46.804688 -20.847656 45.140625 -16.703125 C 44.367188 -14.785156 43.601562 -12.941406 42.84375 -11.171875 C 42.195312 -9.640625 41.953125 -8.722656 42.109375 -8.421875 C 42.265625 -8.128906 42.976562 -8.097656 44.25 -8.328125 C 44.4375 -8.328125 44.65625 -8.335938 44.90625 -8.359375 C 48.757812 -8.734375 52.585938 -9.15625 56.390625 -9.625 C 58.046875 -9.820312 59.695312 -10.015625 61.34375 -10.203125 C 61.6875 -10.253906 62.015625 -10.296875 62.328125 -10.328125 C 62.890625 -10.398438 63.472656 -10.460938 64.078125 -10.515625 C 64.441406 -10.546875 64.707031 -10.65625 64.875 -10.84375 C 65.050781 -11.03125 65.140625 -11.347656 65.140625 -11.796875 C 65.140625 -12.066406 65.140625 -12.359375 65.140625 -12.671875 C 65.140625 -12.828125 65.140625 -12.984375 65.140625 -13.140625 C 65.109375 -20.203125 65.269531 -26.835938 65.625 -33.046875 C 65.988281 -39.253906 66.875 -45.945312 68.28125 -53.125 Z M 68.28125 -53.125 "/></g></g></g><g fill="#ffffff" fill-opacity="1"><g transform="translate(96.070389, 204.674526)"><g><path d="M 3.78125 6.703125 C 2.914062 6.835938 2.179688 6.628906 1.578125 6.078125 C 0.984375 5.523438 0.601562 4.726562 0.4375 3.6875 C 0.238281 2.4375 0.226562 1.453125 0.40625 0.734375 L 1.109375 0.625 C 0.921875 1.414062 0.921875 2.382812 1.109375 3.53125 C 1.234375 4.375 1.523438 5.007812 1.984375 5.4375 C 2.453125 5.875 3 6.039062 3.625 5.9375 C 4.007812 5.882812 4.316406 5.753906 4.546875 5.546875 C 4.773438 5.335938 4.960938 5.03125 5.109375 4.625 C 5.265625 4.226562 5.410156 3.65625 5.546875 2.90625 C 5.742188 1.789062 6.019531 1 6.375 0.53125 C 6.738281 0.0703125 7.269531 -0.210938 7.96875 -0.328125 C 8.726562 -0.453125 9.398438 -0.25 9.984375 0.28125 C 10.566406 0.8125 10.9375 1.550781 11.09375 2.5 C 11.238281 3.46875 11.191406 4.398438 10.953125 5.296875 L 10.3125 5.125 C 10.53125 4.21875 10.578125 3.378906 10.453125 2.609375 C 10.328125 1.847656 10.050781 1.269531 9.625 0.875 C 9.207031 0.488281 8.703125 0.34375 8.109375 0.4375 C 7.722656 0.5 7.414062 0.613281 7.1875 0.78125 C 6.96875 0.945312 6.78125 1.203125 6.625 1.546875 C 6.476562 1.898438 6.335938 2.484375 6.203125 3.296875 C 6.046875 4.140625 5.867188 4.78125 5.671875 5.21875 C 5.484375 5.664062 5.234375 6.003906 4.921875 6.234375 C 4.617188 6.472656 4.238281 6.628906 3.78125 6.703125 Z M 3.78125 6.703125 "/></g></g></g><g fill="#ffffff" fill-opacity="1"><g transform="translate(97.712319, 214.404433)"><g><path d="M 1.875 6.90625 L 0.390625 1.421875 L 10.4375 -1.296875 L 11.921875 4.1875 L 11.265625 4.359375 L 9.96875 -0.421875 L 6.171875 0.609375 L 7.390625 5.140625 L 6.75 5.3125 L 5.53125 0.78125 L 1.234375 1.953125 L 2.53125 6.734375 Z M 1.875 6.90625 "/></g></g></g><g fill="#ffffff" fill-opacity="1"><g transform="translate(100.389161, 224.098891)"><g><path d="M 3.421875 8.375 L 3.140625 7.703125 L 9.359375 -1.5 L 9.328125 -1.5625 C 8.347656 -1.09375 7.597656 -0.75 7.078125 -0.53125 L 0.828125 2.015625 L 0.5625 1.359375 L 10.203125 -2.578125 L 10.46875 -1.890625 L 4.25 7.28125 L 4.265625 7.328125 C 5.035156 6.960938 5.773438 6.640625 6.484375 6.359375 L 12.78125 3.78125 L 13.0625 4.4375 Z M 3.421875 8.375 "/></g></g></g><g fill="#ffffff" fill-opacity="1"><g transform="translate(105.299983, 235.458514)"><g><path d="M 0.6875 1.296875 L 9.890625 -3.546875 L 10.234375 -2.890625 L 1.03125 1.953125 Z M 0.6875 1.296875 "/></g></g></g><g fill="#ffffff" fill-opacity="1"><g transform="translate(107.812848, 240.430311)"><g><path d="M 10 5.625 C 8.625 6.539062 7.304688 6.921875 6.046875 6.765625 C 4.796875 6.609375 3.769531 5.925781 2.96875 4.71875 C 2.164062 3.507812 1.9375 2.296875 2.28125 1.078125 C 2.625 -0.140625 3.488281 -1.207031 4.875 -2.125 C 6.257812 -3.039062 7.578125 -3.414062 8.828125 -3.25 C 10.078125 -3.082031 11.097656 -2.398438 11.890625 -1.203125 C 12.703125 0.015625 12.9375 1.226562 12.59375 2.4375 C 12.25 3.644531 11.382812 4.707031 10 5.625 Z M 5.28125 -1.46875 C 4.039062 -0.644531 3.265625 0.265625 2.953125 1.265625 C 2.648438 2.273438 2.84375 3.300781 3.53125 4.34375 C 4.226562 5.382812 5.09375 5.957031 6.125 6.0625 C 7.164062 6.164062 8.3125 5.800781 9.5625 4.96875 C 10.8125 4.144531 11.585938 3.234375 11.890625 2.234375 C 12.191406 1.242188 11.992188 0.226562 11.296875 -0.8125 C 10.617188 -1.84375 9.753906 -2.414062 8.703125 -2.53125 C 7.660156 -2.644531 6.519531 -2.289062 5.28125 -1.46875 Z M 5.28125 -1.46875 "/></g></g></g><g fill="#ffffff" fill-opacity="1"><g transform="translate(115.283666, 251.29653)"><g><path d="M 4.875 -1.3125 L 1.453125 1.65625 L 0.96875 1.109375 L 8.8125 -5.71875 L 10.4375 -3.84375 C 11.28125 -2.875 11.722656 -2 11.765625 -1.21875 C 11.816406 -0.445312 11.484375 0.253906 10.765625 0.890625 C 10.234375 1.347656 9.664062 1.597656 9.0625 1.640625 C 8.46875 1.679688 7.847656 1.484375 7.203125 1.046875 L 5.46875 6.28125 L 4.90625 5.640625 L 6.5625 0.640625 Z M 5.34375 -1.734375 L 6.640625 -0.234375 C 7.210938 0.429688 7.804688 0.816406 8.421875 0.921875 C 9.035156 1.035156 9.628906 0.84375 10.203125 0.34375 C 10.804688 -0.175781 11.085938 -0.734375 11.046875 -1.328125 C 11.003906 -1.929688 10.632812 -2.640625 9.9375 -3.453125 L 8.8125 -4.75 Z M 5.34375 -1.734375 "/></g></g></g><g fill="#ffffff" fill-opacity="1"><g transform="translate(122.294731, 259.072335)"><g/></g></g><g fill="#ffffff" fill-opacity="1"><g transform="translate(126.307193, 262.98145)"><g><path d="M 4.5625 -2.140625 L 1.71875 1.390625 L 1.140625 0.921875 L 7.6875 -7.171875 L 9.625 -5.609375 C 10.625 -4.796875 11.210938 -4.007812 11.390625 -3.25 C 11.566406 -2.488281 11.351562 -1.738281 10.75 -1 C 10.3125 -0.457031 9.796875 -0.113281 9.203125 0.03125 C 8.617188 0.175781 7.972656 0.09375 7.265625 -0.21875 L 6.46875 5.234375 L 5.8125 4.703125 L 6.5625 -0.53125 Z M 4.953125 -2.625 L 6.484375 -1.390625 C 7.171875 -0.835938 7.828125 -0.554688 8.453125 -0.546875 C 9.078125 -0.546875 9.628906 -0.84375 10.109375 -1.4375 C 10.609375 -2.0625 10.785156 -2.660156 10.640625 -3.234375 C 10.492188 -3.804688 10.003906 -4.429688 9.171875 -5.109375 L 7.84375 -6.1875 Z M 4.953125 -2.625 "/></g></g></g><g fill="#ffffff" fill-opacity="1"><g transform="translate(134.637615, 269.555068)"><g><path d="M 6.03125 3.84375 L 1.234375 0.796875 L 6.828125 -7.96875 L 11.625 -4.921875 L 11.265625 -4.359375 L 7.09375 -7.015625 L 4.984375 -3.703125 L 8.9375 -1.1875 L 8.5625 -0.625 L 4.609375 -3.140625 L 2.21875 0.625 L 6.390625 3.28125 Z M 6.03125 3.84375 "/></g></g></g><g fill="#ffffff" fill-opacity="1"><g transform="translate(143.113476, 274.855783)"><g><path d="M 7.4375 -0.453125 L 3.625 -2.3125 L 0.71875 0.34375 L 0 0 L 8.359375 -7.546875 L 8.765625 -7.34375 L 7.859375 3.84375 L 7.125 3.484375 Z M 4.171875 -2.78125 L 7.515625 -1.140625 L 7.890625 -5.125 C 7.910156 -5.4375 7.960938 -5.863281 8.046875 -6.40625 C 7.734375 -6.070312 7.425781 -5.765625 7.125 -5.484375 Z M 4.171875 -2.78125 "/></g></g></g><g fill="#ffffff" fill-opacity="1"><g transform="translate(152.766999, 279.42544)"><g><path d="M 1.375 0.5 L 4.90625 -9.296875 L 5.609375 -9.046875 L 2.3125 0.109375 L 6.96875 1.78125 L 6.734375 2.421875 Z M 1.375 0.5 "/></g></g></g><g fill="#ffffff" fill-opacity="1"><g transform="translate(161.518591, 282.424761)"><g/></g></g><g fill="#ffffff" fill-opacity="1"><g transform="translate(166.900213, 283.902308)"><g><path d="M 7.03125 1.296875 L 1.4375 0.265625 L 3.3125 -9.96875 L 8.90625 -8.9375 L 8.78125 -8.28125 L 3.921875 -9.1875 L 3.21875 -5.3125 L 7.828125 -4.453125 L 7.703125 -3.796875 L 3.09375 -4.65625 L 2.296875 -0.265625 L 7.15625 0.640625 Z M 7.03125 1.296875 "/></g></g></g><g fill="#ffffff" fill-opacity="1"><g transform="translate(176.72444, 285.597079)"><g><path d="M 7.40625 -2.15625 C 7.332031 -1.28125 6.957031 -0.613281 6.28125 -0.15625 C 5.601562 0.300781 4.738281 0.488281 3.6875 0.40625 C 2.425781 0.320312 1.46875 0.113281 0.8125 -0.21875 L 0.875 -0.9375 C 1.59375 -0.570312 2.523438 -0.347656 3.671875 -0.265625 C 4.523438 -0.203125 5.21875 -0.347656 5.75 -0.703125 C 6.28125 -1.054688 6.566406 -1.550781 6.609375 -2.1875 C 6.640625 -2.570312 6.582031 -2.894531 6.4375 -3.15625 C 6.289062 -3.425781 6.035156 -3.679688 5.671875 -3.921875 C 5.316406 -4.160156 4.789062 -4.429688 4.09375 -4.734375 C 3.0625 -5.179688 2.359375 -5.632812 1.984375 -6.09375 C 1.609375 -6.550781 1.445312 -7.132812 1.5 -7.84375 C 1.5625 -8.601562 1.914062 -9.207031 2.5625 -9.65625 C 3.207031 -10.101562 4.003906 -10.289062 4.953125 -10.21875 C 5.929688 -10.144531 6.832031 -9.890625 7.65625 -9.453125 L 7.34375 -8.859375 C 6.507812 -9.285156 5.703125 -9.523438 4.921875 -9.578125 C 4.148438 -9.640625 3.523438 -9.503906 3.046875 -9.171875 C 2.578125 -8.847656 2.316406 -8.390625 2.265625 -7.796875 C 2.242188 -7.410156 2.289062 -7.085938 2.40625 -6.828125 C 2.519531 -6.566406 2.722656 -6.328125 3.015625 -6.109375 C 3.316406 -5.890625 3.847656 -5.613281 4.609375 -5.28125 C 5.398438 -4.9375 5.988281 -4.617188 6.375 -4.328125 C 6.769531 -4.046875 7.046875 -3.726562 7.203125 -3.375 C 7.367188 -3.019531 7.4375 -2.613281 7.40625 -2.15625 Z M 7.40625 -2.15625 "/></g></g></g><g fill="#ffffff" fill-opacity="1"><g transform="translate(186.561337, 286.212599)"><g><path d="M 4.1875 -0.140625 L 3.453125 -0.109375 L 3.140625 -9.828125 L -0.234375 -9.71875 L -0.25 -10.40625 L 7.234375 -10.640625 L 7.25 -9.953125 L 3.875 -9.859375 Z M 4.1875 -0.140625 "/></g></g></g><g fill="#ffffff" fill-opacity="1"><g transform="translate(196.13188, 285.829997)"><g><path d="M 5.90625 -4.5625 L 1.71875 -3.953125 L 0.78125 -0.109375 L 0 0 L 2.65625 -10.9375 L 3.109375 -11 L 8.65625 -1.234375 L 7.859375 -1.125 Z M 1.875 -4.640625 L 5.578125 -5.171875 L 3.640625 -8.6875 C 3.472656 -8.945312 3.273438 -9.328125 3.046875 -9.828125 C 2.972656 -9.359375 2.890625 -8.929688 2.796875 -8.546875 Z M 1.875 -4.640625 "/></g></g></g><g fill="#ffffff" fill-opacity="1"><g transform="translate(206.689436, 284.17906)"><g><path d="M 4.0625 -1.046875 L 3.34375 -0.859375 L 0.921875 -10.265625 L -2.34375 -9.421875 L -2.515625 -10.09375 L 4.734375 -11.96875 L 4.90625 -11.296875 L 1.640625 -10.453125 Z M 4.0625 -1.046875 "/></g></g></g><g fill="#ffffff" fill-opacity="1"><g transform="translate(215.917688, 281.705336)"><g><path d="M 6.703125 -2.515625 L 1.375 -0.515625 L -2.28125 -10.265625 L 3.046875 -12.265625 L 3.28125 -11.625 L -1.359375 -9.875 L 0.03125 -6.1875 L 4.421875 -7.84375 L 4.65625 -7.21875 L 0.265625 -5.5625 L 1.828125 -1.390625 L 6.46875 -3.140625 Z M 6.703125 -2.515625 "/></g></g></g><g fill="#ffffff" fill-opacity="1"><g transform="translate(225.064829, 278.10219)"><g/></g></g><g fill="#ffffff" fill-opacity="1"><g transform="translate(230.109784, 275.723063)"><g><path d="M 4.90625 -5.953125 C 5.34375 -5.191406 5.410156 -4.429688 5.109375 -3.671875 C 4.804688 -2.910156 4.203125 -2.265625 3.296875 -1.734375 C 2.191406 -1.097656 1.273438 -0.738281 0.546875 -0.65625 L 0.1875 -1.265625 C 0.988281 -1.367188 1.890625 -1.707031 2.890625 -2.28125 C 3.628906 -2.71875 4.113281 -3.226562 4.34375 -3.8125 C 4.582031 -4.40625 4.546875 -4.976562 4.234375 -5.53125 C 4.035156 -5.875 3.800781 -6.113281 3.53125 -6.25 C 3.257812 -6.382812 2.90625 -6.453125 2.46875 -6.453125 C 2.03125 -6.453125 1.441406 -6.378906 0.703125 -6.234375 C -0.398438 -6.015625 -1.234375 -5.988281 -1.796875 -6.15625 C -2.359375 -6.320312 -2.816406 -6.710938 -3.171875 -7.328125 C -3.566406 -7.992188 -3.625 -8.691406 -3.34375 -9.421875 C -3.0625 -10.148438 -2.503906 -10.753906 -1.671875 -11.234375 C -0.828125 -11.734375 0.0546875 -12.035156 0.984375 -12.140625 L 1.0625 -11.453125 C 0.132812 -11.335938 -0.664062 -11.082031 -1.34375 -10.6875 C -2.007812 -10.300781 -2.445312 -9.835938 -2.65625 -9.296875 C -2.875 -8.765625 -2.832031 -8.234375 -2.53125 -7.703125 C -2.332031 -7.367188 -2.109375 -7.128906 -1.859375 -6.984375 C -1.617188 -6.835938 -1.3125 -6.757812 -0.9375 -6.75 C -0.5625 -6.738281 0.03125 -6.816406 0.84375 -6.984375 C 1.675781 -7.140625 2.332031 -7.207031 2.8125 -7.1875 C 3.289062 -7.164062 3.695312 -7.054688 4.03125 -6.859375 C 4.375 -6.660156 4.664062 -6.359375 4.90625 -5.953125 Z M 4.90625 -5.953125 "/></g></g></g><g fill="#ffffff" fill-opacity="1"><g transform="translate(238.614942, 270.683242)"><g><path d="M 1.8125 -10.5625 C 2.40625 -9.75 2.585938 -8.921875 2.359375 -8.078125 C 2.140625 -7.242188 1.523438 -6.457031 0.515625 -5.71875 L -0.78125 -4.765625 L 1.765625 -1.3125 L 1.1875 -0.875 L -5 -9.25 L -2.953125 -10.765625 C -0.960938 -12.234375 0.625 -12.164062 1.8125 -10.5625 Z M -1.15625 -5.265625 L 0 -6.109375 C 0.9375 -6.804688 1.5 -7.46875 1.6875 -8.09375 C 1.875 -8.71875 1.710938 -9.375 1.203125 -10.0625 C 0.722656 -10.707031 0.171875 -11.039062 -0.453125 -11.0625 C -1.085938 -11.082031 -1.816406 -10.785156 -2.640625 -10.171875 L -4.03125 -9.15625 Z M -1.15625 -5.265625 "/></g></g></g><g fill="#ffffff" fill-opacity="1"><g transform="translate(246.964068, 264.362875)"><g><path d="M 5.25 -4.859375 L 1.078125 -1 L -6 -8.625 L -1.828125 -12.484375 L -1.375 -12 L -5.015625 -8.640625 L -2.328125 -5.75 L 1.109375 -8.9375 L 1.5625 -8.4375 L -1.875 -5.25 L 1.15625 -2 L 4.796875 -5.359375 Z M 5.25 -4.859375 "/></g></g></g><g fill="#ffffff" fill-opacity="1"><g transform="translate(254.244163, 257.495884)"><g><path d="M -3.65625 -10.953125 C -4.507812 -9.953125 -4.863281 -8.894531 -4.71875 -7.78125 C -4.570312 -6.664062 -3.953125 -5.632812 -2.859375 -4.6875 C -1.722656 -3.71875 -0.617188 -3.234375 0.453125 -3.234375 C 1.535156 -3.242188 2.503906 -3.75 3.359375 -4.75 C 3.929688 -5.40625 4.375 -6.085938 4.6875 -6.796875 L 5.171875 -6.375 C 4.910156 -5.6875 4.441406 -4.953125 3.765625 -4.171875 C 2.816406 -3.066406 1.707031 -2.503906 0.4375 -2.484375 C -0.820312 -2.460938 -2.09375 -3.003906 -3.375 -4.109375 C -4.175781 -4.796875 -4.75 -5.550781 -5.09375 -6.375 C -5.445312 -7.207031 -5.546875 -8.050781 -5.390625 -8.90625 C -5.242188 -9.769531 -4.84375 -10.578125 -4.1875 -11.328125 C -3.53125 -12.097656 -2.796875 -12.664062 -1.984375 -13.03125 L -1.671875 -12.390625 C -2.453125 -12.054688 -3.113281 -11.578125 -3.65625 -10.953125 Z M -3.65625 -10.953125 "/></g></g></g><g fill="#ffffff" fill-opacity="1"><g transform="translate(261.165627, 249.115009)"><g><path d="M 0.859375 -1.203125 L -7.609375 -7.25 L -7.1875 -7.84375 L 1.28125 -1.796875 Z M 0.859375 -1.203125 "/></g></g></g><g fill="#ffffff" fill-opacity="1"><g transform="translate(264.377781, 244.665915)"><g><path d="M 0.140625 -7.453125 L -2.015625 -3.796875 L 0.40625 -0.6875 L 0 0 L -6.875 -8.921875 L -6.640625 -9.3125 L 4.4375 -7.546875 L 4.03125 -6.84375 Z M -2.453125 -4.375 L -0.5625 -7.59375 L -4.5 -8.25 C -4.820312 -8.300781 -5.25 -8.390625 -5.78125 -8.515625 C -5.457031 -8.171875 -5.175781 -7.84375 -4.9375 -7.53125 Z M -2.453125 -4.375 "/></g></g></g><g fill="#ffffff" fill-opacity="1"><g transform="translate(269.67797, 235.393835)"><g><path d="M 0.609375 -1.34375 L -8.875 -5.609375 L -8.578125 -6.28125 L 0.28125 -2.296875 L 2.3125 -6.8125 L 2.9375 -6.53125 Z M 0.609375 -1.34375 "/></g></g></g><g fill="#ffffff" fill-opacity="1"><g transform="translate(273.340062, 226.9021)"><g><path d="M 0.5 -1.390625 L -9.296875 -4.890625 L -9.0625 -5.578125 L 0.734375 -2.078125 Z M 0.5 -1.390625 "/></g></g></g><g fill="#ffffff" fill-opacity="1"><g transform="translate(275.18852, 221.762758)"><g><path d="M -0.734375 -7.65625 C 0.109375 -7.4375 0.691406 -6.953125 1.015625 -6.203125 C 1.335938 -5.460938 1.363281 -4.582031 1.09375 -3.5625 C 0.769531 -2.332031 0.382812 -1.425781 -0.0625 -0.84375 L -0.765625 -1.015625 C -0.265625 -1.671875 0.128906 -2.554688 0.421875 -3.671875 C 0.640625 -4.492188 0.625 -5.195312 0.375 -5.78125 C 0.132812 -6.363281 -0.289062 -6.738281 -0.90625 -6.90625 C -1.289062 -7.007812 -1.625 -7.007812 -1.90625 -6.90625 C -2.195312 -6.8125 -2.492188 -6.613281 -2.796875 -6.3125 C -3.109375 -6.007812 -3.472656 -5.539062 -3.890625 -4.90625 C -4.523438 -3.96875 -5.097656 -3.359375 -5.609375 -3.078125 C -6.128906 -2.796875 -6.734375 -2.75 -7.421875 -2.9375 C -8.160156 -3.132812 -8.691406 -3.585938 -9.015625 -4.296875 C -9.335938 -5.015625 -9.375 -5.835938 -9.125 -6.765625 C -8.875 -7.710938 -8.457031 -8.550781 -7.875 -9.28125 L -7.34375 -8.875 C -7.914062 -8.125 -8.304688 -7.375 -8.515625 -6.625 C -8.710938 -5.875 -8.691406 -5.234375 -8.453125 -4.703125 C -8.222656 -4.171875 -7.816406 -3.828125 -7.234375 -3.671875 C -6.859375 -3.566406 -6.53125 -3.546875 -6.25 -3.609375 C -5.976562 -3.679688 -5.707031 -3.84375 -5.4375 -4.09375 C -5.164062 -4.351562 -4.796875 -4.828125 -4.328125 -5.515625 C -3.847656 -6.222656 -3.425781 -6.742188 -3.0625 -7.078125 C -2.707031 -7.410156 -2.34375 -7.617188 -1.96875 -7.703125 C -1.601562 -7.796875 -1.191406 -7.78125 -0.734375 -7.65625 Z M -0.734375 -7.65625 "/></g></g></g><g fill="#ffffff" fill-opacity="1"><g transform="translate(277.621788, 212.212275)"><g><path d="M 0.640625 -4.140625 L 0.53125 -3.40625 L -9.078125 -4.90625 L -9.59375 -1.578125 L -10.265625 -1.6875 L -9.109375 -9.078125 L -8.4375 -8.96875 L -8.96875 -5.640625 Z M 0.640625 -4.140625 "/></g></g></g><g fill="#ffffff" fill-opacity="1"><g transform="translate(118.053341, 144.480292)"><g><path d="M 1.71875 -7.625 C 2.488281 -7.113281 2.898438 -6.441406 2.953125 -5.609375 C 3.015625 -4.773438 2.734375 -3.882812 2.109375 -2.9375 C 1.429688 -1.894531 0.769531 -1.1875 0.125 -0.8125 L -0.84375 -1.453125 C -0.457031 -1.710938 -0.0820312 -2.023438 0.28125 -2.390625 C 0.65625 -2.753906 0.972656 -3.140625 1.234375 -3.546875 C 1.691406 -4.222656 1.90625 -4.816406 1.875 -5.328125 C 1.84375 -5.835938 1.597656 -6.242188 1.140625 -6.546875 C 0.835938 -6.742188 0.546875 -6.84375 0.265625 -6.84375 C -0.00390625 -6.84375 -0.3125 -6.753906 -0.65625 -6.578125 C -1.007812 -6.410156 -1.476562 -6.109375 -2.0625 -5.671875 C -2.875 -5.046875 -3.59375 -4.691406 -4.21875 -4.609375 C -4.851562 -4.523438 -5.492188 -4.695312 -6.140625 -5.125 C -6.796875 -5.5625 -7.15625 -6.160156 -7.21875 -6.921875 C -7.289062 -7.691406 -7.050781 -8.492188 -6.5 -9.328125 C -5.9375 -10.179688 -5.25 -10.863281 -4.4375 -11.375 L -3.78125 -10.46875 C -4.550781 -9.957031 -5.160156 -9.363281 -5.609375 -8.6875 C -5.960938 -8.15625 -6.125 -7.664062 -6.09375 -7.21875 C -6.070312 -6.769531 -5.859375 -6.410156 -5.453125 -6.140625 C -5.148438 -5.929688 -4.863281 -5.816406 -4.59375 -5.796875 C -4.320312 -5.785156 -4.019531 -5.859375 -3.6875 -6.015625 C -3.351562 -6.171875 -2.910156 -6.457031 -2.359375 -6.875 C -1.421875 -7.582031 -0.65625 -7.984375 -0.0625 -8.078125 C 0.53125 -8.171875 1.125 -8.019531 1.71875 -7.625 Z M 1.71875 -7.625 "/></g></g></g><g fill="#ffffff" fill-opacity="1"><g transform="translate(124.575657, 134.938978)"><g><path d="M -1.359375 -13.890625 L 3.59375 -9.328125 C 4.46875 -8.523438 4.910156 -7.628906 4.921875 -6.640625 C 4.929688 -5.660156 4.515625 -4.707031 3.671875 -3.78125 C 2.816406 -2.851562 1.90625 -2.367188 0.9375 -2.328125 C -0.0195312 -2.296875 -0.941406 -2.679688 -1.828125 -3.484375 L -6.75 -8.03125 L -5.9375 -8.90625 L -0.9375 -4.296875 C -0.300781 -3.710938 0.34375 -3.4375 1 -3.46875 C 1.664062 -3.507812 2.3125 -3.875 2.9375 -4.5625 C 3.53125 -5.207031 3.8125 -5.863281 3.78125 -6.53125 C 3.757812 -7.195312 3.429688 -7.820312 2.796875 -8.40625 L -2.1875 -13 Z M -1.359375 -13.890625 "/></g></g></g><g fill="#ffffff" fill-opacity="1"><g transform="translate(134.422053, 124.780248)"><g><path d="M 6.078125 -4.78125 L 0.453125 -0.359375 L -0.140625 -1.109375 L -0.96875 -11.09375 L -5.171875 -7.78125 L -5.84375 -8.640625 L -0.484375 -12.859375 L 0.109375 -12.109375 L 0.953125 -2.140625 L 5.40625 -5.640625 Z M 6.078125 -4.78125 "/></g></g></g><g fill="#ffffff" fill-opacity="1"><g transform="translate(143.922262, 117.603535)"><g><path d="M 6.9375 -3.921875 L 4.1875 -6.171875 L 0.546875 -4.125 L 1.0625 -0.59375 L 0 0 L -1.5625 -11.109375 L -0.671875 -11.609375 L 8.03125 -4.53125 Z M 3.3125 -6.9375 L 0.6875 -9.140625 C 0.351562 -9.421875 -0.03125 -9.773438 -0.46875 -10.203125 C -0.34375 -9.753906 -0.226562 -9.25 -0.125 -8.6875 L 0.390625 -5.28125 Z M 3.3125 -6.9375 "/></g></g></g><g fill="#ffffff" fill-opacity="1"><g transform="translate(155.114285, 111.5323)"><g><path d="M 9 -3.25 L 7.6875 -2.765625 L -0.625 -9.0625 L -0.671875 -9.046875 C -0.253906 -8.109375 0.09375 -7.238281 0.375 -6.4375 L 2.390625 -0.859375 L 1.359375 -0.484375 L -2.171875 -10.28125 L -0.90625 -10.75 L 7.390625 -4.484375 L 7.453125 -4.5 C 7.398438 -4.625 7.238281 -5.003906 6.96875 -5.640625 C 6.695312 -6.273438 6.515625 -6.738281 6.421875 -7.03125 L 4.390625 -12.65625 L 5.46875 -13.046875 Z M 9 -3.25 "/></g></g></g><g fill="#ffffff" fill-opacity="1"><g transform="translate(168.799641, 106.92536)"><g><path d="M 9.421875 -1.59375 L 8.0625 -1.359375 L 1 -9.03125 L 0.953125 -9.015625 C 1.191406 -8.023438 1.382812 -7.109375 1.53125 -6.265625 L 2.515625 -0.421875 L 1.421875 -0.234375 L -0.3125 -10.5 L 1.015625 -10.734375 L 8.0625 -3.078125 L 8.125 -3.09375 C 8.09375 -3.226562 8 -3.632812 7.84375 -4.3125 C 7.6875 -4.988281 7.59375 -5.476562 7.5625 -5.78125 L 6.5625 -11.671875 L 7.6875 -11.859375 Z M 9.421875 -1.59375 "/></g></g></g><g fill="#ffffff" fill-opacity="1"><g transform="translate(183.177034, 104.900134)"><g><path d="M 7.234375 -0.046875 L 1.4375 -0.015625 L 1.375 -10.421875 L 7.171875 -10.453125 L 7.171875 -9.375 L 2.578125 -9.34375 L 2.609375 -6 L 6.921875 -6.03125 L 6.921875 -4.953125 L 2.609375 -4.921875 L 2.640625 -1.09375 L 7.234375 -1.125 Z M 7.234375 -0.046875 "/></g></g></g><g fill="#ffffff" fill-opacity="1"><g transform="translate(195.033889, 105.184312)"><g/></g></g><g fill="#ffffff" fill-opacity="1"><g transform="translate(202.495597, 106.103289)"><g><path d="M 7.734375 1.90625 L 7.28125 -1.625 L 3.21875 -2.625 L 1.1875 0.296875 L 0 0 L 6.46875 -9.171875 L 7.46875 -8.9375 L 8.953125 2.203125 Z M 7.15625 -2.78125 L 6.765625 -6.1875 C 6.710938 -6.625 6.675781 -7.148438 6.65625 -7.765625 C 6.445312 -7.335938 6.175781 -6.890625 5.84375 -6.421875 L 3.90625 -3.578125 Z M 7.15625 -2.78125 "/></g></g></g><g fill="#ffffff" fill-opacity="1"><g transform="translate(214.813023, 109.367211)"><g><path d="M 12.640625 -5.890625 L 9.984375 0.296875 C 9.515625 1.390625 8.816406 2.101562 7.890625 2.4375 C 6.960938 2.78125 5.925781 2.703125 4.78125 2.203125 C 3.613281 1.703125 2.851562 1.003906 2.5 0.109375 C 2.144531 -0.773438 2.207031 -1.769531 2.6875 -2.875 L 5.328125 -9.03125 L 6.4375 -8.5625 L 3.75 -2.3125 C 3.414062 -1.519531 3.367188 -0.816406 3.609375 -0.203125 C 3.859375 0.410156 4.410156 0.898438 5.265625 1.265625 C 6.066406 1.609375 6.78125 1.65625 7.40625 1.40625 C 8.03125 1.164062 8.515625 0.648438 8.859375 -0.140625 L 11.53125 -6.375 Z M 12.640625 -5.890625 "/></g></g></g><g fill="#ffffff" fill-opacity="1"><g transform="translate(227.659052, 115.318546)"><g><path d="M 7.640625 1.578125 C 7.148438 2.347656 6.488281 2.769531 5.65625 2.84375 C 4.820312 2.925781 3.925781 2.664062 2.96875 2.0625 C 1.925781 1.394531 1.207031 0.75 0.8125 0.125 L 1.4375 -0.859375 C 1.695312 -0.484375 2.015625 -0.117188 2.390625 0.234375 C 2.765625 0.597656 3.160156 0.910156 3.578125 1.171875 C 4.265625 1.609375 4.859375 1.800781 5.359375 1.75 C 5.859375 1.707031 6.253906 1.457031 6.546875 1 C 6.742188 0.695312 6.84375 0.410156 6.84375 0.140625 C 6.84375 -0.128906 6.75 -0.429688 6.5625 -0.765625 C 6.382812 -1.109375 6.070312 -1.578125 5.625 -2.171875 C 5 -2.984375 4.632812 -3.695312 4.53125 -4.3125 C 4.4375 -4.925781 4.59375 -5.5625 5 -6.21875 C 5.425781 -6.882812 6.019531 -7.257812 6.78125 -7.34375 C 7.550781 -7.425781 8.351562 -7.203125 9.1875 -6.671875 C 10.0625 -6.117188 10.765625 -5.445312 11.296875 -4.65625 L 10.421875 -3.984375 C 9.878906 -4.742188 9.269531 -5.335938 8.59375 -5.765625 C 8.050781 -6.109375 7.550781 -6.265625 7.09375 -6.234375 C 6.644531 -6.203125 6.289062 -5.976562 6.03125 -5.5625 C 5.832031 -5.257812 5.726562 -4.972656 5.71875 -4.703125 C 5.707031 -4.429688 5.785156 -4.128906 5.953125 -3.796875 C 6.117188 -3.472656 6.414062 -3.039062 6.84375 -2.5 C 7.539062 -1.570312 7.941406 -0.8125 8.046875 -0.21875 C 8.160156 0.363281 8.023438 0.960938 7.640625 1.578125 Z M 7.640625 1.578125 "/></g></g></g><g fill="#ffffff" fill-opacity="1"><g transform="translate(237.337164, 121.765343)"><g><path d="M 3.515625 3.03125 L 2.59375 2.234375 L 8.671875 -4.84375 L 6.171875 -7 L 6.875 -7.8125 L 12.796875 -2.71875 L 12.09375 -1.90625 L 9.59375 -4.046875 Z M 3.515625 3.03125 "/></g></g></g><g fill="#ffffff" fill-opacity="1"><g transform="translate(246.06421, 129.724408)"><g><path d="M 0.96875 1.0625 L 8.65625 -5.953125 L 9.46875 -5.0625 L 1.78125 1.953125 Z M 0.96875 1.0625 "/></g></g></g><g fill="#ffffff" fill-opacity="1"><g transform="translate(251.269356, 135.449482)"><g><path d="M 5.40625 7.890625 L 4.625 6.734375 L 8.609375 -2.890625 L 8.578125 -2.921875 C 7.773438 -2.296875 7.019531 -1.738281 6.3125 -1.25 L 1.4375 2.09375 L 0.8125 1.1875 L 9.390625 -4.703125 L 10.15625 -3.578125 L 6.203125 6.015625 L 6.234375 6.0625 C 6.335938 5.976562 6.660156 5.726562 7.203125 5.3125 C 7.753906 4.894531 8.160156 4.597656 8.421875 4.421875 L 13.34375 1.046875 L 13.984375 2 Z M 5.40625 7.890625 "/></g></g></g></svg>