<svg xmlns="http://www.w3.org/2000/svg" xmlns:xlink="http://www.w3.org/1999/xlink" width="500" zoomAndPan="magnify" viewBox="0 0 375 374.999991" height="500" preserveAspectRatio="xMidYMid meet" version="1.0"><defs><g/><clipPath id="1cd5690440"><path d="M 6.929688 6.929688 L 369.921875 6.929688 L 369.921875 369.921875 L 6.929688 369.921875 Z M 6.929688 6.929688 " clip-rule="nonzero"/></clipPath><clipPath id="313564a5e2"><path d="M 188.425781 6.929688 C 88.1875 6.929688 6.929688 88.1875 6.929688 188.425781 C 6.929688 288.664062 88.1875 369.921875 188.425781 369.921875 C 288.664062 369.921875 369.921875 288.664062 369.921875 188.425781 C 369.921875 88.1875 288.664062 6.929688 188.425781 6.929688 Z M 188.425781 6.929688 " clip-rule="nonzero"/></clipPath><clipPath id="a111c17fc4"><path d="M 25.691406 176.363281 L 49.761719 176.363281 L 49.761719 200.4375 L 25.691406 200.4375 Z M 25.691406 176.363281 " clip-rule="nonzero"/></clipPath><clipPath id="cc8c1d83da"><path d="M 37.726562 176.363281 L 41.554688 184.570312 L 49.761719 188.402344 L 41.554688 192.230469 L 37.726562 200.4375 L 33.894531 192.230469 L 25.691406 188.402344 L 33.894531 184.570312 Z M 37.726562 176.363281 " clip-rule="nonzero"/></clipPath><clipPath id="80447f54eb"><path d="M 330.003906 176.363281 L 354.078125 176.363281 L 354.078125 200.4375 L 330.003906 200.4375 Z M 330.003906 176.363281 " clip-rule="nonzero"/></clipPath><clipPath id="55ce597cc9"><path d="M 342.042969 176.363281 L 345.871094 184.570312 L 354.078125 188.402344 L 345.871094 192.230469 L 342.042969 200.4375 L 338.210938 192.230469 L 330.003906 188.402344 L 338.210938 184.570312 Z M 342.042969 176.363281 " clip-rule="nonzero"/></clipPath></defs><g clip-path="url(#1cd5690440)"><g clip-path="url(#313564a5e2)"><path fill="#e96840" d="M 6.929688 6.929688 L 369.921875 6.929688 L 369.921875 369.921875 L 6.929688 369.921875 Z M 6.929688 6.929688 " fill-opacity="1" fill-rule="nonzero"/></g></g><g clip-path="url(#a111c17fc4)"><g clip-path="url(#cc8c1d83da)"><path fill="#ffd8d7" d="M 25.691406 176.363281 L 49.761719 176.363281 L 49.761719 200.4375 L 25.691406 200.4375 Z M 25.691406 176.363281 " fill-opacity="1" fill-rule="nonzero"/></g></g><g clip-path="url(#80447f54eb)"><g clip-path="url(#55ce597cc9)"><path fill="#ffd8d7" d="M 330.003906 176.363281 L 354.078125 176.363281 L 354.078125 200.4375 L 330.003906 200.4375 Z M 330.003906 176.363281 " fill-opacity="1" fill-rule="nonzero"/></g></g><g fill="#ffffff" fill-opacity="1"><g transform="translate(104.193147, 214.165943)"><g><path d="M 34.84375 23.03125 C 36.113281 23.082031 37.378906 23.039062 38.640625 22.90625 C 39.898438 22.769531 41.101562 22.453125 42.25 21.953125 C 45.726562 20.304688 46.914062 17.695312 45.8125 14.125 C 45.21875 12.300781 44.28125 10.628906 43 9.109375 C 41.53125 7.234375 39.914062 5.492188 38.15625 3.890625 C 36.394531 2.296875 34.578125 0.757812 32.703125 -0.71875 C 31.648438 -1.488281 30.664062 -1.460938 29.75 -0.640625 C 26.875 1.503906 24.285156 3.90625 21.984375 6.5625 C 20.984375 7.757812 20.132812 9.066406 19.4375 10.484375 C 17.9375 14.003906 18.675781 16.976562 21.65625 19.40625 C 23.070312 20.5 24.644531 21.296875 26.375 21.796875 C 29.125 22.617188 31.945312 23.03125 34.84375 23.03125 Z M 36.5625 -5.390625 C 36.6875 -4.921875 36.894531 -4.53125 37.1875 -4.21875 C 37.488281 -3.90625 37.804688 -3.648438 38.140625 -3.453125 C 38.359375 -3.273438 38.582031 -3.097656 38.8125 -2.921875 C 39.6875 -2.171875 40.5625 -1.382812 41.4375 -0.5625 C 43.082031 0.882812 44.675781 2.320312 46.21875 3.75 C 48.46875 5.820312 50.28125 8.226562 51.65625 10.96875 C 53.03125 13.71875 53.382812 16.382812 52.71875 18.96875 C 52.0625 21.550781 50.035156 23.617188 46.640625 25.171875 C 45.210938 25.816406 43.703125 26.253906 42.109375 26.484375 C 39.035156 26.859375 35.941406 27.007812 32.828125 26.9375 C 29.722656 26.863281 26.660156 26.410156 23.640625 25.578125 C 22.160156 25.179688 20.734375 24.65625 19.359375 24 C 17.992188 23.351562 16.757812 22.507812 15.65625 21.46875 C 11.738281 17.894531 10.914062 13.710938 13.1875 8.921875 C 14.113281 7.066406 15.285156 5.367188 16.703125 3.828125 C 19.023438 1.398438 21.5 -0.847656 24.125 -2.921875 C 25.445312 -3.972656 26.09375 -4.734375 26.0625 -5.203125 C 26.039062 -5.679688 25.28125 -6.359375 23.78125 -7.234375 C 21.113281 -9.023438 18.40625 -10.8125 15.65625 -12.59375 C 14.207031 -13.507812 12.769531 -14.441406 11.34375 -15.390625 C 10.476562 -15.992188 9.609375 -16.570312 8.734375 -17.125 C 6.535156 -18.5 4.359375 -19.945312 2.203125 -21.46875 C -0.210938 -23.1875 -2.472656 -25.054688 -4.578125 -27.078125 C -6.691406 -29.109375 -8.550781 -31.394531 -10.15625 -33.9375 C -13.445312 -39.257812 -14.664062 -44.691406 -13.8125 -50.234375 C -12.96875 -55.773438 -10.550781 -61.117188 -6.5625 -66.265625 C -2.582031 -71.410156 2.425781 -76.039062 8.46875 -80.15625 C 14.507812 -84.28125 21.0625 -87.613281 28.125 -90.15625 C 35.195312 -92.707031 42.234375 -94.175781 49.234375 -94.5625 C 56.242188 -94.957031 62.679688 -93.972656 68.546875 -91.609375 C 74.421875 -89.242188 79.253906 -85.179688 83.046875 -79.421875 C 83.722656 -78.367188 84.289062 -77.253906 84.75 -76.078125 C 85.21875 -74.910156 85.453125 -73.660156 85.453125 -72.328125 C 85.453125 -71.003906 84.851562 -70.179688 83.65625 -69.859375 C 82.820312 -69.640625 82.0625 -69.65625 81.375 -69.90625 C 80.695312 -70.15625 80.179688 -70.550781 79.828125 -71.09375 C 79.773438 -71.25 79.722656 -71.4375 79.671875 -71.65625 C 79.628906 -71.78125 79.609375 -71.894531 79.609375 -72 C 77.078125 -78.96875 73.335938 -83.9375 68.390625 -86.90625 C 63.453125 -89.875 57.859375 -91.265625 51.609375 -91.078125 C 45.367188 -90.890625 38.992188 -89.53125 32.484375 -87 C 25.984375 -84.46875 19.875 -81.238281 14.15625 -77.3125 C 8.4375 -73.394531 3.644531 -69.179688 -0.21875 -64.671875 C -4.09375 -60.160156 -6.492188 -55.785156 -7.421875 -51.546875 C -8.367188 -46.273438 -7.46875 -41.390625 -4.71875 -36.890625 C -2.519531 -33.097656 0.285156 -29.851562 3.703125 -27.15625 C 6.328125 -25.082031 9.015625 -23.109375 11.765625 -21.234375 C 14.234375 -19.640625 16.679688 -18.066406 19.109375 -16.515625 C 22.453125 -14.390625 25.75 -12.234375 29 -10.046875 C 29.914062 -9.367188 30.773438 -9.0625 31.578125 -9.125 C 32.378906 -9.1875 33.21875 -9.515625 34.09375 -10.109375 C 38.4375 -12.734375 42.722656 -15.144531 46.953125 -17.34375 C 51.191406 -19.539062 53.539062 -20.144531 54 -19.15625 C 54.457031 -18.175781 53.789062 -17.023438 52 -15.703125 C 47.75 -13.453125 43.675781 -10.925781 39.78125 -8.125 C 39.5625 -8.03125 39.347656 -7.894531 39.140625 -7.71875 C 38.097656 -7.164062 37.238281 -6.390625 36.5625 -5.390625 Z M 36.5625 -5.390625 "/></g></g></g><g fill="#ffffff" fill-opacity="1"><g transform="translate(156.610778, 214.165943)"><g><path d="M 131.78125 -18.921875 C 131.957031 -18.816406 132.09375 -18.640625 132.1875 -18.390625 C 132.289062 -18.140625 132.34375 -17.90625 132.34375 -17.6875 C 132.414062 -17.132812 132.109375 -16.75 131.421875 -16.53125 C 130.742188 -16.320312 129.878906 -16.1875 128.828125 -16.125 C 127.773438 -16.0625 126.722656 -16.03125 125.671875 -16.03125 C 124.347656 -16.03125 123.363281 -15.984375 122.71875 -15.890625 C 122.070312 -15.765625 121.691406 -15.46875 121.578125 -15 C 121.460938 -14.539062 121.457031 -13.757812 121.5625 -12.65625 C 121.613281 -12.0625 121.675781 -11.351562 121.75 -10.53125 C 122.445312 1.40625 123.894531 13.242188 126.09375 24.984375 C 126.144531 25.210938 126.207031 25.410156 126.28125 25.578125 C 126.375 26.003906 126.421875 26.441406 126.421875 26.890625 C 126.328125 27.671875 125.867188 28.222656 125.046875 28.546875 C 124.222656 28.867188 123.351562 28.851562 122.4375 28.5 C 121.53125 28.15625 120.9375 27.320312 120.65625 26 C 120.332031 24.226562 120.007812 22.46875 119.6875 20.71875 C 119.132812 18.289062 118.660156 15.84375 118.265625 13.375 C 116.835938 5.03125 115.828125 -3.347656 115.234375 -11.765625 C 115.179688 -13.085938 114.957031 -13.910156 114.5625 -14.234375 C 114.175781 -14.554688 113.300781 -14.628906 111.9375 -14.453125 C 108.738281 -14.179688 105.578125 -13.859375 102.453125 -13.484375 C 93.765625 -12.285156 85.050781 -11.320312 76.3125 -10.59375 C 76.257812 -10.59375 76.207031 -10.59375 76.15625 -10.59375 C 76.050781 -10.59375 75.9375 -10.59375 75.8125 -10.59375 C 72.914062 -10.644531 70.96875 -9.1875 69.96875 -6.21875 C 67 1.894531 63.429688 9.722656 59.265625 17.265625 C 54.585938 25.835938 48.90625 33.691406 42.21875 40.828125 C 37.550781 45.597656 32.234375 49.492188 26.265625 52.515625 C 20.296875 55.535156 14.148438 57.648438 7.828125 58.859375 C 1.515625 60.078125 -4.523438 60.398438 -10.296875 59.828125 C -16.066406 59.253906 -21.09375 57.765625 -25.375 55.359375 C -29.65625 52.960938 -32.757812 49.664062 -34.6875 45.46875 C -36.613281 41.28125 -36.863281 36.164062 -35.4375 30.125 C -34.007812 24.625 -31.398438 19.921875 -27.609375 16.015625 C -23.816406 12.109375 -19.363281 8.820312 -14.25 6.15625 C -9.144531 3.5 -3.847656 1.304688 1.640625 -0.421875 C 7.140625 -2.160156 12.335938 -3.628906 17.234375 -4.828125 C 24.421875 -6.648438 32.050781 -8.296875 40.125 -9.765625 C 48.207031 -11.242188 55.9375 -12.296875 63.3125 -12.921875 C 65.226562 -12.972656 66.515625 -13.9375 67.171875 -15.8125 C 67.617188 -17.0625 68.117188 -18.296875 68.671875 -19.515625 C 68.890625 -20.066406 69.097656 -20.578125 69.296875 -21.046875 C 70.347656 -23.597656 71.398438 -26.160156 72.453125 -28.734375 C 76.023438 -37.847656 79.867188 -47.035156 83.984375 -56.296875 C 88.109375 -65.566406 92.753906 -74.457031 97.921875 -82.96875 C 103.085938 -91.488281 109.019531 -99.207031 115.71875 -106.125 C 117.414062 -107.769531 119.203125 -109.351562 121.078125 -110.875 C 121.953125 -111.601562 123.175781 -112.160156 124.75 -112.546875 C 126.320312 -112.929688 127.65625 -112.863281 128.75 -112.34375 C 129.851562 -111.820312 130.15625 -110.507812 129.65625 -108.40625 C 128.5 -104.082031 127.507812 -99.691406 126.6875 -95.234375 C 125.863281 -90.785156 125.113281 -86.335938 124.4375 -81.890625 C 124.4375 -81.660156 124.414062 -81.4375 124.375 -81.21875 C 122.820312 -71.125 121.867188 -61.613281 121.515625 -52.6875 C 121.171875 -43.757812 121.023438 -34.210938 121.078125 -24.046875 C 121.078125 -22.953125 121.125 -21.851562 121.21875 -20.75 C 121.289062 -19.976562 121.679688 -19.566406 122.390625 -19.515625 C 123.609375 -19.441406 124.789062 -19.441406 125.9375 -19.515625 C 127.3125 -19.566406 128.6875 -19.566406 130.0625 -19.515625 C 130.664062 -19.441406 131.238281 -19.242188 131.78125 -18.921875 Z M 63.390625 -6.328125 C 63.835938 -7.523438 63.878906 -8.257812 63.515625 -8.53125 C 63.148438 -8.8125 62.367188 -8.863281 61.171875 -8.6875 C 55.328125 -7.9375 49.492188 -7.09375 43.671875 -6.15625 C 37.859375 -5.21875 32.09375 -4.066406 26.375 -2.703125 C 25.550781 -2.472656 24.703125 -2.269531 23.828125 -2.09375 C 19.054688 -0.945312 13.9375 0.40625 8.46875 1.96875 C 3 3.53125 -2.316406 5.519531 -7.484375 7.9375 C -12.660156 10.363281 -17.140625 13.382812 -20.921875 17 C -24.703125 20.625 -27.34375 25 -28.84375 30.125 C -30.363281 36.488281 -30 41.648438 -27.75 45.609375 C -25.507812 49.566406 -21.972656 52.40625 -17.140625 54.125 C -12.304688 55.851562 -6.851562 56.5 -0.78125 56.0625 C 5.28125 55.625 11.332031 54.179688 17.375 51.734375 C 23.425781 49.285156 28.847656 45.898438 33.640625 41.578125 C 40.328125 35.140625 46.007812 27.910156 50.6875 19.890625 C 53.207031 15.722656 55.484375 11.441406 57.515625 7.046875 C 59.554688 2.648438 61.515625 -1.804688 63.390625 -6.328125 Z M 120.171875 -93.5 C 120.171875 -93.625 120.195312 -93.785156 120.25 -93.984375 C 120.425781 -94.890625 120.660156 -96.132812 120.953125 -97.71875 C 121.253906 -99.300781 121.457031 -100.726562 121.5625 -102 C 121.738281 -103.101562 121.703125 -103.757812 121.453125 -103.96875 C 121.203125 -104.1875 120.613281 -103.742188 119.6875 -102.640625 C 119.132812 -101.992188 118.582031 -101.34375 118.03125 -100.6875 C 115.9375 -98.363281 113.90625 -95.96875 111.9375 -93.5 C 107.488281 -87.78125 103.335938 -81.335938 99.484375 -74.171875 C 95.640625 -67.003906 92.070312 -59.570312 88.78125 -51.875 C 85.488281 -44.1875 82.378906 -36.695312 79.453125 -29.40625 C 78.078125 -26.03125 76.726562 -22.785156 75.40625 -19.671875 C 74.257812 -16.972656 73.820312 -15.359375 74.09375 -14.828125 C 74.375 -14.304688 75.632812 -14.242188 77.875 -14.640625 C 78.195312 -14.640625 78.585938 -14.664062 79.046875 -14.71875 C 85.804688 -15.375 92.535156 -16.113281 99.234375 -16.9375 C 102.148438 -17.28125 105.054688 -17.613281 107.953125 -17.9375 C 108.554688 -18.039062 109.132812 -18.117188 109.6875 -18.171875 C 110.6875 -18.296875 111.707031 -18.40625 112.75 -18.5 C 113.40625 -18.550781 113.878906 -18.742188 114.171875 -19.078125 C 114.472656 -19.421875 114.625 -19.976562 114.625 -20.75 C 114.625 -21.226562 114.625 -21.738281 114.625 -22.28125 C 114.625 -22.5625 114.625 -22.835938 114.625 -23.109375 C 114.570312 -35.546875 114.863281 -47.226562 115.5 -58.15625 C 116.144531 -69.082031 117.703125 -80.863281 120.171875 -93.5 Z M 120.171875 -93.5 "/></g></g></g><g fill="#ffffff" fill-opacity="1"><g transform="translate(27.512915, 218.653043)"><g><path d="M 6.640625 11.8125 C 5.140625 12.050781 3.859375 11.679688 2.796875 10.703125 C 1.734375 9.734375 1.054688 8.332031 0.765625 6.5 C 0.421875 4.289062 0.398438 2.554688 0.703125 1.296875 L 1.96875 1.09375 C 1.613281 2.488281 1.59375 4.195312 1.90625 6.21875 C 2.144531 7.695312 2.675781 8.816406 3.5 9.578125 C 4.320312 10.347656 5.28125 10.644531 6.375 10.46875 C 7.070312 10.363281 7.617188 10.128906 8.015625 9.765625 C 8.410156 9.398438 8.742188 8.863281 9.015625 8.15625 C 9.296875 7.445312 9.550781 6.429688 9.78125 5.109375 C 10.125 3.160156 10.609375 1.773438 11.234375 0.953125 C 11.859375 0.128906 12.785156 -0.378906 14.015625 -0.578125 C 15.359375 -0.796875 16.539062 -0.441406 17.5625 0.484375 C 18.582031 1.410156 19.222656 2.707031 19.484375 4.375 C 19.753906 6.082031 19.6875 7.726562 19.28125 9.3125 L 18.125 9.03125 C 18.519531 7.4375 18.609375 5.953125 18.390625 4.578125 C 18.179688 3.242188 17.703125 2.226562 16.953125 1.53125 C 16.210938 0.832031 15.304688 0.570312 14.234375 0.75 C 13.566406 0.851562 13.039062 1.0625 12.65625 1.375 C 12.269531 1.6875 11.945312 2.144531 11.6875 2.75 C 11.4375 3.351562 11.175781 4.363281 10.90625 5.78125 C 10.632812 7.28125 10.328125 8.421875 9.984375 9.203125 C 9.640625 9.984375 9.203125 10.578125 8.671875 10.984375 C 8.140625 11.398438 7.460938 11.675781 6.640625 11.8125 Z M 6.640625 11.8125 "/></g></g></g><g fill="#ffffff" fill-opacity="1"><g transform="translate(30.402646, 235.777385)"><g><path d="M 3.296875 12.171875 L 0.671875 2.5 L 18.34375 -2.28125 L 20.96875 7.390625 L 19.84375 7.6875 L 17.5625 -0.75 L 10.859375 1.0625 L 13.015625 9.015625 L 11.890625 9.328125 L 9.734375 1.375 L 2.140625 3.421875 L 4.421875 11.859375 Z M 3.296875 12.171875 "/></g></g></g><g fill="#ffffff" fill-opacity="1"><g transform="translate(35.113819, 252.839359)"><g><path d="M 6.015625 14.734375 L 5.53125 13.546875 L 16.484375 -2.65625 L 16.453125 -2.734375 C 14.703125 -1.910156 13.367188 -1.3125 12.453125 -0.9375 L 1.453125 3.546875 L 0.984375 2.40625 L 17.9375 -4.515625 L 18.421875 -3.328125 L 7.46875 12.828125 L 7.5 12.90625 C 8.863281 12.257812 10.175781 11.679688 11.4375 11.171875 L 22.5 6.65625 L 22.96875 7.8125 Z M 6.015625 14.734375 "/></g></g></g><g fill="#ffffff" fill-opacity="1"><g transform="translate(43.75673, 272.83189)"><g><path d="M 1.203125 2.296875 L 17.40625 -6.234375 L 18.015625 -5.109375 L 1.8125 3.421875 Z M 1.203125 2.296875 "/></g></g></g><g fill="#ffffff" fill-opacity="1"><g transform="translate(48.179296, 281.58227)"><g><path d="M 17.609375 9.90625 C 15.179688 11.507812 12.859375 12.175781 10.640625 11.90625 C 8.429688 11.632812 6.625 10.429688 5.21875 8.296875 C 3.800781 6.171875 3.394531 4.035156 4 1.890625 C 4.601562 -0.253906 6.125 -2.132812 8.5625 -3.75 C 10.988281 -5.363281 13.304688 -6.019531 15.515625 -5.71875 C 17.722656 -5.425781 19.53125 -4.222656 20.9375 -2.109375 C 22.34375 0.015625 22.742188 2.144531 22.140625 4.28125 C 21.546875 6.414062 20.035156 8.289062 17.609375 9.90625 Z M 9.3125 -2.578125 C 7.125 -1.128906 5.757812 0.472656 5.21875 2.234375 C 4.675781 4.003906 5.007812 5.800781 6.21875 7.625 C 7.4375 9.46875 8.957031 10.476562 10.78125 10.65625 C 12.601562 10.84375 14.617188 10.207031 16.828125 8.75 C 19.023438 7.289062 20.390625 5.6875 20.921875 3.9375 C 21.453125 2.195312 21.113281 0.414062 19.90625 -1.40625 C 18.695312 -3.226562 17.171875 -4.238281 15.328125 -4.4375 C 13.492188 -4.644531 11.488281 -4.023438 9.3125 -2.578125 Z M 9.3125 -2.578125 "/></g></g></g><g fill="#ffffff" fill-opacity="1"><g transform="translate(61.327737, 300.706499)"><g><path d="M 8.578125 -2.3125 L 2.546875 2.921875 L 1.703125 1.953125 L 15.515625 -10.0625 L 18.375 -6.765625 C 19.863281 -5.054688 20.648438 -3.515625 20.734375 -2.140625 C 20.816406 -0.773438 20.222656 0.460938 18.953125 1.578125 C 18.015625 2.378906 17.015625 2.8125 15.953125 2.875 C 14.890625 2.945312 13.796875 2.597656 12.671875 1.828125 L 9.625 11.0625 L 8.625 9.90625 L 11.5625 1.125 Z M 9.390625 -3.03125 L 11.671875 -0.40625 C 12.691406 0.769531 13.742188 1.445312 14.828125 1.625 C 15.910156 1.8125 16.957031 1.46875 17.96875 0.59375 C 19.019531 -0.320312 19.507812 -1.300781 19.4375 -2.34375 C 19.363281 -3.394531 18.707031 -4.632812 17.46875 -6.0625 L 15.484375 -8.34375 Z M 9.390625 -3.03125 "/></g></g></g><g fill="#ffffff" fill-opacity="1"><g transform="translate(73.666992, 314.391599)"><g/></g></g><g fill="#ffffff" fill-opacity="1"><g transform="translate(80.728826, 321.27151)"><g><path d="M 8.03125 -3.765625 L 3.015625 2.4375 L 2.015625 1.625 L 13.53125 -12.609375 L 16.921875 -9.859375 C 18.691406 -8.429688 19.734375 -7.050781 20.046875 -5.71875 C 20.367188 -4.382812 20 -3.0625 18.9375 -1.75 C 18.164062 -0.789062 17.257812 -0.1875 16.21875 0.0625 C 15.1875 0.3125 14.046875 0.160156 12.796875 -0.390625 L 11.40625 9.21875 L 10.21875 8.265625 L 11.5625 -0.90625 Z M 8.71875 -4.625 L 11.421875 -2.4375 C 12.628906 -1.457031 13.78125 -0.96875 14.875 -0.96875 C 15.976562 -0.976562 16.953125 -1.507812 17.796875 -2.5625 C 18.671875 -3.644531 18.976562 -4.691406 18.71875 -5.703125 C 18.46875 -6.710938 17.613281 -7.8125 16.15625 -9 L 13.796875 -10.90625 Z M 8.71875 -4.625 "/></g></g></g><g fill="#ffffff" fill-opacity="1"><g transform="translate(95.3901, 332.840976)"><g><path d="M 10.625 6.78125 L 2.1875 1.390625 L 12.03125 -14.046875 L 20.46875 -8.65625 L 19.84375 -7.671875 L 12.484375 -12.375 L 8.75 -6.53125 L 15.6875 -2.09375 L 15.0625 -1.09375 L 8.125 -5.53125 L 3.890625 1.09375 L 11.25 5.796875 Z M 10.625 6.78125 "/></g></g></g><g fill="#ffffff" fill-opacity="1"><g transform="translate(110.307375, 342.170136)"><g><path d="M 13.09375 -0.796875 L 6.40625 -4.0625 L 1.28125 0.625 L 0 0 L 14.703125 -13.28125 L 15.453125 -12.921875 L 13.828125 6.765625 L 12.53125 6.140625 Z M 7.328125 -4.875 L 13.203125 -2 L 13.890625 -9.03125 C 13.929688 -9.59375 14.019531 -10.347656 14.15625 -11.296875 C 13.601562 -10.679688 13.054688 -10.140625 12.515625 -9.671875 Z M 7.328125 -4.875 "/></g></g></g><g fill="#ffffff" fill-opacity="1"><g transform="translate(127.297306, 350.212646)"><g><path d="M 2.4375 0.875 L 8.640625 -16.359375 L 9.84375 -15.921875 L 4.046875 0.1875 L 12.265625 3.15625 L 11.859375 4.28125 Z M 2.4375 0.875 "/></g></g></g><g fill="#ffffff" fill-opacity="1"><g transform="translate(142.699864, 355.491094)"><g/></g></g><g fill="#ffffff" fill-opacity="1"><g transform="translate(152.171368, 358.091656)"><g><path d="M 12.40625 2.28125 L 2.546875 0.46875 L 5.859375 -17.546875 L 15.71875 -15.734375 L 15.5 -14.578125 L 6.90625 -16.15625 L 5.65625 -9.328125 L 13.75 -7.84375 L 13.53125 -6.703125 L 5.4375 -8.1875 L 4.03125 -0.453125 L 12.625 1.125 Z M 12.40625 2.28125 "/></g></g></g><g fill="#ffffff" fill-opacity="1"><g transform="translate(169.461713, 361.074481)"><g><path d="M 13.015625 -3.765625 C 12.898438 -2.253906 12.25 -1.09375 11.0625 -0.28125 C 9.875 0.53125 8.359375 0.867188 6.515625 0.734375 C 4.273438 0.566406 2.578125 0.195312 1.421875 -0.375 L 1.515625 -1.65625 C 2.785156 -1 4.441406 -0.597656 6.484375 -0.453125 C 7.972656 -0.335938 9.1875 -0.59375 10.125 -1.21875 C 11.0625 -1.84375 11.570312 -2.710938 11.65625 -3.828125 C 11.707031 -4.523438 11.597656 -5.109375 11.328125 -5.578125 C 11.066406 -6.054688 10.625 -6.503906 10 -6.921875 C 9.382812 -7.347656 8.453125 -7.820312 7.203125 -8.34375 C 5.378906 -9.125 4.140625 -9.910156 3.484375 -10.703125 C 2.828125 -11.503906 2.546875 -12.53125 2.640625 -13.78125 C 2.734375 -15.132812 3.34375 -16.203125 4.46875 -16.984375 C 5.601562 -17.773438 7.015625 -18.109375 8.703125 -17.984375 C 10.421875 -17.859375 12.015625 -17.414062 13.484375 -16.65625 L 12.9375 -15.59375 C 11.457031 -16.332031 10.03125 -16.753906 8.65625 -16.859375 C 7.300781 -16.960938 6.195312 -16.726562 5.34375 -16.15625 C 4.5 -15.59375 4.039062 -14.773438 3.96875 -13.703125 C 3.914062 -13.023438 4 -12.460938 4.21875 -12.015625 C 4.4375 -11.566406 4.8125 -11.144531 5.34375 -10.75 C 5.875 -10.363281 6.800781 -9.878906 8.125 -9.296875 C 9.507812 -8.691406 10.539062 -8.132812 11.21875 -7.625 C 11.90625 -7.113281 12.390625 -6.550781 12.671875 -5.9375 C 12.960938 -5.320312 13.078125 -4.597656 13.015625 -3.765625 Z M 13.015625 -3.765625 "/></g></g></g><g fill="#ffffff" fill-opacity="1"><g transform="translate(186.774348, 362.157844)"><g><path d="M 7.359375 -0.234375 L 6.078125 -0.1875 L 5.53125 -17.28125 L -0.421875 -17.09375 L -0.46875 -18.296875 L 12.71875 -18.71875 L 12.765625 -17.515625 L 6.8125 -17.328125 Z M 7.359375 -0.234375 "/></g></g></g><g fill="#ffffff" fill-opacity="1"><g transform="translate(203.61824, 361.484378)"><g><path d="M 10.375 -8.015625 L 3 -6.96875 L 1.40625 -0.203125 L 0 0 L 4.671875 -19.25 L 5.5 -19.359375 L 15.234375 -2.1875 L 13.8125 -1.984375 Z M 3.3125 -8.15625 L 9.796875 -9.09375 L 6.40625 -15.28125 C 6.125 -15.757812 5.765625 -16.429688 5.328125 -17.296875 C 5.222656 -16.472656 5.082031 -15.722656 4.90625 -15.046875 Z M 3.3125 -8.15625 "/></g></g></g><g fill="#ffffff" fill-opacity="1"><g transform="translate(222.199215, 358.578751)"><g><path d="M 7.125 -1.84375 L 5.890625 -1.515625 L 1.609375 -18.078125 L -4.15625 -16.59375 L -4.453125 -17.765625 L 8.3125 -21.0625 L 8.609375 -19.890625 L 2.84375 -18.40625 Z M 7.125 -1.84375 "/></g></g></g><g fill="#ffffff" fill-opacity="1"><g transform="translate(238.440701, 354.225015)"><g><path d="M 11.8125 -4.421875 L 2.421875 -0.90625 L -4 -18.046875 L 5.390625 -21.5625 L 5.796875 -20.46875 L -2.390625 -17.40625 L 0.046875 -10.90625 L 7.765625 -13.796875 L 8.171875 -12.703125 L 0.453125 -9.8125 L 3.21875 -2.453125 L 11.40625 -5.515625 Z M 11.8125 -4.421875 "/></g></g></g><g fill="#ffffff" fill-opacity="1"><g transform="translate(254.539403, 347.883633)"><g/></g></g><g fill="#ffffff" fill-opacity="1"><g transform="translate(263.418361, 343.696524)"><g><path d="M 8.609375 -10.453125 C 9.378906 -9.140625 9.5 -7.8125 8.96875 -6.46875 C 8.445312 -5.132812 7.382812 -4 5.78125 -3.0625 C 3.84375 -1.9375 2.234375 -1.289062 0.953125 -1.125 L 0.3125 -2.234375 C 1.738281 -2.398438 3.332031 -3 5.09375 -4.03125 C 6.394531 -4.78125 7.253906 -5.675781 7.671875 -6.71875 C 8.097656 -7.757812 8.03125 -8.765625 7.46875 -9.734375 C 7.113281 -10.335938 6.695312 -10.757812 6.21875 -11 C 5.738281 -11.25 5.117188 -11.367188 4.359375 -11.359375 C 3.609375 -11.359375 2.5625 -11.222656 1.21875 -10.953125 C -0.71875 -10.578125 -2.179688 -10.53125 -3.171875 -10.8125 C -4.160156 -11.101562 -4.972656 -11.789062 -5.609375 -12.875 C -6.285156 -14.050781 -6.378906 -15.28125 -5.890625 -16.5625 C -5.398438 -17.84375 -4.425781 -18.90625 -2.96875 -19.75 C -1.46875 -20.625 0.0976562 -21.15625 1.734375 -21.34375 L 1.875 -20.15625 C 0.238281 -19.945312 -1.175781 -19.492188 -2.375 -18.796875 C -3.539062 -18.117188 -4.3125 -17.304688 -4.6875 -16.359375 C -5.070312 -15.421875 -4.992188 -14.484375 -4.453125 -13.546875 C -4.117188 -12.960938 -3.734375 -12.546875 -3.296875 -12.296875 C -2.859375 -12.046875 -2.304688 -11.910156 -1.640625 -11.890625 C -0.984375 -11.867188 0.0507812 -11.992188 1.46875 -12.265625 C 2.945312 -12.546875 4.113281 -12.664062 4.96875 -12.625 C 5.832031 -12.582031 6.550781 -12.390625 7.125 -12.046875 C 7.695312 -11.703125 8.191406 -11.171875 8.609375 -10.453125 Z M 8.609375 -10.453125 "/></g></g></g><g fill="#ffffff" fill-opacity="1"><g transform="translate(278.387199, 334.826515)"><g><path d="M 3.203125 -18.578125 C 4.253906 -17.160156 4.570312 -15.710938 4.15625 -14.234375 C 3.75 -12.765625 2.660156 -11.375 0.890625 -10.0625 L -1.390625 -8.375 L 3.109375 -2.296875 L 2.078125 -1.546875 L -8.8125 -16.28125 L -5.203125 -18.9375 C -1.691406 -21.53125 1.109375 -21.410156 3.203125 -18.578125 Z M -2.046875 -9.265625 L -0.015625 -10.765625 C 1.640625 -11.992188 2.632812 -13.15625 2.96875 -14.25 C 3.300781 -15.34375 3.015625 -16.5 2.109375 -17.71875 C 1.273438 -18.851562 0.304688 -19.4375 -0.796875 -19.46875 C -1.898438 -19.507812 -3.1875 -18.988281 -4.65625 -17.90625 L -7.09375 -16.09375 Z M -2.046875 -9.265625 "/></g></g></g><g fill="#ffffff" fill-opacity="1"><g transform="translate(293.081456, 323.702784)"><g><path d="M 9.25 -8.578125 L 1.90625 -1.765625 L -10.546875 -15.1875 L -3.203125 -22 L -2.40625 -21.140625 L -8.8125 -15.203125 L -4.09375 -10.125 L 1.9375 -15.71875 L 2.734375 -14.859375 L -3.296875 -9.265625 L 2.046875 -3.5 L 8.453125 -9.4375 Z M 9.25 -8.578125 "/></g></g></g><g fill="#ffffff" fill-opacity="1"><g transform="translate(305.894185, 311.617186)"><g><path d="M -6.46875 -19.25 C -7.957031 -17.507812 -8.570312 -15.65625 -8.3125 -13.6875 C -8.050781 -11.726562 -6.953125 -9.921875 -5.015625 -8.265625 C -3.035156 -6.554688 -1.09375 -5.703125 0.8125 -5.703125 C 2.71875 -5.703125 4.425781 -6.582031 5.9375 -8.34375 C 6.9375 -9.507812 7.703125 -10.710938 8.234375 -11.953125 L 9.09375 -11.21875 C 8.632812 -10.019531 7.816406 -8.734375 6.640625 -7.359375 C 4.960938 -5.410156 3.007812 -4.410156 0.78125 -4.359375 C -1.4375 -4.316406 -3.675781 -5.265625 -5.9375 -7.203125 C -7.351562 -8.421875 -8.367188 -9.757812 -8.984375 -11.21875 C -9.597656 -12.675781 -9.769531 -14.160156 -9.5 -15.671875 C -9.226562 -17.179688 -8.523438 -18.601562 -7.390625 -19.9375 C -6.222656 -21.289062 -4.921875 -22.289062 -3.484375 -22.9375 L -2.953125 -21.796875 C -4.335938 -21.210938 -5.507812 -20.363281 -6.46875 -19.25 Z M -6.46875 -19.25 "/></g></g></g><g fill="#ffffff" fill-opacity="1"><g transform="translate(318.075809, 296.866955)"><g><path d="M 1.5 -2.109375 L -13.40625 -12.75 L -12.65625 -13.796875 L 2.25 -3.15625 Z M 1.5 -2.109375 "/></g></g></g><g fill="#ffffff" fill-opacity="1"><g transform="translate(323.729027, 289.036893)"><g><path d="M 0.21875 -13.109375 L -3.5625 -6.703125 L 0.71875 -1.21875 L 0 0 L -12.109375 -15.671875 L -11.6875 -16.375 L 7.8125 -13.265625 L 7.078125 -12.015625 Z M -4.3125 -7.6875 L -0.984375 -13.328125 L -7.9375 -14.546875 C -8.488281 -14.617188 -9.238281 -14.765625 -10.1875 -14.984375 C -9.601562 -14.378906 -9.097656 -13.796875 -8.671875 -13.234375 Z M -4.3125 -7.6875 "/></g></g></g><g fill="#ffffff" fill-opacity="1"><g transform="translate(333.057253, 272.718041)"><g><path d="M 1.0625 -2.359375 L -15.640625 -9.875 L -15.109375 -11.046875 L 0.5 -4.03125 L 4.078125 -12 L 5.171875 -11.5 Z M 1.0625 -2.359375 "/></g></g></g><g fill="#ffffff" fill-opacity="1"><g transform="translate(339.502465, 257.772876)"><g><path d="M 0.875 -2.4375 L -16.375 -8.59375 L -15.953125 -9.8125 L 1.296875 -3.65625 Z M 0.875 -2.4375 "/></g></g></g><g fill="#ffffff" fill-opacity="1"><g transform="translate(342.755684, 248.727892)"><g><path d="M -1.296875 -13.5 C 0.171875 -13.101562 1.191406 -12.242188 1.765625 -10.921875 C 2.347656 -9.609375 2.398438 -8.054688 1.921875 -6.265625 C 1.347656 -4.097656 0.671875 -2.5 -0.109375 -1.46875 L -1.34375 -1.796875 C -0.457031 -2.929688 0.242188 -4.484375 0.765625 -6.453125 C 1.148438 -7.898438 1.117188 -9.140625 0.671875 -10.171875 C 0.234375 -11.210938 -0.519531 -11.878906 -1.59375 -12.171875 C -2.269531 -12.347656 -2.863281 -12.347656 -3.375 -12.171875 C -3.894531 -12.003906 -4.414062 -11.648438 -4.9375 -11.109375 C -5.46875 -10.578125 -6.113281 -9.75 -6.875 -8.625 C -7.976562 -6.988281 -8.976562 -5.921875 -9.875 -5.421875 C -10.78125 -4.921875 -11.835938 -4.832031 -13.046875 -5.15625 C -14.359375 -5.5 -15.296875 -6.300781 -15.859375 -7.5625 C -16.421875 -8.820312 -16.488281 -10.265625 -16.0625 -11.890625 C -15.613281 -13.566406 -14.878906 -15.050781 -13.859375 -16.34375 L -12.90625 -15.609375 C -13.914062 -14.304688 -14.597656 -12.984375 -14.953125 -11.640625 C -15.304688 -10.328125 -15.28125 -9.203125 -14.875 -8.265625 C -14.476562 -7.335938 -13.757812 -6.734375 -12.71875 -6.453125 C -12.0625 -6.273438 -11.492188 -6.25 -11.015625 -6.375 C -10.535156 -6.507812 -10.050781 -6.800781 -9.5625 -7.25 C -9.082031 -7.695312 -8.441406 -8.519531 -7.640625 -9.71875 C -6.773438 -10.957031 -6.023438 -11.863281 -5.390625 -12.4375 C -4.765625 -13.019531 -4.125 -13.394531 -3.46875 -13.5625 C -2.820312 -13.726562 -2.097656 -13.707031 -1.296875 -13.5 Z M -1.296875 -13.5 "/></g></g></g><g fill="#ffffff" fill-opacity="1"><g transform="translate(347.038155, 231.919279)"><g><path d="M 1.140625 -7.265625 L 0.9375 -6 L -15.96875 -8.640625 L -16.890625 -2.765625 L -18.078125 -2.953125 L -16.046875 -15.984375 L -14.859375 -15.796875 L -15.765625 -9.90625 Z M 1.140625 -7.265625 "/></g></g></g><g fill="#ffffff" fill-opacity="1"><g transform="translate(66.202266, 112.713042)"><g><path d="M 3.03125 -13.421875 C 4.375 -12.535156 5.097656 -11.351562 5.203125 -9.875 C 5.304688 -8.394531 4.804688 -6.820312 3.703125 -5.15625 C 2.503906 -3.332031 1.347656 -2.09375 0.234375 -1.4375 L -1.46875 -2.5625 C -0.789062 -3.019531 -0.132812 -3.566406 0.5 -4.203125 C 1.144531 -4.835938 1.710938 -5.519531 2.203125 -6.25 C 2.984375 -7.425781 3.34375 -8.460938 3.28125 -9.359375 C 3.226562 -10.253906 2.804688 -10.96875 2.015625 -11.5 C 1.484375 -11.851562 0.976562 -12.035156 0.5 -12.046875 C 0.0195312 -12.066406 -0.523438 -11.921875 -1.140625 -11.609375 C -1.765625 -11.296875 -2.59375 -10.75 -3.625 -9.96875 C -5.070312 -8.882812 -6.34375 -8.265625 -7.4375 -8.109375 C -8.539062 -7.953125 -9.65625 -8.242188 -10.78125 -8.984375 C -11.957031 -9.765625 -12.597656 -10.832031 -12.703125 -12.1875 C -12.816406 -13.539062 -12.394531 -14.941406 -11.4375 -16.390625 C -10.4375 -17.910156 -9.234375 -19.125 -7.828125 -20.03125 L -6.640625 -18.453125 C -8.003906 -17.535156 -9.082031 -16.476562 -9.875 -15.28125 C -10.488281 -14.34375 -10.769531 -13.476562 -10.71875 -12.6875 C -10.675781 -11.894531 -10.296875 -11.265625 -9.578125 -10.796875 C -9.046875 -10.441406 -8.546875 -10.25 -8.078125 -10.21875 C -7.609375 -10.1875 -7.078125 -10.304688 -6.484375 -10.578125 C -5.898438 -10.859375 -5.125 -11.363281 -4.15625 -12.09375 C -2.519531 -13.320312 -1.171875 -14.019531 -0.109375 -14.1875 C 0.941406 -14.363281 1.988281 -14.109375 3.03125 -13.421875 Z M 3.03125 -13.421875 "/></g></g></g><g fill="#ffffff" fill-opacity="1"><g transform="translate(77.681344, 95.920488)"><g><path d="M -2.421875 -24.421875 L 6.296875 -16.40625 C 7.835938 -14.988281 8.617188 -13.410156 8.640625 -11.671875 C 8.671875 -9.941406 7.9375 -8.265625 6.4375 -6.640625 C 4.957031 -5.023438 3.363281 -4.175781 1.65625 -4.09375 C -0.0390625 -4.019531 -1.664062 -4.695312 -3.21875 -6.125 L -11.90625 -14.109375 L -10.46875 -15.671875 L -1.671875 -7.578125 C -0.546875 -6.554688 0.597656 -6.070312 1.765625 -6.125 C 2.941406 -6.1875 4.078125 -6.816406 5.171875 -8.015625 C 6.210938 -9.148438 6.710938 -10.300781 6.671875 -11.46875 C 6.640625 -12.644531 6.054688 -13.753906 4.921875 -14.796875 L -3.859375 -22.859375 Z M -2.421875 -24.421875 "/></g></g></g><g fill="#ffffff" fill-opacity="1"><g transform="translate(95.010724, 78.041462)"><g><path d="M 10.703125 -8.421875 L 0.8125 -0.640625 L -0.21875 -1.953125 L -1.703125 -19.546875 L -9.109375 -13.71875 L -10.28125 -15.21875 L -0.84375 -22.640625 L 0.1875 -21.34375 L 1.65625 -3.765625 L 9.515625 -9.9375 Z M 10.703125 -8.421875 "/></g></g></g><g fill="#ffffff" fill-opacity="1"><g transform="translate(111.730803, 65.410631)"><g><path d="M 12.21875 -6.90625 L 7.375 -10.859375 L 0.984375 -7.25 L 1.875 -1.0625 L 0 0 L -2.75 -19.578125 L -1.1875 -20.453125 L 14.140625 -7.984375 Z M 5.859375 -12.1875 L 1.1875 -16.09375 C 0.601562 -16.582031 -0.0703125 -17.207031 -0.84375 -17.96875 C -0.613281 -17.175781 -0.414062 -16.28125 -0.25 -15.28125 L 0.6875 -9.265625 Z M 5.859375 -12.1875 "/></g></g></g><g fill="#ffffff" fill-opacity="1"><g transform="translate(131.428465, 54.725351)"><g><path d="M 15.828125 -5.703125 L 13.53125 -4.875 L -1.09375 -15.953125 L -1.1875 -15.921875 C -0.445312 -14.265625 0.175781 -12.726562 0.6875 -11.3125 L 4.21875 -1.515625 L 2.359375 -0.859375 L -3.859375 -18.09375 L -1.59375 -18.90625 L 13 -7.890625 L 13.109375 -7.921875 C 13.003906 -8.117188 12.71875 -8.785156 12.25 -9.921875 C 11.789062 -11.054688 11.476562 -11.867188 11.3125 -12.359375 L 7.734375 -22.265625 L 9.609375 -22.9375 Z M 15.828125 -5.703125 "/></g></g></g><g fill="#ffffff" fill-opacity="1"><g transform="translate(155.514288, 46.617286)"><g><path d="M 16.59375 -2.8125 L 14.1875 -2.40625 L 1.765625 -15.890625 L 1.65625 -15.875 C 2.09375 -14.125 2.4375 -12.503906 2.6875 -11.015625 L 4.421875 -0.75 L 2.484375 -0.421875 L -0.578125 -18.484375 L 1.796875 -18.890625 L 14.203125 -5.4375 L 14.3125 -5.453125 C 14.25 -5.679688 14.085938 -6.394531 13.828125 -7.59375 C 13.566406 -8.789062 13.398438 -9.644531 13.328125 -10.15625 L 11.5625 -20.53125 L 13.53125 -20.875 Z M 16.59375 -2.8125 "/></g></g></g><g fill="#ffffff" fill-opacity="1"><g transform="translate(180.818075, 43.053023)"><g><path d="M 12.734375 -0.078125 L 2.515625 -0.015625 L 2.40625 -18.328125 L 12.625 -18.390625 L 12.640625 -16.5 L 4.546875 -16.453125 L 4.578125 -10.546875 L 12.171875 -10.59375 L 12.1875 -8.71875 L 4.59375 -8.671875 L 4.625 -1.9375 L 12.71875 -1.984375 Z M 12.734375 -0.078125 "/></g></g></g><g fill="#ffffff" fill-opacity="1"><g transform="translate(201.685817, 43.553162)"><g/></g></g><g fill="#ffffff" fill-opacity="1"><g transform="translate(214.818226, 45.17063)"><g><path d="M 13.625 3.34375 L 12.796875 -2.859375 L 5.671875 -4.609375 L 2.09375 0.515625 L 0 0 L 11.40625 -16.140625 L 13.140625 -15.703125 L 15.765625 3.875 Z M 12.625 -4.875 L 11.890625 -10.890625 C 11.796875 -11.660156 11.734375 -12.582031 11.703125 -13.65625 C 11.335938 -12.9375 10.875 -12.144531 10.3125 -11.28125 L 6.84375 -6.28125 Z M 12.625 -4.875 "/></g></g></g><g fill="#ffffff" fill-opacity="1"><g transform="translate(236.496497, 50.914939)"><g><path d="M 22.25 -10.34375 L 17.578125 0.53125 C 16.742188 2.445312 15.507812 3.703125 13.875 4.296875 C 12.25 4.898438 10.425781 4.765625 8.40625 3.890625 C 6.382812 3.023438 5.054688 1.800781 4.421875 0.21875 C 3.785156 -1.363281 3.882812 -3.125 4.71875 -5.0625 L 9.375 -15.890625 L 11.328125 -15.046875 L 6.609375 -4.078125 C 6.003906 -2.679688 5.925781 -1.441406 6.375 -0.359375 C 6.820312 0.722656 7.785156 1.585938 9.265625 2.234375 C 10.691406 2.847656 11.945312 2.941406 13.03125 2.515625 C 14.125 2.085938 14.976562 1.164062 15.59375 -0.25 L 20.296875 -11.1875 Z M 22.25 -10.34375 "/></g></g></g><g fill="#ffffff" fill-opacity="1"><g transform="translate(259.105168, 61.389071)"><g><path d="M 13.46875 2.78125 C 12.601562 4.132812 11.429688 4.878906 9.953125 5.015625 C 8.484375 5.148438 6.90625 4.6875 5.21875 3.625 C 3.375 2.457031 2.113281 1.320312 1.4375 0.21875 L 2.546875 -1.515625 C 3.003906 -0.847656 3.554688 -0.203125 4.203125 0.421875 C 4.847656 1.054688 5.539062 1.609375 6.28125 2.078125 C 7.476562 2.835938 8.523438 3.179688 9.421875 3.109375 C 10.316406 3.035156 11.019531 2.597656 11.53125 1.796875 C 11.875 1.253906 12.046875 0.742188 12.046875 0.265625 C 12.054688 -0.210938 11.898438 -0.757812 11.578125 -1.375 C 11.253906 -1.988281 10.691406 -2.800781 9.890625 -3.8125 C 8.785156 -5.238281 8.144531 -6.5 7.96875 -7.59375 C 7.789062 -8.6875 8.066406 -9.800781 8.796875 -10.9375 C 9.546875 -12.132812 10.59375 -12.800781 11.9375 -12.9375 C 13.289062 -13.070312 14.703125 -12.675781 16.171875 -11.75 C 17.703125 -10.769531 18.941406 -9.585938 19.890625 -8.203125 L 18.3125 -6.984375 C 17.382812 -8.335938 16.316406 -9.394531 15.109375 -10.15625 C 14.160156 -10.757812 13.285156 -11.023438 12.484375 -10.953125 C 11.691406 -10.878906 11.066406 -10.484375 10.609375 -9.765625 C 10.265625 -9.234375 10.082031 -8.734375 10.0625 -8.265625 C 10.039062 -7.796875 10.175781 -7.269531 10.46875 -6.6875 C 10.757812 -6.101562 11.273438 -5.335938 12.015625 -4.390625 C 13.273438 -2.765625 14 -1.425781 14.1875 -0.375 C 14.375 0.664062 14.132812 1.71875 13.46875 2.78125 Z M 13.46875 2.78125 "/></g></g></g><g fill="#ffffff" fill-opacity="1"><g transform="translate(276.13835, 72.735251)"><g><path d="M 6.1875 5.3125 L 4.578125 3.9375 L 15.28125 -8.515625 L 10.875 -12.3125 L 12.109375 -13.75 L 22.515625 -4.796875 L 21.28125 -3.359375 L 16.890625 -7.140625 Z M 6.1875 5.3125 "/></g></g></g><g fill="#ffffff" fill-opacity="1"><g transform="translate(291.497731, 86.743045)"><g><path d="M 1.703125 1.859375 L 15.234375 -10.484375 L 16.65625 -8.921875 L 3.125 3.421875 Z M 1.703125 1.859375 "/></g></g></g><g fill="#ffffff" fill-opacity="1"><g transform="translate(300.658634, 96.819043)"><g><path d="M 9.515625 13.875 L 8.140625 11.859375 L 15.15625 -5.078125 L 15.09375 -5.171875 C 13.6875 -4.035156 12.359375 -3.039062 11.109375 -2.1875 L 2.53125 3.703125 L 1.421875 2.078125 L 16.515625 -8.28125 L 17.875 -6.296875 L 10.90625 10.59375 L 10.96875 10.671875 C 11.144531 10.535156 11.71875 10.097656 12.6875 9.359375 C 13.664062 8.617188 14.375 8.101562 14.8125 7.8125 L 23.484375 1.859375 L 24.609375 3.515625 Z M 9.515625 13.875 "/></g></g></g></svg>