<svg xmlns="http://www.w3.org/2000/svg" xmlns:xlink="http://www.w3.org/1999/xlink" width="500" zoomAndPan="magnify" viewBox="0 0 375 374.999991" height="500" preserveAspectRatio="xMidYMid meet" version="1.0"><defs><g/><clipPath id="b2b8311cce"><path d="M 9.691406 9.691406 L 369.921875 9.691406 L 369.921875 369.921875 L 9.691406 369.921875 Z M 9.691406 9.691406 " clip-rule="nonzero"/></clipPath><clipPath id="02d02efcde"><path d="M 189.808594 9.691406 C 90.332031 9.691406 9.691406 90.332031 9.691406 189.808594 C 9.691406 289.28125 90.332031 369.921875 189.808594 369.921875 C 289.28125 369.921875 369.921875 289.28125 369.921875 189.808594 C 369.921875 90.332031 289.28125 9.691406 189.808594 9.691406 Z M 189.808594 9.691406 " clip-rule="nonzero"/></clipPath><clipPath id="08a9a97ad8"><path d="M 25.691406 176.363281 L 49.761719 176.363281 L 49.761719 200.4375 L 25.691406 200.4375 Z M 25.691406 176.363281 " clip-rule="nonzero"/></clipPath><clipPath id="391373fcac"><path d="M 37.726562 176.363281 L 41.554688 184.570312 L 49.761719 188.402344 L 41.554688 192.230469 L 37.726562 200.4375 L 33.894531 192.230469 L 25.691406 188.402344 L 33.894531 184.570312 Z M 37.726562 176.363281 " clip-rule="nonzero"/></clipPath><clipPath id="fb3250c943"><path d="M 330.003906 176.363281 L 354.078125 176.363281 L 354.078125 200.4375 L 330.003906 200.4375 Z M 330.003906 176.363281 " clip-rule="nonzero"/></clipPath><clipPath id="b3788dfd08"><path d="M 342.042969 176.363281 L 345.871094 184.570312 L 354.078125 188.402344 L 345.871094 192.230469 L 342.042969 200.4375 L 338.210938 192.230469 L 330.003906 188.402344 L 338.210938 184.570312 Z M 342.042969 176.363281 " clip-rule="nonzero"/></clipPath></defs><g clip-path="url(#b2b8311cce)"><g clip-path="url(#02d02efcde)"><path fill="#e96840" d="M 9.691406 9.691406 L 369.921875 9.691406 L 369.921875 369.921875 L 9.691406 369.921875 Z M 9.691406 9.691406 " fill-opacity="1" fill-rule="nonzero"/></g></g><g clip-path="url(#08a9a97ad8)"><g clip-path="url(#391373fcac)"><path fill="#ffd8d7" d="M 25.691406 176.363281 L 49.761719 176.363281 L 49.761719 200.4375 L 25.691406 200.4375 Z M 25.691406 176.363281 " fill-opacity="1" fill-rule="nonzero"/></g></g><g clip-path="url(#fb3250c943)"><g clip-path="url(#b3788dfd08)"><path fill="#ffd8d7" d="M 330.003906 176.363281 L 354.078125 176.363281 L 354.078125 200.4375 L 330.003906 200.4375 Z M 330.003906 176.363281 " fill-opacity="1" fill-rule="nonzero"/></g></g><g fill="#ffffff" fill-opacity="1"><g transform="translate(120.589754, 214.165943)"><g><path d="M 34.84375 23.03125 C 36.113281 23.082031 37.378906 23.039062 38.640625 22.90625 C 39.898438 22.769531 41.101562 22.453125 42.25 21.953125 C 45.726562 20.304688 46.914062 17.695312 45.8125 14.125 C 45.21875 12.300781 44.28125 10.628906 43 9.109375 C 41.53125 7.234375 39.914062 5.492188 38.15625 3.890625 C 36.394531 2.296875 34.578125 0.757812 32.703125 -0.71875 C 31.648438 -1.488281 30.664062 -1.460938 29.75 -0.640625 C 26.875 1.503906 24.285156 3.90625 21.984375 6.5625 C 20.984375 7.757812 20.132812 9.066406 19.4375 10.484375 C 17.9375 14.003906 18.675781 16.976562 21.65625 19.40625 C 23.070312 20.5 24.644531 21.296875 26.375 21.796875 C 29.125 22.617188 31.945312 23.03125 34.84375 23.03125 Z M 36.5625 -5.390625 C 36.6875 -4.921875 36.894531 -4.53125 37.1875 -4.21875 C 37.488281 -3.90625 37.804688 -3.648438 38.140625 -3.453125 C 38.359375 -3.273438 38.582031 -3.097656 38.8125 -2.921875 C 39.6875 -2.171875 40.5625 -1.382812 41.4375 -0.5625 C 43.082031 0.882812 44.675781 2.320312 46.21875 3.75 C 48.46875 5.820312 50.28125 8.226562 51.65625 10.96875 C 53.03125 13.71875 53.382812 16.382812 52.71875 18.96875 C 52.0625 21.550781 50.035156 23.617188 46.640625 25.171875 C 45.210938 25.816406 43.703125 26.253906 42.109375 26.484375 C 39.035156 26.859375 35.941406 27.007812 32.828125 26.9375 C 29.722656 26.863281 26.660156 26.410156 23.640625 25.578125 C 22.160156 25.179688 20.734375 24.65625 19.359375 24 C 17.992188 23.351562 16.757812 22.507812 15.65625 21.46875 C 11.738281 17.894531 10.914062 13.710938 13.1875 8.921875 C 14.113281 7.066406 15.285156 5.367188 16.703125 3.828125 C 19.023438 1.398438 21.5 -0.847656 24.125 -2.921875 C 25.445312 -3.972656 26.09375 -4.734375 26.0625 -5.203125 C 26.039062 -5.679688 25.28125 -6.359375 23.78125 -7.234375 C 21.113281 -9.023438 18.40625 -10.8125 15.65625 -12.59375 C 14.207031 -13.507812 12.769531 -14.441406 11.34375 -15.390625 C 10.476562 -15.992188 9.609375 -16.570312 8.734375 -17.125 C 6.535156 -18.5 4.359375 -19.945312 2.203125 -21.46875 C -0.210938 -23.1875 -2.472656 -25.054688 -4.578125 -27.078125 C -6.691406 -29.109375 -8.550781 -31.394531 -10.15625 -33.9375 C -13.445312 -39.257812 -14.664062 -44.691406 -13.8125 -50.234375 C -12.96875 -55.773438 -10.550781 -61.117188 -6.5625 -66.265625 C -2.582031 -71.410156 2.425781 -76.039062 8.46875 -80.15625 C 14.507812 -84.28125 21.0625 -87.613281 28.125 -90.15625 C 35.195312 -92.707031 42.234375 -94.175781 49.234375 -94.5625 C 56.242188 -94.957031 62.679688 -93.972656 68.546875 -91.609375 C 74.421875 -89.242188 79.253906 -85.179688 83.046875 -79.421875 C 83.722656 -78.367188 84.289062 -77.253906 84.75 -76.078125 C 85.21875 -74.910156 85.453125 -73.660156 85.453125 -72.328125 C 85.453125 -71.003906 84.851562 -70.179688 83.65625 -69.859375 C 82.820312 -69.640625 82.0625 -69.65625 81.375 -69.90625 C 80.695312 -70.15625 80.179688 -70.550781 79.828125 -71.09375 C 79.773438 -71.25 79.722656 -71.4375 79.671875 -71.65625 C 79.628906 -71.78125 79.609375 -71.894531 79.609375 -72 C 77.078125 -78.96875 73.335938 -83.9375 68.390625 -86.90625 C 63.453125 -89.875 57.859375 -91.265625 51.609375 -91.078125 C 45.367188 -90.890625 38.992188 -89.53125 32.484375 -87 C 25.984375 -84.46875 19.875 -81.238281 14.15625 -77.3125 C 8.4375 -73.394531 3.644531 -69.179688 -0.21875 -64.671875 C -4.09375 -60.160156 -6.492188 -55.785156 -7.421875 -51.546875 C -8.367188 -46.273438 -7.46875 -41.390625 -4.71875 -36.890625 C -2.519531 -33.097656 0.285156 -29.851562 3.703125 -27.15625 C 6.328125 -25.082031 9.015625 -23.109375 11.765625 -21.234375 C 14.234375 -19.640625 16.679688 -18.066406 19.109375 -16.515625 C 22.453125 -14.390625 25.75 -12.234375 29 -10.046875 C 29.914062 -9.367188 30.773438 -9.0625 31.578125 -9.125 C 32.378906 -9.1875 33.21875 -9.515625 34.09375 -10.109375 C 38.4375 -12.734375 42.722656 -15.144531 46.953125 -17.34375 C 51.191406 -19.539062 53.539062 -20.144531 54 -19.15625 C 54.457031 -18.175781 53.789062 -17.023438 52 -15.703125 C 47.75 -13.453125 43.675781 -10.925781 39.78125 -8.125 C 39.5625 -8.03125 39.347656 -7.894531 39.140625 -7.71875 C 38.097656 -7.164062 37.238281 -6.390625 36.5625 -5.390625 Z M 36.5625 -5.390625 "/></g></g></g><g fill="#ffffff" fill-opacity="1"><g transform="translate(173.007385, 214.165943)"><g><path d="M 104.40625 -16.296875 C 103.800781 -15.523438 103.140625 -14.773438 102.421875 -14.046875 C 102.046875 -13.617188 101.632812 -13.179688 101.1875 -12.734375 C 94.664062 -5.316406 87.796875 1.757812 80.578125 8.5 C 74.054688 14.664062 67.050781 20.195312 59.5625 25.09375 C 55.613281 27.613281 51.507812 29.734375 47.25 31.453125 C 43 33.179688 38.5625 34.4375 33.9375 35.21875 C 29.320312 35.988281 24.710938 36.125 20.109375 35.625 C 13.296875 34.695312 8.046875 32.40625 4.359375 28.75 C 0.679688 25.09375 -1.785156 20.570312 -3.046875 15.1875 C -4.304688 9.8125 -4.691406 4.085938 -4.203125 -1.984375 C -3.722656 -8.054688 -2.707031 -13.953125 -1.15625 -19.671875 C 0.382812 -25.390625 2.117188 -30.421875 4.046875 -34.765625 C 7.941406 -43.648438 12.554688 -52.078125 17.890625 -60.046875 C 23.222656 -68.015625 29.347656 -75.457031 36.265625 -82.375 C 37.234375 -83.375 37.632812 -84.019531 37.46875 -84.3125 C 37.3125 -84.613281 36.769531 -84.878906 35.84375 -85.109375 C 35.394531 -85.160156 34.921875 -85.273438 34.421875 -85.453125 C 32.128906 -86.148438 29.882812 -86.882812 27.6875 -87.65625 C 23.9375 -88.925781 20.207031 -90.109375 16.5 -91.203125 C 12.789062 -92.304688 9.050781 -93.207031 5.28125 -93.90625 C 1.90625 -94.507812 -1.453125 -94.675781 -4.796875 -94.40625 C -7.210938 -94.300781 -9.457031 -93.613281 -11.53125 -92.34375 C -12.957031 -91.519531 -14.171875 -90.53125 -15.171875 -89.375 C -16.171875 -88.226562 -16.742188 -86.742188 -16.890625 -84.921875 C -17.066406 -83.222656 -18.253906 -82.570312 -20.453125 -82.96875 C -21.878906 -83.175781 -22.59375 -84.050781 -22.59375 -85.59375 C -22.59375 -86.695312 -22.375 -87.703125 -21.9375 -88.609375 C -21.5 -89.523438 -20.914062 -90.394531 -20.1875 -91.21875 C -17.5625 -94.34375 -14.21875 -96.335938 -10.15625 -97.203125 C -5.15625 -98.304688 -0.0976562 -98.507812 5.015625 -97.8125 C 8.765625 -97.257812 12.4375 -96.484375 16.03125 -95.484375 C 19.625 -94.484375 23.207031 -93.410156 26.78125 -92.265625 C 27.101562 -92.160156 27.40625 -92.085938 27.6875 -92.046875 C 28.78125 -91.640625 29.878906 -91.273438 30.984375 -90.953125 C 33.722656 -90.179688 36.421875 -89.304688 39.078125 -88.328125 C 40.097656 -87.929688 41.019531 -87.832031 41.84375 -88.03125 C 42.664062 -88.226562 43.488281 -88.65625 44.3125 -89.3125 C 47.6875 -92.050781 51.320312 -94.359375 55.21875 -96.234375 C 60.207031 -98.804688 65.539062 -100.289062 71.21875 -100.6875 C 72.957031 -100.84375 74.695312 -100.796875 76.4375 -100.546875 C 78.175781 -100.296875 79.832031 -99.796875 81.40625 -99.046875 C 84 -97.722656 85.5 -95.945312 85.90625 -93.71875 C 86.320312 -91.5 85.570312 -89.316406 83.65625 -87.171875 C 81.875 -85.296875 79.75 -83.921875 77.28125 -83.046875 C 74.332031 -81.828125 71.257812 -81.117188 68.0625 -80.921875 C 64.863281 -80.691406 61.671875 -80.613281 58.484375 -80.6875 C 55.304688 -80.757812 52.15625 -81.109375 49.03125 -81.734375 C 48.8125 -81.785156 48.585938 -81.835938 48.359375 -81.890625 C 47.210938 -82.160156 46.171875 -82.28125 45.234375 -82.25 C 44.296875 -82.226562 43.34375 -81.742188 42.375 -80.796875 C 34.125 -72.679688 26.910156 -63.578125 20.734375 -53.484375 C 14.554688 -43.398438 9.617188 -32.898438 5.921875 -21.984375 C 4.546875 -18.140625 3.457031 -13.863281 2.65625 -9.15625 C 1.863281 -4.445312 1.578125 0.265625 1.796875 4.984375 C 2.023438 9.703125 3.03125 14.109375 4.8125 18.203125 C 6.59375 22.296875 9.410156 25.71875 13.265625 28.46875 C 16.503906 30.664062 20.070312 31.835938 23.96875 31.984375 C 29.789062 32.109375 35.425781 31.1875 40.875 29.21875 C 46.738281 27.019531 52.234375 24.132812 57.359375 20.5625 C 61.847656 17.46875 66.128906 14.148438 70.203125 10.609375 C 74.273438 7.078125 78.28125 3.414062 82.21875 -0.375 C 83.71875 -1.75 86.238281 -4.082031 89.78125 -7.375 C 93.332031 -10.675781 96.582031 -13.585938 99.53125 -16.109375 C 100.03125 -16.554688 100.503906 -17.003906 100.953125 -17.453125 C 101.878906 -18.273438 102.695312 -18.929688 103.40625 -19.421875 C 104.125 -19.910156 104.816406 -20.101562 105.484375 -20 C 106.734375 -19.875 106.375 -18.640625 104.40625 -16.296875 Z M 70.953125 -96.875 C 66.828125 -96.269531 62.953125 -95.035156 59.328125 -93.171875 C 55.710938 -91.316406 52.171875 -89.015625 48.703125 -86.265625 C 51.773438 -85.222656 55.015625 -84.5625 58.421875 -84.28125 C 61.828125 -84.007812 64.953125 -84.085938 67.796875 -84.515625 C 70.347656 -84.910156 72.773438 -85.679688 75.078125 -86.828125 C 76.546875 -87.554688 77.78125 -88.546875 78.78125 -89.796875 C 79.601562 -91.066406 79.863281 -92.273438 79.5625 -93.421875 C 79.257812 -94.578125 78.425781 -95.453125 77.0625 -96.046875 C 75.082031 -96.867188 73.046875 -97.144531 70.953125 -96.875 Z M 70.953125 -96.875 "/></g></g></g><g fill="#ffffff" fill-opacity="1"><g transform="translate(27.512915, 218.653043)"><g><path d="M 6.640625 11.8125 C 5.140625 12.050781 3.859375 11.679688 2.796875 10.703125 C 1.734375 9.734375 1.054688 8.332031 0.765625 6.5 C 0.421875 4.289062 0.398438 2.554688 0.703125 1.296875 L 1.96875 1.09375 C 1.613281 2.488281 1.59375 4.195312 1.90625 6.21875 C 2.144531 7.695312 2.675781 8.816406 3.5 9.578125 C 4.320312 10.347656 5.28125 10.644531 6.375 10.46875 C 7.070312 10.363281 7.617188 10.128906 8.015625 9.765625 C 8.410156 9.398438 8.742188 8.863281 9.015625 8.15625 C 9.296875 7.445312 9.550781 6.429688 9.78125 5.109375 C 10.125 3.160156 10.609375 1.773438 11.234375 0.953125 C 11.859375 0.128906 12.785156 -0.378906 14.015625 -0.578125 C 15.359375 -0.796875 16.539062 -0.441406 17.5625 0.484375 C 18.582031 1.410156 19.222656 2.707031 19.484375 4.375 C 19.753906 6.082031 19.6875 7.726562 19.28125 9.3125 L 18.125 9.03125 C 18.519531 7.4375 18.609375 5.953125 18.390625 4.578125 C 18.179688 3.242188 17.703125 2.226562 16.953125 1.53125 C 16.210938 0.832031 15.304688 0.570312 14.234375 0.75 C 13.566406 0.851562 13.039062 1.0625 12.65625 1.375 C 12.269531 1.6875 11.945312 2.144531 11.6875 2.75 C 11.4375 3.351562 11.175781 4.363281 10.90625 5.78125 C 10.632812 7.28125 10.328125 8.421875 9.984375 9.203125 C 9.640625 9.984375 9.203125 10.578125 8.671875 10.984375 C 8.140625 11.398438 7.460938 11.675781 6.640625 11.8125 Z M 6.640625 11.8125 "/></g></g></g><g fill="#ffffff" fill-opacity="1"><g transform="translate(30.402646, 235.777385)"><g><path d="M 3.296875 12.171875 L 0.671875 2.5 L 18.34375 -2.28125 L 20.96875 7.390625 L 19.84375 7.6875 L 17.5625 -0.75 L 10.859375 1.0625 L 13.015625 9.015625 L 11.890625 9.328125 L 9.734375 1.375 L 2.140625 3.421875 L 4.421875 11.859375 Z M 3.296875 12.171875 "/></g></g></g><g fill="#ffffff" fill-opacity="1"><g transform="translate(35.113819, 252.839359)"><g><path d="M 6.015625 14.734375 L 5.53125 13.546875 L 16.484375 -2.65625 L 16.453125 -2.734375 C 14.703125 -1.910156 13.367188 -1.3125 12.453125 -0.9375 L 1.453125 3.546875 L 0.984375 2.40625 L 17.9375 -4.515625 L 18.421875 -3.328125 L 7.46875 12.828125 L 7.5 12.90625 C 8.863281 12.257812 10.175781 11.679688 11.4375 11.171875 L 22.5 6.65625 L 22.96875 7.8125 Z M 6.015625 14.734375 "/></g></g></g><g fill="#ffffff" fill-opacity="1"><g transform="translate(43.75673, 272.83189)"><g><path d="M 1.203125 2.296875 L 17.40625 -6.234375 L 18.015625 -5.109375 L 1.8125 3.421875 Z M 1.203125 2.296875 "/></g></g></g><g fill="#ffffff" fill-opacity="1"><g transform="translate(48.179296, 281.58227)"><g><path d="M 17.609375 9.90625 C 15.179688 11.507812 12.859375 12.175781 10.640625 11.90625 C 8.429688 11.632812 6.625 10.429688 5.21875 8.296875 C 3.800781 6.171875 3.394531 4.035156 4 1.890625 C 4.601562 -0.253906 6.125 -2.132812 8.5625 -3.75 C 10.988281 -5.363281 13.304688 -6.019531 15.515625 -5.71875 C 17.722656 -5.425781 19.53125 -4.222656 20.9375 -2.109375 C 22.34375 0.015625 22.742188 2.144531 22.140625 4.28125 C 21.546875 6.414062 20.035156 8.289062 17.609375 9.90625 Z M 9.3125 -2.578125 C 7.125 -1.128906 5.757812 0.472656 5.21875 2.234375 C 4.675781 4.003906 5.007812 5.800781 6.21875 7.625 C 7.4375 9.46875 8.957031 10.476562 10.78125 10.65625 C 12.601562 10.84375 14.617188 10.207031 16.828125 8.75 C 19.023438 7.289062 20.390625 5.6875 20.921875 3.9375 C 21.453125 2.195312 21.113281 0.414062 19.90625 -1.40625 C 18.695312 -3.226562 17.171875 -4.238281 15.328125 -4.4375 C 13.492188 -4.644531 11.488281 -4.023438 9.3125 -2.578125 Z M 9.3125 -2.578125 "/></g></g></g><g fill="#ffffff" fill-opacity="1"><g transform="translate(61.327737, 300.706499)"><g><path d="M 8.578125 -2.3125 L 2.546875 2.921875 L 1.703125 1.953125 L 15.515625 -10.0625 L 18.375 -6.765625 C 19.863281 -5.054688 20.648438 -3.515625 20.734375 -2.140625 C 20.816406 -0.773438 20.222656 0.460938 18.953125 1.578125 C 18.015625 2.378906 17.015625 2.8125 15.953125 2.875 C 14.890625 2.945312 13.796875 2.597656 12.671875 1.828125 L 9.625 11.0625 L 8.625 9.90625 L 11.5625 1.125 Z M 9.390625 -3.03125 L 11.671875 -0.40625 C 12.691406 0.769531 13.742188 1.445312 14.828125 1.625 C 15.910156 1.8125 16.957031 1.46875 17.96875 0.59375 C 19.019531 -0.320312 19.507812 -1.300781 19.4375 -2.34375 C 19.363281 -3.394531 18.707031 -4.632812 17.46875 -6.0625 L 15.484375 -8.34375 Z M 9.390625 -3.03125 "/></g></g></g><g fill="#ffffff" fill-opacity="1"><g transform="translate(73.666992, 314.391599)"><g/></g></g><g fill="#ffffff" fill-opacity="1"><g transform="translate(80.728826, 321.27151)"><g><path d="M 8.03125 -3.765625 L 3.015625 2.4375 L 2.015625 1.625 L 13.53125 -12.609375 L 16.921875 -9.859375 C 18.691406 -8.429688 19.734375 -7.050781 20.046875 -5.71875 C 20.367188 -4.382812 20 -3.0625 18.9375 -1.75 C 18.164062 -0.789062 17.257812 -0.1875 16.21875 0.0625 C 15.1875 0.3125 14.046875 0.160156 12.796875 -0.390625 L 11.40625 9.21875 L 10.21875 8.265625 L 11.5625 -0.90625 Z M 8.71875 -4.625 L 11.421875 -2.4375 C 12.628906 -1.457031 13.78125 -0.96875 14.875 -0.96875 C 15.976562 -0.976562 16.953125 -1.507812 17.796875 -2.5625 C 18.671875 -3.644531 18.976562 -4.691406 18.71875 -5.703125 C 18.46875 -6.710938 17.613281 -7.8125 16.15625 -9 L 13.796875 -10.90625 Z M 8.71875 -4.625 "/></g></g></g><g fill="#ffffff" fill-opacity="1"><g transform="translate(95.3901, 332.840976)"><g><path d="M 10.625 6.78125 L 2.1875 1.390625 L 12.03125 -14.046875 L 20.46875 -8.65625 L 19.84375 -7.671875 L 12.484375 -12.375 L 8.75 -6.53125 L 15.6875 -2.09375 L 15.0625 -1.09375 L 8.125 -5.53125 L 3.890625 1.09375 L 11.25 5.796875 Z M 10.625 6.78125 "/></g></g></g><g fill="#ffffff" fill-opacity="1"><g transform="translate(110.307375, 342.170136)"><g><path d="M 13.09375 -0.796875 L 6.40625 -4.0625 L 1.28125 0.625 L 0 0 L 14.703125 -13.28125 L 15.453125 -12.921875 L 13.828125 6.765625 L 12.53125 6.140625 Z M 7.328125 -4.875 L 13.203125 -2 L 13.890625 -9.03125 C 13.929688 -9.59375 14.019531 -10.347656 14.15625 -11.296875 C 13.601562 -10.679688 13.054688 -10.140625 12.515625 -9.671875 Z M 7.328125 -4.875 "/></g></g></g><g fill="#ffffff" fill-opacity="1"><g transform="translate(127.297306, 350.212646)"><g><path d="M 2.4375 0.875 L 8.640625 -16.359375 L 9.84375 -15.921875 L 4.046875 0.1875 L 12.265625 3.15625 L 11.859375 4.28125 Z M 2.4375 0.875 "/></g></g></g><g fill="#ffffff" fill-opacity="1"><g transform="translate(142.699864, 355.491094)"><g/></g></g><g fill="#ffffff" fill-opacity="1"><g transform="translate(152.171368, 358.091656)"><g><path d="M 12.40625 2.28125 L 2.546875 0.46875 L 5.859375 -17.546875 L 15.71875 -15.734375 L 15.5 -14.578125 L 6.90625 -16.15625 L 5.65625 -9.328125 L 13.75 -7.84375 L 13.53125 -6.703125 L 5.4375 -8.1875 L 4.03125 -0.453125 L 12.625 1.125 Z M 12.40625 2.28125 "/></g></g></g><g fill="#ffffff" fill-opacity="1"><g transform="translate(169.461713, 361.074481)"><g><path d="M 13.015625 -3.765625 C 12.898438 -2.253906 12.25 -1.09375 11.0625 -0.28125 C 9.875 0.53125 8.359375 0.867188 6.515625 0.734375 C 4.273438 0.566406 2.578125 0.195312 1.421875 -0.375 L 1.515625 -1.65625 C 2.785156 -1 4.441406 -0.597656 6.484375 -0.453125 C 7.972656 -0.335938 9.1875 -0.59375 10.125 -1.21875 C 11.0625 -1.84375 11.570312 -2.710938 11.65625 -3.828125 C 11.707031 -4.523438 11.597656 -5.109375 11.328125 -5.578125 C 11.066406 -6.054688 10.625 -6.503906 10 -6.921875 C 9.382812 -7.347656 8.453125 -7.820312 7.203125 -8.34375 C 5.378906 -9.125 4.140625 -9.910156 3.484375 -10.703125 C 2.828125 -11.503906 2.546875 -12.53125 2.640625 -13.78125 C 2.734375 -15.132812 3.34375 -16.203125 4.46875 -16.984375 C 5.601562 -17.773438 7.015625 -18.109375 8.703125 -17.984375 C 10.421875 -17.859375 12.015625 -17.414062 13.484375 -16.65625 L 12.9375 -15.59375 C 11.457031 -16.332031 10.03125 -16.753906 8.65625 -16.859375 C 7.300781 -16.960938 6.195312 -16.726562 5.34375 -16.15625 C 4.5 -15.59375 4.039062 -14.773438 3.96875 -13.703125 C 3.914062 -13.023438 4 -12.460938 4.21875 -12.015625 C 4.4375 -11.566406 4.8125 -11.144531 5.34375 -10.75 C 5.875 -10.363281 6.800781 -9.878906 8.125 -9.296875 C 9.507812 -8.691406 10.539062 -8.132812 11.21875 -7.625 C 11.90625 -7.113281 12.390625 -6.550781 12.671875 -5.9375 C 12.960938 -5.320312 13.078125 -4.597656 13.015625 -3.765625 Z M 13.015625 -3.765625 "/></g></g></g><g fill="#ffffff" fill-opacity="1"><g transform="translate(186.774348, 362.157844)"><g><path d="M 7.359375 -0.234375 L 6.078125 -0.1875 L 5.53125 -17.28125 L -0.421875 -17.09375 L -0.46875 -18.296875 L 12.71875 -18.71875 L 12.765625 -17.515625 L 6.8125 -17.328125 Z M 7.359375 -0.234375 "/></g></g></g><g fill="#ffffff" fill-opacity="1"><g transform="translate(203.61824, 361.484378)"><g><path d="M 10.375 -8.015625 L 3 -6.96875 L 1.40625 -0.203125 L 0 0 L 4.671875 -19.25 L 5.5 -19.359375 L 15.234375 -2.1875 L 13.8125 -1.984375 Z M 3.3125 -8.15625 L 9.796875 -9.09375 L 6.40625 -15.28125 C 6.125 -15.757812 5.765625 -16.429688 5.328125 -17.296875 C 5.222656 -16.472656 5.082031 -15.722656 4.90625 -15.046875 Z M 3.3125 -8.15625 "/></g></g></g><g fill="#ffffff" fill-opacity="1"><g transform="translate(222.199215, 358.578751)"><g><path d="M 7.125 -1.84375 L 5.890625 -1.515625 L 1.609375 -18.078125 L -4.15625 -16.59375 L -4.453125 -17.765625 L 8.3125 -21.0625 L 8.609375 -19.890625 L 2.84375 -18.40625 Z M 7.125 -1.84375 "/></g></g></g><g fill="#ffffff" fill-opacity="1"><g transform="translate(238.440701, 354.225015)"><g><path d="M 11.8125 -4.421875 L 2.421875 -0.90625 L -4 -18.046875 L 5.390625 -21.5625 L 5.796875 -20.46875 L -2.390625 -17.40625 L 0.046875 -10.90625 L 7.765625 -13.796875 L 8.171875 -12.703125 L 0.453125 -9.8125 L 3.21875 -2.453125 L 11.40625 -5.515625 Z M 11.8125 -4.421875 "/></g></g></g><g fill="#ffffff" fill-opacity="1"><g transform="translate(254.539403, 347.883633)"><g/></g></g><g fill="#ffffff" fill-opacity="1"><g transform="translate(263.418361, 343.696524)"><g><path d="M 8.609375 -10.453125 C 9.378906 -9.140625 9.5 -7.8125 8.96875 -6.46875 C 8.445312 -5.132812 7.382812 -4 5.78125 -3.0625 C 3.84375 -1.9375 2.234375 -1.289062 0.953125 -1.125 L 0.3125 -2.234375 C 1.738281 -2.398438 3.332031 -3 5.09375 -4.03125 C 6.394531 -4.78125 7.253906 -5.675781 7.671875 -6.71875 C 8.097656 -7.757812 8.03125 -8.765625 7.46875 -9.734375 C 7.113281 -10.335938 6.695312 -10.757812 6.21875 -11 C 5.738281 -11.25 5.117188 -11.367188 4.359375 -11.359375 C 3.609375 -11.359375 2.5625 -11.222656 1.21875 -10.953125 C -0.71875 -10.578125 -2.179688 -10.53125 -3.171875 -10.8125 C -4.160156 -11.101562 -4.972656 -11.789062 -5.609375 -12.875 C -6.285156 -14.050781 -6.378906 -15.28125 -5.890625 -16.5625 C -5.398438 -17.84375 -4.425781 -18.90625 -2.96875 -19.75 C -1.46875 -20.625 0.0976562 -21.15625 1.734375 -21.34375 L 1.875 -20.15625 C 0.238281 -19.945312 -1.175781 -19.492188 -2.375 -18.796875 C -3.539062 -18.117188 -4.3125 -17.304688 -4.6875 -16.359375 C -5.070312 -15.421875 -4.992188 -14.484375 -4.453125 -13.546875 C -4.117188 -12.960938 -3.734375 -12.546875 -3.296875 -12.296875 C -2.859375 -12.046875 -2.304688 -11.910156 -1.640625 -11.890625 C -0.984375 -11.867188 0.0507812 -11.992188 1.46875 -12.265625 C 2.945312 -12.546875 4.113281 -12.664062 4.96875 -12.625 C 5.832031 -12.582031 6.550781 -12.390625 7.125 -12.046875 C 7.695312 -11.703125 8.191406 -11.171875 8.609375 -10.453125 Z M 8.609375 -10.453125 "/></g></g></g><g fill="#ffffff" fill-opacity="1"><g transform="translate(278.387199, 334.826515)"><g><path d="M 3.203125 -18.578125 C 4.253906 -17.160156 4.570312 -15.710938 4.15625 -14.234375 C 3.75 -12.765625 2.660156 -11.375 0.890625 -10.0625 L -1.390625 -8.375 L 3.109375 -2.296875 L 2.078125 -1.546875 L -8.8125 -16.28125 L -5.203125 -18.9375 C -1.691406 -21.53125 1.109375 -21.410156 3.203125 -18.578125 Z M -2.046875 -9.265625 L -0.015625 -10.765625 C 1.640625 -11.992188 2.632812 -13.15625 2.96875 -14.25 C 3.300781 -15.34375 3.015625 -16.5 2.109375 -17.71875 C 1.273438 -18.851562 0.304688 -19.4375 -0.796875 -19.46875 C -1.898438 -19.507812 -3.1875 -18.988281 -4.65625 -17.90625 L -7.09375 -16.09375 Z M -2.046875 -9.265625 "/></g></g></g><g fill="#ffffff" fill-opacity="1"><g transform="translate(293.081456, 323.702784)"><g><path d="M 9.25 -8.578125 L 1.90625 -1.765625 L -10.546875 -15.1875 L -3.203125 -22 L -2.40625 -21.140625 L -8.8125 -15.203125 L -4.09375 -10.125 L 1.9375 -15.71875 L 2.734375 -14.859375 L -3.296875 -9.265625 L 2.046875 -3.5 L 8.453125 -9.4375 Z M 9.25 -8.578125 "/></g></g></g><g fill="#ffffff" fill-opacity="1"><g transform="translate(305.894185, 311.617186)"><g><path d="M -6.46875 -19.25 C -7.957031 -17.507812 -8.570312 -15.65625 -8.3125 -13.6875 C -8.050781 -11.726562 -6.953125 -9.921875 -5.015625 -8.265625 C -3.035156 -6.554688 -1.09375 -5.703125 0.8125 -5.703125 C 2.71875 -5.703125 4.425781 -6.582031 5.9375 -8.34375 C 6.9375 -9.507812 7.703125 -10.710938 8.234375 -11.953125 L 9.09375 -11.21875 C 8.632812 -10.019531 7.816406 -8.734375 6.640625 -7.359375 C 4.960938 -5.410156 3.007812 -4.410156 0.78125 -4.359375 C -1.4375 -4.316406 -3.675781 -5.265625 -5.9375 -7.203125 C -7.351562 -8.421875 -8.367188 -9.757812 -8.984375 -11.21875 C -9.597656 -12.675781 -9.769531 -14.160156 -9.5 -15.671875 C -9.226562 -17.179688 -8.523438 -18.601562 -7.390625 -19.9375 C -6.222656 -21.289062 -4.921875 -22.289062 -3.484375 -22.9375 L -2.953125 -21.796875 C -4.335938 -21.210938 -5.507812 -20.363281 -6.46875 -19.25 Z M -6.46875 -19.25 "/></g></g></g><g fill="#ffffff" fill-opacity="1"><g transform="translate(318.075809, 296.866955)"><g><path d="M 1.5 -2.109375 L -13.40625 -12.75 L -12.65625 -13.796875 L 2.25 -3.15625 Z M 1.5 -2.109375 "/></g></g></g><g fill="#ffffff" fill-opacity="1"><g transform="translate(323.729027, 289.036893)"><g><path d="M 0.21875 -13.109375 L -3.5625 -6.703125 L 0.71875 -1.21875 L 0 0 L -12.109375 -15.671875 L -11.6875 -16.375 L 7.8125 -13.265625 L 7.078125 -12.015625 Z M -4.3125 -7.6875 L -0.984375 -13.328125 L -7.9375 -14.546875 C -8.488281 -14.617188 -9.238281 -14.765625 -10.1875 -14.984375 C -9.601562 -14.378906 -9.097656 -13.796875 -8.671875 -13.234375 Z M -4.3125 -7.6875 "/></g></g></g><g fill="#ffffff" fill-opacity="1"><g transform="translate(333.057253, 272.718041)"><g><path d="M 1.0625 -2.359375 L -15.640625 -9.875 L -15.109375 -11.046875 L 0.5 -4.03125 L 4.078125 -12 L 5.171875 -11.5 Z M 1.0625 -2.359375 "/></g></g></g><g fill="#ffffff" fill-opacity="1"><g transform="translate(339.502465, 257.772876)"><g><path d="M 0.875 -2.4375 L -16.375 -8.59375 L -15.953125 -9.8125 L 1.296875 -3.65625 Z M 0.875 -2.4375 "/></g></g></g><g fill="#ffffff" fill-opacity="1"><g transform="translate(342.755684, 248.727892)"><g><path d="M -1.296875 -13.5 C 0.171875 -13.101562 1.191406 -12.242188 1.765625 -10.921875 C 2.347656 -9.609375 2.398438 -8.054688 1.921875 -6.265625 C 1.347656 -4.097656 0.671875 -2.5 -0.109375 -1.46875 L -1.34375 -1.796875 C -0.457031 -2.929688 0.242188 -4.484375 0.765625 -6.453125 C 1.148438 -7.898438 1.117188 -9.140625 0.671875 -10.171875 C 0.234375 -11.210938 -0.519531 -11.878906 -1.59375 -12.171875 C -2.269531 -12.347656 -2.863281 -12.347656 -3.375 -12.171875 C -3.894531 -12.003906 -4.414062 -11.648438 -4.9375 -11.109375 C -5.46875 -10.578125 -6.113281 -9.75 -6.875 -8.625 C -7.976562 -6.988281 -8.976562 -5.921875 -9.875 -5.421875 C -10.78125 -4.921875 -11.835938 -4.832031 -13.046875 -5.15625 C -14.359375 -5.5 -15.296875 -6.300781 -15.859375 -7.5625 C -16.421875 -8.820312 -16.488281 -10.265625 -16.0625 -11.890625 C -15.613281 -13.566406 -14.878906 -15.050781 -13.859375 -16.34375 L -12.90625 -15.609375 C -13.914062 -14.304688 -14.597656 -12.984375 -14.953125 -11.640625 C -15.304688 -10.328125 -15.28125 -9.203125 -14.875 -8.265625 C -14.476562 -7.335938 -13.757812 -6.734375 -12.71875 -6.453125 C -12.0625 -6.273438 -11.492188 -6.25 -11.015625 -6.375 C -10.535156 -6.507812 -10.050781 -6.800781 -9.5625 -7.25 C -9.082031 -7.695312 -8.441406 -8.519531 -7.640625 -9.71875 C -6.773438 -10.957031 -6.023438 -11.863281 -5.390625 -12.4375 C -4.765625 -13.019531 -4.125 -13.394531 -3.46875 -13.5625 C -2.820312 -13.726562 -2.097656 -13.707031 -1.296875 -13.5 Z M -1.296875 -13.5 "/></g></g></g><g fill="#ffffff" fill-opacity="1"><g transform="translate(347.038155, 231.919279)"><g><path d="M 1.140625 -7.265625 L 0.9375 -6 L -15.96875 -8.640625 L -16.890625 -2.765625 L -18.078125 -2.953125 L -16.046875 -15.984375 L -14.859375 -15.796875 L -15.765625 -9.90625 Z M 1.140625 -7.265625 "/></g></g></g><g fill="#ffffff" fill-opacity="1"><g transform="translate(57.631247, 128.609463)"><g><path d="M 1.3125 -13.6875 C 2.757812 -12.976562 3.628906 -11.894531 3.921875 -10.4375 C 4.210938 -8.988281 3.914062 -7.367188 3.03125 -5.578125 C 2.0625 -3.628906 1.070312 -2.253906 0.0625 -1.453125 L -1.78125 -2.359375 C -1.164062 -2.898438 -0.578125 -3.523438 -0.015625 -4.234375 C 0.546875 -4.941406 1.019531 -5.6875 1.40625 -6.46875 C 2.03125 -7.738281 2.253906 -8.816406 2.078125 -9.703125 C 1.910156 -10.585938 1.398438 -11.238281 0.546875 -11.65625 C -0.0234375 -11.9375 -0.546875 -12.050781 -1.015625 -12 C -1.492188 -11.957031 -2.019531 -11.742188 -2.59375 -11.359375 C -3.164062 -10.972656 -3.914062 -10.328125 -4.84375 -9.421875 C -6.144531 -8.171875 -7.332031 -7.398438 -8.40625 -7.109375 C -9.476562 -6.828125 -10.617188 -6.984375 -11.828125 -7.578125 C -13.097656 -8.210938 -13.867188 -9.191406 -14.140625 -10.515625 C -14.410156 -11.835938 -14.160156 -13.273438 -13.390625 -14.828125 C -12.585938 -16.460938 -11.550781 -17.816406 -10.28125 -18.890625 L -8.90625 -17.453125 C -10.144531 -16.390625 -11.082031 -15.222656 -11.71875 -13.953125 C -12.21875 -12.941406 -12.390625 -12.039062 -12.234375 -11.25 C -12.078125 -10.457031 -11.617188 -9.875 -10.859375 -9.5 C -10.285156 -9.21875 -9.765625 -9.09375 -9.296875 -9.125 C -8.828125 -9.15625 -8.316406 -9.347656 -7.765625 -9.703125 C -7.210938 -10.054688 -6.503906 -10.644531 -5.640625 -11.46875 C -4.171875 -12.894531 -2.921875 -13.757812 -1.890625 -14.0625 C -0.867188 -14.363281 0.195312 -14.238281 1.3125 -13.6875 Z M 1.3125 -13.6875 "/></g></g></g><g fill="#ffffff" fill-opacity="1"><g transform="translate(66.920876, 110.513649)"><g><path d="M -5.453125 -23.9375 L 4.203125 -17.078125 C 5.898438 -15.859375 6.867188 -14.390625 7.109375 -12.671875 C 7.359375 -10.953125 6.84375 -9.195312 5.5625 -7.40625 C 4.289062 -5.613281 2.8125 -4.570312 1.125 -4.28125 C -0.550781 -3.988281 -2.25 -4.453125 -3.96875 -5.671875 L -13.578125 -12.5 L -12.34375 -14.234375 L -2.609375 -7.3125 C -1.367188 -6.425781 -0.171875 -6.085938 0.984375 -6.296875 C 2.140625 -6.515625 3.1875 -7.28125 4.125 -8.59375 C 5.019531 -9.851562 5.375 -11.0625 5.1875 -12.21875 C 5 -13.375 4.28125 -14.398438 3.03125 -15.296875 L -6.6875 -22.203125 Z M -5.453125 -23.9375 "/></g></g></g><g fill="#ffffff" fill-opacity="1"><g transform="translate(81.879106, 90.609147)"><g><path d="M 9.5625 -9.703125 L 0.71875 -0.734375 L -0.46875 -1.90625 L -4.140625 -19.171875 L -10.75 -12.46875 L -12.09375 -13.8125 L -3.65625 -22.359375 L -2.484375 -21.203125 L 1.171875 -3.921875 L 8.1875 -11.046875 Z M 9.5625 -9.703125 "/></g></g></g><g fill="#ffffff" fill-opacity="1"><g transform="translate(96.888907, 75.986891)"><g><path d="M 11.25 -8.375 L 5.9375 -11.6875 L 0.046875 -7.296875 L 1.734375 -1.28125 L 0 0 L -5.1875 -19.0625 L -3.734375 -20.140625 L 13.03125 -9.6875 Z M 4.296875 -12.828125 L -0.828125 -16.109375 C -1.472656 -16.523438 -2.226562 -17.066406 -3.09375 -17.734375 C -2.757812 -16.972656 -2.445312 -16.101562 -2.15625 -15.125 L -0.46875 -9.28125 Z M 4.296875 -12.828125 "/></g></g></g><g fill="#ffffff" fill-opacity="1"><g transform="translate(115.096105, 62.922031)"><g><path d="M 15 -7.640625 L 12.828125 -6.53125 L -3.078125 -15.703125 L -3.171875 -15.640625 C -2.222656 -14.097656 -1.40625 -12.648438 -0.71875 -11.296875 L 4 -2.03125 L 2.234375 -1.140625 L -6.078125 -17.453125 L -3.921875 -18.546875 L 11.921875 -9.4375 L 12.015625 -9.484375 C 11.890625 -9.691406 11.523438 -10.328125 10.921875 -11.390625 C 10.316406 -12.453125 9.894531 -13.21875 9.65625 -13.6875 L 4.890625 -23.046875 L 6.6875 -23.953125 Z M 15 -7.640625 "/></g></g></g><g fill="#ffffff" fill-opacity="1"><g transform="translate(137.979284, 51.866383)"><g><path d="M 16.109375 -4.859375 L 13.78125 -4.15625 L -0.234375 -15.984375 L -0.34375 -15.953125 C 0.3125 -14.265625 0.859375 -12.703125 1.296875 -11.265625 L 4.296875 -1.296875 L 2.40625 -0.71875 L -2.875 -18.25 L -0.5625 -18.953125 L 13.40625 -7.1875 L 13.515625 -7.21875 C 13.421875 -7.425781 13.171875 -8.109375 12.765625 -9.265625 C 12.359375 -10.421875 12.085938 -11.25 11.953125 -11.75 L 8.921875 -21.8125 L 10.828125 -22.390625 Z M 16.109375 -4.859375 "/></g></g></g><g fill="#ffffff" fill-opacity="1"><g transform="translate(162.638963, 45.166626)"><g><path d="M 12.625 -1.671875 L 2.5 -0.328125 L 0.109375 -18.484375 L 10.234375 -19.828125 L 10.46875 -17.953125 L 2.4375 -16.890625 L 3.21875 -11.03125 L 10.75 -12.015625 L 11 -10.15625 L 3.46875 -9.171875 L 4.34375 -2.5 L 12.375 -3.5625 Z M 12.625 -1.671875 "/></g></g></g><g fill="#ffffff" fill-opacity="1"><g transform="translate(183.405555, 43.054881)"><g/></g></g><g fill="#ffffff" fill-opacity="1"><g transform="translate(196.638535, 43.019946)"><g><path d="M 12.203125 -15.375 C 10.203125 -15.601562 8.546875 -15.117188 7.234375 -13.921875 C 5.921875 -12.734375 5.128906 -10.976562 4.859375 -8.65625 C 4.585938 -6.28125 4.9375 -4.375 5.90625 -2.9375 C 6.875 -1.507812 8.390625 -0.675781 10.453125 -0.4375 C 11.722656 -0.289062 13.195312 -0.351562 14.875 -0.625 L 14.65625 1.21875 C 13.34375 1.550781 11.765625 1.613281 9.921875 1.40625 C 7.234375 1.09375 5.253906 0.0390625 3.984375 -1.75 C 2.710938 -3.550781 2.253906 -5.953125 2.609375 -8.953125 C 2.816406 -10.828125 3.351562 -12.425781 4.21875 -13.75 C 5.09375 -15.070312 6.234375 -16.039062 7.640625 -16.65625 C 9.054688 -17.269531 10.664062 -17.472656 12.46875 -17.265625 C 14.363281 -17.046875 15.984375 -16.507812 17.328125 -15.65625 L 16.21875 -13.921875 C 14.914062 -14.734375 13.578125 -15.21875 12.203125 -15.375 Z M 12.203125 -15.375 "/></g></g></g><g fill="#ffffff" fill-opacity="1"><g transform="translate(218.882017, 46.098647)"><g><path d="M 6.515625 -6.078125 L 4.46875 1.25 L 2.421875 0.671875 L 7.328125 -16.96875 L 12.171875 -15.609375 C 14.328125 -15.015625 15.804688 -14.15625 16.609375 -13.03125 C 17.421875 -11.914062 17.597656 -10.523438 17.140625 -8.859375 C 16.484375 -6.535156 14.859375 -5.296875 12.265625 -5.140625 L 14.859375 4.140625 L 12.4375 3.46875 L 10.203125 -5.0625 Z M 7 -7.859375 L 9.8125 -7.078125 C 11.269531 -6.671875 12.414062 -6.660156 13.25 -7.046875 C 14.082031 -7.429688 14.660156 -8.195312 14.984375 -9.34375 C 15.304688 -10.507812 15.195312 -11.445312 14.65625 -12.15625 C 14.113281 -12.863281 13.085938 -13.429688 11.578125 -13.859375 L 8.890625 -14.59375 Z M 7 -7.859375 "/></g></g></g><g fill="#ffffff" fill-opacity="1"><g transform="translate(240.006244, 52.342536)"><g><path d="M 20.578125 -0.453125 C 19.328125 2.203125 17.671875 3.96875 15.609375 4.84375 C 13.554688 5.726562 11.335938 5.609375 8.953125 4.484375 C 6.503906 3.335938 4.96875 1.707031 4.34375 -0.40625 C 3.71875 -2.519531 4.046875 -4.9375 5.328125 -7.65625 C 6.609375 -10.351562 8.257812 -12.128906 10.28125 -12.984375 C 12.3125 -13.847656 14.554688 -13.703125 17.015625 -12.546875 C 19.390625 -11.421875 20.890625 -9.785156 21.515625 -7.640625 C 22.140625 -5.503906 21.828125 -3.109375 20.578125 -0.453125 Z M 7.390625 -6.671875 C 6.328125 -4.429688 5.992188 -2.503906 6.390625 -0.890625 C 6.796875 0.722656 7.914062 1.957031 9.75 2.8125 C 11.570312 3.675781 13.222656 3.75 14.703125 3.03125 C 16.191406 2.3125 17.46875 0.828125 18.53125 -1.421875 C 19.570312 -3.640625 19.898438 -5.546875 19.515625 -7.140625 C 19.128906 -8.734375 18.023438 -9.960938 16.203125 -10.828125 C 14.359375 -11.691406 12.6875 -11.765625 11.1875 -11.046875 C 9.695312 -10.335938 8.429688 -8.878906 7.390625 -6.671875 Z M 7.390625 -6.671875 "/></g></g></g><g fill="#ffffff" fill-opacity="1"><g transform="translate(263.305104, 63.993055)"><g><path d="M 23.9375 -5.4375 L 17.0625 4.21875 C 15.851562 5.925781 14.390625 6.898438 12.671875 7.140625 C 10.953125 7.378906 9.191406 6.851562 7.390625 5.5625 C 5.597656 4.289062 4.554688 2.8125 4.265625 1.125 C 3.984375 -0.550781 4.453125 -2.25 5.671875 -3.96875 L 12.515625 -13.578125 L 14.25 -12.34375 L 7.3125 -2.59375 C 6.425781 -1.363281 6.085938 -0.171875 6.296875 0.984375 C 6.503906 2.148438 7.265625 3.203125 8.578125 4.140625 C 9.847656 5.035156 11.054688 5.390625 12.203125 5.203125 C 13.359375 5.015625 14.382812 4.296875 15.28125 3.046875 L 22.203125 -6.671875 Z M 23.9375 -5.4375 "/></g></g></g><g fill="#ffffff" fill-opacity="1"><g transform="translate(283.197932, 78.99053)"><g><path d="M 5.8125 5.71875 L 4.296875 4.234375 L 15.828125 -7.453125 L 11.6875 -11.53125 L 13.015625 -12.890625 L 22.796875 -3.25 L 21.46875 -1.890625 L 17.34375 -5.96875 Z M 5.8125 5.71875 "/></g></g></g><g fill="#ffffff" fill-opacity="1"><g transform="translate(297.522423, 93.685117)"><g><path d="M 19.5625 -1.671875 C 18.351562 -3.273438 16.863281 -4.144531 15.09375 -4.28125 C 13.320312 -4.425781 11.503906 -3.800781 9.640625 -2.40625 C 7.710938 -0.96875 6.5625 0.585938 6.1875 2.265625 C 5.8125 3.953125 6.242188 5.628906 7.484375 7.296875 C 8.253906 8.316406 9.3125 9.347656 10.65625 10.390625 L 9.171875 11.5 C 8.023438 10.769531 6.898438 9.664062 5.796875 8.1875 C 4.179688 6.019531 3.585938 3.859375 4.015625 1.703125 C 4.453125 -0.453125 5.878906 -2.4375 8.296875 -4.25 C 9.804688 -5.375 11.335938 -6.078125 12.890625 -6.359375 C 14.453125 -6.640625 15.941406 -6.476562 17.359375 -5.875 C 18.773438 -5.269531 20.023438 -4.238281 21.109375 -2.78125 C 22.253906 -1.25 22.976562 0.300781 23.28125 1.875 L 21.265625 2.234375 C 20.953125 0.742188 20.382812 -0.554688 19.5625 -1.671875 Z M 19.5625 -1.671875 "/></g></g></g><g fill="#ffffff" fill-opacity="1"><g transform="translate(310.583282, 111.847775)"><g><path d="M 7.5 14.609375 L 6.53125 12.71875 L 14.203125 8.78125 L 9.796875 0.1875 L 2.125 4.125 L 1.15625 2.234375 L 17.4375 -6.140625 L 18.40625 -4.25 L 11.484375 -0.6875 L 15.890625 7.90625 L 22.8125 4.34375 L 23.78125 6.234375 Z M 7.5 14.609375 "/></g></g></g></svg>