<svg xmlns="http://www.w3.org/2000/svg" xmlns:xlink="http://www.w3.org/1999/xlink" width="500" zoomAndPan="magnify" viewBox="0 0 375 374.999991" height="500" preserveAspectRatio="xMidYMid meet" version="1.0"><defs><g/></defs><g fill="#ffe4e4" fill-opacity="1"><g transform="translate(114.718115, 212.939172)"><g><path d="M 52 -53.25 C 50.707031 -57.101562 49.054688 -60.410156 47.046875 -63.171875 C 45.046875 -65.941406 43.023438 -68.007812 40.984375 -69.375 C 38.941406 -70.726562 36.953125 -71.59375 35.015625 -71.96875 C 33.085938 -72.351562 31.332031 -72.546875 29.75 -72.546875 C 28.15625 -72.546875 26.488281 -72.394531 24.75 -72.09375 C 23.007812 -71.789062 21.421875 -71.109375 19.984375 -70.046875 C 18.691406 -68.984375 17.816406 -67.847656 17.359375 -66.640625 C 16.910156 -65.429688 16.6875 -64.109375 16.6875 -62.671875 C 16.6875 -61.160156 16.929688 -59.796875 17.421875 -58.578125 C 17.921875 -57.367188 18.8125 -56.234375 20.09375 -55.171875 C 21.382812 -54.035156 22.671875 -53.238281 23.953125 -52.78125 C 25.242188 -52.332031 26.644531 -51.804688 28.15625 -51.203125 L 44.28125 -44.84375 C 46.695312 -43.863281 49.003906 -42.671875 51.203125 -41.265625 C 53.398438 -39.867188 55.367188 -37.84375 57.109375 -35.1875 C 58.171875 -33.53125 59.019531 -31.675781 59.65625 -29.625 C 60.300781 -27.582031 60.625 -25.351562 60.625 -22.9375 C 60.625 -21.800781 60.53125 -20.515625 60.34375 -19.078125 C 60.15625 -17.640625 59.773438 -16.101562 59.203125 -14.46875 C 58.640625 -12.84375 57.828125 -11.195312 56.765625 -9.53125 C 55.703125 -7.863281 54.335938 -6.273438 52.671875 -4.765625 C 49.953125 -2.347656 47.132812 -0.6875 44.21875 0.21875 C 41.300781 1.132812 38.03125 1.59375 34.40625 1.59375 C 32.8125 1.59375 31.410156 1.515625 30.203125 1.359375 C 28.992188 1.210938 27.859375 1.023438 26.796875 0.796875 C 25.734375 0.566406 24.707031 0.285156 23.71875 -0.046875 C 22.738281 -0.390625 21.644531 -0.753906 20.4375 -1.140625 C 18.695312 -1.742188 17.390625 -2.175781 16.515625 -2.4375 C 15.648438 -2.707031 14.835938 -2.84375 14.078125 -2.84375 C 13.546875 -2.84375 12.804688 -2.691406 11.859375 -2.390625 C 10.910156 -2.085938 10.0625 -1.289062 9.3125 0 L 5.21875 0 L 4.765625 -26.453125 L 7.5 -26.453125 C 7.71875 -25.617188 8.207031 -24.066406 8.96875 -21.796875 C 9.726562 -19.523438 10.863281 -17.140625 12.375 -14.640625 C 13.4375 -12.972656 14.609375 -11.421875 15.890625 -9.984375 C 17.179688 -8.546875 18.582031 -7.300781 20.09375 -6.25 C 21.457031 -5.257812 23.347656 -4.269531 25.765625 -3.28125 C 28.191406 -2.300781 31.03125 -1.8125 34.28125 -1.8125 C 37.46875 -1.8125 39.910156 -2.171875 41.609375 -2.890625 C 43.304688 -3.609375 44.421875 -4.160156 44.953125 -4.546875 C 46.472656 -5.597656 47.6875 -6.9375 48.59375 -8.5625 C 49.5 -10.195312 49.953125 -11.957031 49.953125 -13.84375 C 49.953125 -15.96875 49.535156 -17.785156 48.703125 -19.296875 C 47.867188 -20.816406 46.789062 -22.101562 45.46875 -23.15625 C 44.144531 -24.21875 42.664062 -25.125 41.03125 -25.875 C 39.40625 -26.632812 37.800781 -27.316406 36.21875 -27.921875 L 22.703125 -33.265625 C 20.503906 -34.097656 18.382812 -35.140625 16.34375 -36.390625 C 14.300781 -37.640625 12.445312 -39.359375 10.78125 -41.546875 C 9.269531 -43.515625 8.226562 -45.5 7.65625 -47.5 C 7.09375 -49.507812 6.8125 -51.5 6.8125 -53.46875 C 6.8125 -54.375 6.882812 -55.546875 7.03125 -56.984375 C 7.1875 -58.429688 7.53125 -59.96875 8.0625 -61.59375 C 8.59375 -63.21875 9.382812 -64.863281 10.4375 -66.53125 C 11.5 -68.195312 12.941406 -69.710938 14.765625 -71.078125 C 16.648438 -72.585938 18.878906 -73.773438 21.453125 -74.640625 C 24.023438 -75.515625 26.941406 -75.953125 30.203125 -75.953125 C 34.140625 -75.953125 37.582031 -75.304688 40.53125 -74.015625 C 41.59375 -73.566406 42.539062 -73.171875 43.375 -72.828125 C 44.207031 -72.484375 45.035156 -72.3125 45.859375 -72.3125 C 47.679688 -72.3125 49.273438 -72.992188 50.640625 -74.359375 L 54.71875 -74.359375 L 54.71875 -53.25 Z M 52 -53.25 "/></g></g></g><g fill="#ffe4e4" fill-opacity="1"><g transform="translate(186.129529, 212.939172)"><g><path d="M 17.9375 -21.796875 L 16.234375 -16.796875 C 16.160156 -16.578125 16.023438 -16.144531 15.828125 -15.5 C 15.640625 -14.851562 15.453125 -14.148438 15.265625 -13.390625 C 15.078125 -12.640625 14.90625 -11.828125 14.75 -10.953125 C 14.601562 -10.085938 14.53125 -9.3125 14.53125 -8.625 C 14.53125 -7.488281 14.753906 -6.523438 15.203125 -5.734375 C 15.660156 -4.941406 16.535156 -4.242188 17.828125 -3.640625 C 18.054688 -3.484375 18.71875 -3.253906 19.8125 -2.953125 C 20.90625 -2.648438 22.628906 -2.5 24.984375 -2.5 L 24.984375 0 L 0 0 L 0 -2.5 C 1.738281 -2.570312 3.382812 -2.910156 4.9375 -3.515625 C 6.488281 -4.117188 7.796875 -5.21875 8.859375 -6.8125 C 9.460938 -7.71875 10.007812 -8.796875 10.5 -10.046875 C 10.988281 -11.296875 11.648438 -13.019531 12.484375 -15.21875 L 34.625 -75.953125 L 40.75 -75.953125 L 67.203125 -2.5 L 74.140625 -2.5 L 74.140625 0 L 39.734375 0 L 39.734375 -2.5 L 48.8125 -2.5 L 41.671875 -21.796875 Z M 29.859375 -55.0625 L 18.625 -24.296875 L 41.21875 -24.296875 Z M 29.859375 -55.0625 "/></g></g></g><g fill="#e96840" fill-opacity="1"><g transform="translate(73.655325, 190.064181)"><g><path d="M 12.828125 8.484375 C 13.296875 8.503906 13.757812 8.488281 14.21875 8.4375 C 14.6875 8.382812 15.132812 8.265625 15.5625 8.078125 C 16.84375 7.472656 17.28125 6.515625 16.875 5.203125 C 16.644531 4.523438 16.296875 3.910156 15.828125 3.359375 C 15.285156 2.660156 14.691406 2.015625 14.046875 1.421875 C 13.398438 0.835938 12.734375 0.273438 12.046875 -0.265625 C 11.660156 -0.546875 11.296875 -0.535156 10.953125 -0.234375 C 9.890625 0.554688 8.9375 1.4375 8.09375 2.40625 C 7.726562 2.851562 7.414062 3.335938 7.15625 3.859375 C 6.601562 5.160156 6.875 6.253906 7.96875 7.140625 C 8.5 7.546875 9.082031 7.84375 9.71875 8.03125 C 10.726562 8.332031 11.765625 8.484375 12.828125 8.484375 Z M 13.46875 -1.984375 C 13.507812 -1.804688 13.582031 -1.660156 13.6875 -1.546875 C 13.800781 -1.429688 13.921875 -1.335938 14.046875 -1.265625 C 14.128906 -1.203125 14.210938 -1.140625 14.296875 -1.078125 C 14.609375 -0.796875 14.925781 -0.503906 15.25 -0.203125 C 15.863281 0.328125 16.453125 0.851562 17.015625 1.375 C 17.847656 2.144531 18.515625 3.035156 19.015625 4.046875 C 19.523438 5.054688 19.65625 6.035156 19.40625 6.984375 C 19.164062 7.941406 18.421875 8.703125 17.171875 9.265625 C 16.648438 9.503906 16.09375 9.664062 15.5 9.75 C 14.375 9.882812 13.238281 9.9375 12.09375 9.90625 C 10.945312 9.882812 9.816406 9.722656 8.703125 9.421875 C 8.160156 9.273438 7.632812 9.082031 7.125 8.84375 C 6.625 8.601562 6.171875 8.289062 5.765625 7.90625 C 4.316406 6.59375 4.015625 5.050781 4.859375 3.28125 C 5.191406 2.601562 5.625 1.976562 6.15625 1.40625 C 7.007812 0.507812 7.921875 -0.316406 8.890625 -1.078125 C 9.367188 -1.460938 9.601562 -1.738281 9.59375 -1.90625 C 9.59375 -2.082031 9.316406 -2.332031 8.765625 -2.65625 C 7.773438 -3.320312 6.773438 -3.984375 5.765625 -4.640625 C 5.234375 -4.972656 4.703125 -5.316406 4.171875 -5.671875 C 3.859375 -5.890625 3.539062 -6.097656 3.21875 -6.296875 C 2.40625 -6.804688 1.601562 -7.34375 0.8125 -7.90625 C -0.0820312 -8.539062 -0.914062 -9.226562 -1.6875 -9.96875 C -2.46875 -10.71875 -3.148438 -11.5625 -3.734375 -12.5 C -4.953125 -14.457031 -5.40625 -16.457031 -5.09375 -18.5 C -4.78125 -20.539062 -3.890625 -22.507812 -2.421875 -24.40625 C -0.953125 -26.300781 0.890625 -28.003906 3.109375 -29.515625 C 5.335938 -31.035156 7.753906 -32.265625 10.359375 -33.203125 C 12.960938 -34.140625 15.550781 -34.675781 18.125 -34.8125 C 20.707031 -34.957031 23.078125 -34.59375 25.234375 -33.71875 C 27.398438 -32.851562 29.179688 -31.363281 30.578125 -29.25 C 30.828125 -28.851562 31.035156 -28.441406 31.203125 -28.015625 C 31.378906 -27.585938 31.46875 -27.128906 31.46875 -26.640625 C 31.46875 -26.148438 31.242188 -25.84375 30.796875 -25.71875 C 30.492188 -25.644531 30.21875 -25.648438 29.96875 -25.734375 C 29.71875 -25.828125 29.523438 -25.976562 29.390625 -26.1875 C 29.378906 -26.238281 29.363281 -26.304688 29.34375 -26.390625 C 29.320312 -26.429688 29.3125 -26.472656 29.3125 -26.515625 C 28.382812 -29.078125 27.007812 -30.90625 25.1875 -32 C 23.363281 -33.09375 21.300781 -33.601562 19 -33.53125 C 16.707031 -33.46875 14.363281 -32.96875 11.96875 -32.03125 C 9.570312 -31.101562 7.320312 -29.914062 5.21875 -28.46875 C 3.113281 -27.03125 1.347656 -25.476562 -0.078125 -23.8125 C -1.503906 -22.15625 -2.390625 -20.546875 -2.734375 -18.984375 C -3.078125 -17.035156 -2.742188 -15.238281 -1.734375 -13.59375 C -0.929688 -12.1875 0.0976562 -10.988281 1.359375 -10 C 2.328125 -9.238281 3.316406 -8.515625 4.328125 -7.828125 C 5.242188 -7.234375 6.144531 -6.648438 7.03125 -6.078125 C 8.269531 -5.296875 9.484375 -4.503906 10.671875 -3.703125 C 11.015625 -3.453125 11.332031 -3.335938 11.625 -3.359375 C 11.914062 -3.378906 12.222656 -3.5 12.546875 -3.71875 C 14.148438 -4.6875 15.726562 -5.570312 17.28125 -6.375 C 18.84375 -7.1875 19.707031 -7.410156 19.875 -7.046875 C 20.050781 -6.691406 19.804688 -6.269531 19.140625 -5.78125 C 17.578125 -4.945312 16.082031 -4.019531 14.65625 -3 C 14.570312 -2.957031 14.492188 -2.90625 14.421875 -2.84375 C 14.023438 -2.632812 13.707031 -2.347656 13.46875 -1.984375 Z M 13.46875 -1.984375 "/></g></g></g><g fill="#e96840" fill-opacity="1"><g transform="translate(91.458382, 190.064181)"><g><path d="M 17.296875 -6.96875 C 17.421875 -6.945312 17.503906 -6.90625 17.546875 -6.84375 C 17.597656 -6.789062 17.632812 -6.703125 17.65625 -6.578125 C 17.65625 -6.273438 17.375 -5.925781 16.8125 -5.53125 C 16.257812 -5.132812 15.65625 -4.769531 15 -4.4375 C 14.34375 -4.101562 13.875 -3.894531 13.59375 -3.8125 C 12.65625 -3.445312 11.738281 -3.316406 10.84375 -3.421875 C 9.945312 -3.535156 9.164062 -4.007812 8.5 -4.84375 C 8.070312 -5.425781 7.753906 -5.691406 7.546875 -5.640625 C 7.335938 -5.597656 7.078125 -5.34375 6.765625 -4.875 C 6.441406 -4.34375 5.90625 -3.71875 5.15625 -3 C 4.3125 -2.375 3.519531 -2.078125 2.78125 -2.109375 C 2.039062 -2.148438 1.414062 -2.4375 0.90625 -2.96875 C 0.40625 -3.507812 0.0820312 -4.195312 -0.0625 -5.03125 C -0.21875 -5.875 -0.140625 -6.769531 0.171875 -7.71875 C 0.441406 -8.476562 1 -8.789062 1.84375 -8.65625 C 2.0625 -8.625 2.238281 -8.53125 2.375 -8.375 C 2.507812 -8.226562 2.546875 -8.046875 2.484375 -7.828125 C 2.304688 -7.066406 2.238281 -6.316406 2.28125 -5.578125 C 2.257812 -5.085938 2.347656 -4.628906 2.546875 -4.203125 C 2.753906 -3.835938 3.035156 -3.773438 3.390625 -4.015625 C 3.742188 -4.265625 4.097656 -4.617188 4.453125 -5.078125 C 4.804688 -5.546875 5.082031 -5.929688 5.28125 -6.234375 C 5.320312 -6.316406 5.363281 -6.390625 5.40625 -6.453125 C 5.476562 -6.554688 5.554688 -6.664062 5.640625 -6.78125 C 5.890625 -7.164062 6.148438 -7.53125 6.421875 -7.875 C 6.910156 -8.445312 7.535156 -8.691406 8.296875 -8.609375 C 8.929688 -8.566406 9.382812 -8.242188 9.65625 -7.640625 C 10.175781 -6.296875 10.945312 -5.554688 11.96875 -5.421875 C 12.988281 -5.296875 14.097656 -5.617188 15.296875 -6.390625 C 15.597656 -6.617188 15.910156 -6.789062 16.234375 -6.90625 C 16.554688 -7.03125 16.910156 -7.050781 17.296875 -6.96875 Z M 17.296875 -6.96875 "/></g></g></g><g fill="#e96840" fill-opacity="1"><g transform="translate(107.19292, 190.064181)"><g><path d="M 14.53125 -6.578125 C 14.570312 -6.515625 14.59375 -6.453125 14.59375 -6.390625 C 14.570312 -6.210938 14.492188 -6.070312 14.359375 -5.96875 C 14.191406 -5.820312 14.023438 -5.691406 13.859375 -5.578125 C 13.703125 -5.453125 13.539062 -5.332031 13.375 -5.21875 C 12.75 -4.664062 12.125 -4.117188 11.5 -3.578125 C 10.488281 -2.703125 9.476562 -1.832031 8.46875 -0.96875 C 8.195312 -0.738281 8.023438 -0.507812 7.953125 -0.28125 C 7.890625 -0.0507812 7.9375 0.222656 8.09375 0.546875 C 8.425781 1.203125 8.625 1.878906 8.6875 2.578125 C 8.757812 3.273438 8.765625 3.976562 8.703125 4.6875 C 8.503906 6.476562 7.8125 8 6.625 9.25 C 5.445312 10.5 3.957031 11.253906 2.15625 11.515625 C 1.445312 11.617188 0.757812 11.546875 0.09375 11.296875 C -1.0625 10.890625 -1.554688 10.070312 -1.390625 8.84375 C -1.253906 7.96875 -0.953125 7.148438 -0.484375 6.390625 C 0.140625 5.253906 0.867188 4.191406 1.703125 3.203125 C 1.816406 3.078125 1.925781 2.941406 2.03125 2.796875 C 2.78125 1.953125 3.519531 1.101562 4.25 0.25 C 4.550781 -0.175781 4.445312 -0.46875 3.9375 -0.625 C 3.300781 -0.789062 2.664062 -0.769531 2.03125 -0.5625 C 1.582031 -0.394531 1.117188 -0.34375 0.640625 -0.40625 C 0.453125 -0.425781 0.285156 -0.484375 0.140625 -0.578125 C 0.00390625 -0.671875 -0.0820312 -0.816406 -0.125 -1.015625 C -0.15625 -1.179688 -0.125 -1.316406 -0.03125 -1.421875 C 0.0507812 -1.535156 0.15625 -1.632812 0.28125 -1.71875 C 1.101562 -2.300781 1.859375 -2.953125 2.546875 -3.671875 C 3.242188 -4.398438 3.894531 -5.15625 4.5 -5.9375 C 4.613281 -6.101562 4.785156 -6.382812 5.015625 -6.78125 C 5.242188 -7.1875 5.445312 -7.625 5.625 -8.09375 C 5.800781 -8.570312 5.851562 -8.976562 5.78125 -9.3125 C 5.707031 -9.65625 5.429688 -9.832031 4.953125 -9.84375 C 4.273438 -9.8125 3.660156 -9.570312 3.109375 -9.125 C 2.566406 -8.675781 2.207031 -8.117188 2.03125 -7.453125 C 1.8125 -6.503906 1.285156 -6.191406 0.453125 -6.515625 C -0.117188 -6.734375 -0.363281 -7.144531 -0.28125 -7.75 C -0.175781 -8.34375 0.078125 -8.863281 0.484375 -9.3125 C 1.304688 -10.175781 2.21875 -10.75 3.21875 -11.03125 C 4.226562 -11.320312 5.296875 -11.34375 6.421875 -11.09375 C 7.078125 -10.96875 7.539062 -10.695312 7.8125 -10.28125 C 8.082031 -9.875 8.203125 -9.328125 8.171875 -8.640625 C 8.117188 -7.804688 7.863281 -7.035156 7.40625 -6.328125 C 6.820312 -5.398438 6.140625 -4.523438 5.359375 -3.703125 C 4.679688 -2.910156 4.429688 -2.375 4.609375 -2.09375 C 4.796875 -1.820312 5.179688 -1.75 5.765625 -1.875 C 6.359375 -2.007812 6.925781 -2.289062 7.46875 -2.71875 C 7.5625 -2.800781 7.648438 -2.882812 7.734375 -2.96875 C 9.234375 -4.195312 10.769531 -5.367188 12.34375 -6.484375 C 12.613281 -6.648438 12.878906 -6.785156 13.140625 -6.890625 C 13.398438 -7.003906 13.679688 -7.03125 13.984375 -6.96875 C 14.253906 -6.925781 14.4375 -6.796875 14.53125 -6.578125 Z M 1.359375 9.8125 C 1.742188 10.070312 2.242188 10.03125 2.859375 9.6875 C 3.484375 9.34375 4.078125 8.773438 4.640625 7.984375 C 5.203125 7.203125 5.613281 6.28125 5.875 5.21875 C 6.144531 4.15625 6.117188 3.023438 5.796875 1.828125 C 5.609375 2.015625 5.210938 2.460938 4.609375 3.171875 C 4.003906 3.878906 3.367188 4.6875 2.703125 5.59375 C 2.046875 6.507812 1.554688 7.359375 1.234375 8.140625 C 0.921875 8.929688 0.960938 9.488281 1.359375 9.8125 Z M 1.359375 9.8125 "/></g></g></g><g fill="#e96840" fill-opacity="1"><g transform="translate(119.96258, 190.064181)"><g><path d="M 12.640625 -6.9375 C 12.734375 -6.914062 12.796875 -6.882812 12.828125 -6.84375 C 12.867188 -6.800781 12.914062 -6.722656 12.96875 -6.609375 C 13 -6.484375 12.953125 -6.335938 12.828125 -6.171875 C 12.710938 -6.015625 12.609375 -5.882812 12.515625 -5.78125 C 11.753906 -5.070312 10.867188 -4.648438 9.859375 -4.515625 C 9.285156 -4.429688 8.707031 -4.410156 8.125 -4.453125 C 7.539062 -4.492188 6.972656 -4.632812 6.421875 -4.875 C 6.015625 -5.070312 5.632812 -5.007812 5.28125 -4.6875 C 4.550781 -4.03125 3.789062 -3.394531 3 -2.78125 C 2.601562 -2.476562 2.179688 -2.222656 1.734375 -2.015625 C 1.285156 -1.816406 0.800781 -1.707031 0.28125 -1.6875 C -1.257812 -1.707031 -1.867188 -2.457031 -1.546875 -3.9375 C -1.523438 -4 -1.5 -4.046875 -1.46875 -4.078125 C -1.03125 -5.273438 -0.453125 -6.351562 0.265625 -7.3125 C 0.992188 -8.28125 1.914062 -9.082031 3.03125 -9.71875 C 3.769531 -10.15625 4.5625 -10.320312 5.40625 -10.21875 C 5.625 -10.175781 5.835938 -10.09375 6.046875 -9.96875 C 6.296875 -9.851562 6.394531 -9.660156 6.34375 -9.390625 C 6.320312 -9.304688 6.28125 -9.234375 6.21875 -9.171875 C 6.164062 -9.117188 6.109375 -9.0625 6.046875 -9 C 6.003906 -8.957031 5.953125 -8.925781 5.890625 -8.90625 C 5.835938 -8.894531 5.773438 -8.890625 5.703125 -8.890625 C 5.097656 -8.867188 4.578125 -8.6875 4.140625 -8.34375 C 3.703125 -8.007812 3.304688 -7.632812 2.953125 -7.21875 C 2.546875 -6.757812 2.171875 -6.257812 1.828125 -5.71875 C 1.484375 -5.175781 1.203125 -4.53125 0.984375 -3.78125 C 1.785156 -4.25 2.421875 -4.710938 2.890625 -5.171875 C 2.984375 -5.273438 3.082031 -5.367188 3.1875 -5.453125 C 3.269531 -5.535156 3.351562 -5.609375 3.4375 -5.671875 C 3.84375 -6.046875 4.265625 -6.375 4.703125 -6.65625 C 5.210938 -6.945312 5.710938 -7.09375 6.203125 -7.09375 C 6.703125 -7.09375 7.1875 -6.890625 7.65625 -6.484375 C 8.300781 -5.910156 8.925781 -5.6875 9.53125 -5.8125 C 10.132812 -5.9375 10.703125 -6.148438 11.234375 -6.453125 C 11.765625 -6.773438 12.234375 -6.9375 12.640625 -6.9375 Z M 12.640625 -6.9375 "/></g></g></g><g fill="#e96840" fill-opacity="1"><g transform="translate(131.64282, 190.064181)"><g><path d="M 18.203125 -6.484375 C 18.203125 -6.484375 18.210938 -6.484375 18.234375 -6.484375 C 18.335938 -6.460938 18.4375 -6.425781 18.53125 -6.375 C 18.632812 -6.320312 18.703125 -6.222656 18.734375 -6.078125 C 18.785156 -5.828125 18.710938 -5.625 18.515625 -5.46875 C 17.679688 -4.894531 16.789062 -4.441406 15.84375 -4.109375 C 14.988281 -3.835938 14.125 -3.660156 13.25 -3.578125 C 12.382812 -3.503906 11.507812 -3.507812 10.625 -3.59375 C 9.46875 -3.71875 8.535156 -4.265625 7.828125 -5.234375 C 7.609375 -5.546875 7.382812 -5.851562 7.15625 -6.15625 C 6.9375 -6.457031 6.707031 -6.769531 6.46875 -7.09375 C 6.269531 -7.351562 6.015625 -7.382812 5.703125 -7.1875 C 5.335938 -6.914062 5.007812 -6.613281 4.71875 -6.28125 C 4.425781 -5.945312 4.148438 -5.597656 3.890625 -5.234375 C 3.867188 -5.191406 3.847656 -5.15625 3.828125 -5.125 C 3.722656 -5 3.617188 -4.863281 3.515625 -4.71875 C 3.398438 -4.5 3.265625 -4.296875 3.109375 -4.109375 C 2.835938 -3.804688 2.488281 -3.609375 2.0625 -3.515625 C 1.644531 -3.429688 1.242188 -3.46875 0.859375 -3.625 C 0.566406 -3.769531 0.378906 -3.984375 0.296875 -4.265625 C 0.046875 -5.304688 -0.109375 -6.347656 -0.171875 -7.390625 C -0.171875 -7.960938 0.0859375 -8.300781 0.609375 -8.40625 C 1.210938 -8.539062 1.648438 -8.347656 1.921875 -7.828125 C 1.953125 -7.742188 1.976562 -7.640625 2 -7.515625 C 2.03125 -7.398438 2.066406 -7.285156 2.109375 -7.171875 C 2.160156 -7.054688 2.257812 -6.960938 2.40625 -6.890625 C 2.570312 -7.023438 2.722656 -7.148438 2.859375 -7.265625 C 3.179688 -7.554688 3.492188 -7.832031 3.796875 -8.09375 C 4.160156 -8.394531 4.546875 -8.609375 4.953125 -8.734375 C 5.359375 -8.867188 5.789062 -8.9375 6.25 -8.9375 C 7.320312 -8.9375 8.171875 -8.515625 8.796875 -7.671875 C 8.921875 -7.484375 9.046875 -7.304688 9.171875 -7.140625 C 9.453125 -6.722656 9.742188 -6.320312 10.046875 -5.9375 C 10.523438 -5.3125 11.171875 -4.988281 11.984375 -4.96875 C 12.816406 -4.925781 13.609375 -5 14.359375 -5.1875 C 15.117188 -5.375 15.851562 -5.664062 16.5625 -6.0625 C 16.59375 -6.070312 16.625 -6.09375 16.65625 -6.125 C 16.894531 -6.257812 17.140625 -6.367188 17.390625 -6.453125 C 17.648438 -6.535156 17.921875 -6.546875 18.203125 -6.484375 Z M 18.203125 -6.484375 "/></g></g></g><g fill="#e96840" fill-opacity="1"><g transform="translate(148.65984, 190.064181)"><g><path d="M 18.203125 -6.484375 C 18.203125 -6.484375 18.210938 -6.484375 18.234375 -6.484375 C 18.335938 -6.460938 18.4375 -6.425781 18.53125 -6.375 C 18.632812 -6.320312 18.703125 -6.222656 18.734375 -6.078125 C 18.785156 -5.828125 18.710938 -5.625 18.515625 -5.46875 C 17.679688 -4.894531 16.789062 -4.441406 15.84375 -4.109375 C 14.988281 -3.835938 14.125 -3.660156 13.25 -3.578125 C 12.382812 -3.503906 11.507812 -3.507812 10.625 -3.59375 C 9.46875 -3.71875 8.535156 -4.265625 7.828125 -5.234375 C 7.609375 -5.546875 7.382812 -5.851562 7.15625 -6.15625 C 6.9375 -6.457031 6.707031 -6.769531 6.46875 -7.09375 C 6.269531 -7.351562 6.015625 -7.382812 5.703125 -7.1875 C 5.335938 -6.914062 5.007812 -6.613281 4.71875 -6.28125 C 4.425781 -5.945312 4.148438 -5.597656 3.890625 -5.234375 C 3.867188 -5.191406 3.847656 -5.15625 3.828125 -5.125 C 3.722656 -5 3.617188 -4.863281 3.515625 -4.71875 C 3.398438 -4.5 3.265625 -4.296875 3.109375 -4.109375 C 2.835938 -3.804688 2.488281 -3.609375 2.0625 -3.515625 C 1.644531 -3.429688 1.242188 -3.46875 0.859375 -3.625 C 0.566406 -3.769531 0.378906 -3.984375 0.296875 -4.265625 C 0.046875 -5.304688 -0.109375 -6.347656 -0.171875 -7.390625 C -0.171875 -7.960938 0.0859375 -8.300781 0.609375 -8.40625 C 1.210938 -8.539062 1.648438 -8.347656 1.921875 -7.828125 C 1.953125 -7.742188 1.976562 -7.640625 2 -7.515625 C 2.03125 -7.398438 2.066406 -7.285156 2.109375 -7.171875 C 2.160156 -7.054688 2.257812 -6.960938 2.40625 -6.890625 C 2.570312 -7.023438 2.722656 -7.148438 2.859375 -7.265625 C 3.179688 -7.554688 3.492188 -7.832031 3.796875 -8.09375 C 4.160156 -8.394531 4.546875 -8.609375 4.953125 -8.734375 C 5.359375 -8.867188 5.789062 -8.9375 6.25 -8.9375 C 7.320312 -8.9375 8.171875 -8.515625 8.796875 -7.671875 C 8.921875 -7.484375 9.046875 -7.304688 9.171875 -7.140625 C 9.453125 -6.722656 9.742188 -6.320312 10.046875 -5.9375 C 10.523438 -5.3125 11.171875 -4.988281 11.984375 -4.96875 C 12.816406 -4.925781 13.609375 -5 14.359375 -5.1875 C 15.117188 -5.375 15.851562 -5.664062 16.5625 -6.0625 C 16.59375 -6.070312 16.625 -6.09375 16.65625 -6.125 C 16.894531 -6.257812 17.140625 -6.367188 17.390625 -6.453125 C 17.648438 -6.535156 17.921875 -6.546875 18.203125 -6.484375 Z M 18.203125 -6.484375 "/></g></g></g><g fill="#e96840" fill-opacity="1"><g transform="translate(165.676861, 190.064181)"><g><path d="M 2.9375 -5.390625 C 2.914062 -5.390625 2.898438 -5.390625 2.890625 -5.390625 C 2.890625 -5.390625 2.894531 -5.390625 2.90625 -5.390625 C 2.90625 -5.390625 2.914062 -5.390625 2.9375 -5.390625 Z M 12.59375 -6.78125 C 12.695312 -6.851562 12.859375 -6.929688 13.078125 -7.015625 C 13.296875 -7.097656 13.503906 -7.144531 13.703125 -7.15625 C 13.910156 -7.175781 14.054688 -7.101562 14.140625 -6.9375 C 14.203125 -6.820312 14.21875 -6.707031 14.1875 -6.59375 C 14.15625 -6.476562 14.097656 -6.378906 14.015625 -6.296875 C 13.503906 -5.742188 12.71875 -5.1875 11.65625 -4.625 C 10.59375 -4.0625 9.492188 -3.5625 8.359375 -3.125 C 7.222656 -2.695312 6.273438 -2.421875 5.515625 -2.296875 C 4.648438 -2.140625 3.773438 -2.097656 2.890625 -2.171875 C 1.785156 -2.316406 0.96875 -2.769531 0.4375 -3.53125 C -0.09375 -4.300781 -0.304688 -5.164062 -0.203125 -6.125 C -0.046875 -7.1875 0.4375 -8.03125 1.25 -8.65625 C 2.070312 -9.289062 3.007812 -9.523438 4.0625 -9.359375 C 4.707031 -9.273438 5.296875 -9.039062 5.828125 -8.65625 C 6.390625 -8.195312 6.640625 -7.671875 6.578125 -7.078125 C 6.523438 -6.484375 6.171875 -6.023438 5.515625 -5.703125 C 5.171875 -5.535156 4.789062 -5.429688 4.375 -5.390625 C 3.96875 -5.347656 3.488281 -5.347656 2.9375 -5.390625 C 2.9375 -5.390625 2.921875 -5.390625 2.890625 -5.390625 C 2.867188 -5.390625 2.828125 -5.390625 2.765625 -5.390625 C 2.703125 -5.390625 2.640625 -5.390625 2.578125 -5.390625 C 2.410156 -5.390625 2.300781 -5.34375 2.25 -5.25 C 2.195312 -5.164062 2.195312 -5.050781 2.25 -4.90625 C 2.550781 -4.15625 3.144531 -3.757812 4.03125 -3.71875 C 4.914062 -3.675781 5.921875 -3.84375 7.046875 -4.21875 C 8.179688 -4.59375 9.253906 -5.03125 10.265625 -5.53125 C 11.273438 -6.03125 12.050781 -6.445312 12.59375 -6.78125 Z M 2.90625 -7.671875 C 2.769531 -7.566406 2.675781 -7.445312 2.625 -7.3125 C 2.570312 -7.1875 2.539062 -7.078125 2.53125 -6.984375 C 2.53125 -6.890625 2.546875 -6.832031 2.578125 -6.8125 C 2.617188 -6.789062 2.734375 -6.765625 2.921875 -6.734375 C 3.117188 -6.703125 3.332031 -6.695312 3.5625 -6.71875 C 3.800781 -6.75 3.992188 -6.800781 4.140625 -6.875 C 4.296875 -6.957031 4.347656 -7.097656 4.296875 -7.296875 C 4.203125 -7.578125 4.007812 -7.753906 3.71875 -7.828125 C 3.425781 -7.910156 3.15625 -7.859375 2.90625 -7.671875 Z M 2.90625 -7.671875 "/></g></g></g><g fill="#e96840" fill-opacity="1"><g transform="translate(178.418941, 190.064181)"><g/></g></g><g fill="#e96840" fill-opacity="1"><g transform="translate(189.326933, 190.064181)"><g><path d="M 48.53125 -6.96875 C 48.59375 -6.925781 48.640625 -6.859375 48.671875 -6.765625 C 48.710938 -6.679688 48.734375 -6.597656 48.734375 -6.515625 C 48.765625 -6.304688 48.648438 -6.160156 48.390625 -6.078125 C 48.140625 -6.003906 47.820312 -5.957031 47.4375 -5.9375 C 47.050781 -5.914062 46.664062 -5.90625 46.28125 -5.90625 C 45.789062 -5.90625 45.425781 -5.882812 45.1875 -5.84375 C 44.945312 -5.800781 44.804688 -5.691406 44.765625 -5.515625 C 44.722656 -5.347656 44.722656 -5.0625 44.765625 -4.65625 C 44.773438 -4.4375 44.796875 -4.175781 44.828125 -3.875 C 45.085938 0.519531 45.625 4.878906 46.4375 9.203125 C 46.445312 9.285156 46.46875 9.359375 46.5 9.421875 C 46.53125 9.578125 46.546875 9.738281 46.546875 9.90625 C 46.515625 10.1875 46.347656 10.382812 46.046875 10.5 C 45.742188 10.625 45.421875 10.617188 45.078125 10.484375 C 44.742188 10.359375 44.53125 10.054688 44.4375 9.578125 C 44.3125 8.921875 44.191406 8.269531 44.078125 7.625 C 43.867188 6.738281 43.691406 5.835938 43.546875 4.921875 C 43.023438 1.847656 42.65625 -1.234375 42.4375 -4.328125 C 42.414062 -4.816406 42.332031 -5.117188 42.1875 -5.234375 C 42.039062 -5.359375 41.71875 -5.390625 41.21875 -5.328125 C 40.039062 -5.222656 38.875 -5.101562 37.71875 -4.96875 C 34.519531 -4.519531 31.3125 -4.164062 28.09375 -3.90625 C 28.082031 -3.90625 28.066406 -3.90625 28.046875 -3.90625 C 28.003906 -3.90625 27.960938 -3.90625 27.921875 -3.90625 C 26.847656 -3.925781 26.128906 -3.390625 25.765625 -2.296875 C 24.671875 0.691406 23.359375 3.578125 21.828125 6.359375 C 20.109375 9.515625 18.015625 12.40625 15.546875 15.03125 C 13.828125 16.789062 11.867188 18.226562 9.671875 19.34375 C 7.472656 20.457031 5.207031 21.234375 2.875 21.671875 C 0.550781 22.117188 -1.671875 22.238281 -3.796875 22.03125 C -5.921875 21.820312 -7.769531 21.273438 -9.34375 20.390625 C -10.925781 19.503906 -12.066406 18.285156 -12.765625 16.734375 C -13.472656 15.191406 -13.566406 13.3125 -13.046875 11.09375 C -12.523438 9.070312 -11.5625 7.335938 -10.15625 5.890625 C -8.757812 4.453125 -7.117188 3.242188 -5.234375 2.265625 C -3.359375 1.285156 -1.410156 0.476562 0.609375 -0.15625 C 2.628906 -0.800781 4.539062 -1.34375 6.34375 -1.78125 C 8.988281 -2.445312 11.800781 -3.050781 14.78125 -3.59375 C 17.757812 -4.144531 20.601562 -4.535156 23.3125 -4.765625 C 24.019531 -4.773438 24.492188 -5.128906 24.734375 -5.828125 C 24.898438 -6.285156 25.082031 -6.738281 25.28125 -7.1875 C 25.363281 -7.382812 25.441406 -7.570312 25.515625 -7.75 C 25.898438 -8.6875 26.285156 -9.628906 26.671875 -10.578125 C 27.992188 -13.929688 29.410156 -17.3125 30.921875 -20.71875 C 32.441406 -24.132812 34.148438 -27.410156 36.046875 -30.546875 C 37.953125 -33.679688 40.140625 -36.523438 42.609375 -39.078125 C 43.234375 -39.679688 43.890625 -40.265625 44.578125 -40.828125 C 44.898438 -41.097656 45.347656 -41.300781 45.921875 -41.4375 C 46.503906 -41.582031 47 -41.554688 47.40625 -41.359375 C 47.8125 -41.171875 47.921875 -40.691406 47.734375 -39.921875 C 47.316406 -38.328125 46.957031 -36.707031 46.65625 -35.0625 C 46.351562 -33.425781 46.078125 -31.789062 45.828125 -30.15625 C 45.828125 -30.070312 45.816406 -29.988281 45.796875 -29.90625 C 45.222656 -26.1875 44.867188 -22.679688 44.734375 -19.390625 C 44.609375 -16.109375 44.554688 -12.597656 44.578125 -8.859375 C 44.578125 -8.453125 44.597656 -8.046875 44.640625 -7.640625 C 44.660156 -7.359375 44.800781 -7.207031 45.0625 -7.1875 C 45.507812 -7.15625 45.945312 -7.15625 46.375 -7.1875 C 46.882812 -7.207031 47.390625 -7.207031 47.890625 -7.1875 C 48.109375 -7.15625 48.320312 -7.082031 48.53125 -6.96875 Z M 23.34375 -2.328125 C 23.507812 -2.773438 23.523438 -3.046875 23.390625 -3.140625 C 23.253906 -3.242188 22.96875 -3.265625 22.53125 -3.203125 C 20.375 -2.921875 18.222656 -2.609375 16.078125 -2.265625 C 13.941406 -1.921875 11.820312 -1.5 9.71875 -1 C 9.40625 -0.914062 9.085938 -0.835938 8.765625 -0.765625 C 7.015625 -0.347656 5.128906 0.144531 3.109375 0.71875 C 1.097656 1.300781 -0.851562 2.035156 -2.75 2.921875 C -4.65625 3.816406 -6.304688 4.929688 -7.703125 6.265625 C -9.097656 7.597656 -10.070312 9.207031 -10.625 11.09375 C -11.1875 13.4375 -11.050781 15.335938 -10.21875 16.796875 C -9.394531 18.253906 -8.09375 19.300781 -6.3125 19.9375 C -4.53125 20.570312 -2.519531 20.804688 -0.28125 20.640625 C 1.945312 20.484375 4.171875 19.953125 6.390625 19.046875 C 8.617188 18.148438 10.617188 16.90625 12.390625 15.3125 C 14.847656 12.9375 16.9375 10.273438 18.65625 7.328125 C 19.59375 5.785156 20.4375 4.207031 21.1875 2.59375 C 21.9375 0.976562 22.65625 -0.660156 23.34375 -2.328125 Z M 44.25 -34.4375 C 44.25 -34.476562 44.257812 -34.535156 44.28125 -34.609375 C 44.34375 -34.941406 44.425781 -35.398438 44.53125 -35.984375 C 44.644531 -36.566406 44.722656 -37.09375 44.765625 -37.5625 C 44.828125 -37.96875 44.8125 -38.207031 44.71875 -38.28125 C 44.625 -38.363281 44.410156 -38.203125 44.078125 -37.796875 C 43.867188 -37.554688 43.664062 -37.316406 43.46875 -37.078125 C 42.695312 -36.222656 41.945312 -35.34375 41.21875 -34.4375 C 39.582031 -32.320312 38.054688 -29.945312 36.640625 -27.3125 C 35.222656 -24.675781 33.90625 -21.941406 32.6875 -19.109375 C 31.476562 -16.273438 30.332031 -13.515625 29.25 -10.828125 C 28.75 -9.585938 28.253906 -8.390625 27.765625 -7.234375 C 27.335938 -6.242188 27.175781 -5.648438 27.28125 -5.453125 C 27.382812 -5.265625 27.847656 -5.242188 28.671875 -5.390625 C 28.796875 -5.390625 28.941406 -5.398438 29.109375 -5.421875 C 31.597656 -5.660156 34.078125 -5.929688 36.546875 -6.234375 C 37.617188 -6.359375 38.6875 -6.484375 39.75 -6.609375 C 39.96875 -6.640625 40.179688 -6.664062 40.390625 -6.6875 C 40.753906 -6.738281 41.128906 -6.78125 41.515625 -6.8125 C 41.753906 -6.832031 41.925781 -6.90625 42.03125 -7.03125 C 42.144531 -7.15625 42.203125 -7.359375 42.203125 -7.640625 C 42.203125 -7.816406 42.203125 -8.003906 42.203125 -8.203125 C 42.203125 -8.304688 42.203125 -8.410156 42.203125 -8.515625 C 42.191406 -13.085938 42.300781 -17.382812 42.53125 -21.40625 C 42.769531 -25.4375 43.34375 -29.78125 44.25 -34.4375 Z M 44.25 -34.4375 "/></g></g></g><g fill="#e96840" fill-opacity="1"><g transform="translate(239.150672, 190.064181)"><g><path d="M 17.296875 -6.96875 C 17.421875 -6.945312 17.503906 -6.90625 17.546875 -6.84375 C 17.597656 -6.789062 17.632812 -6.703125 17.65625 -6.578125 C 17.65625 -6.273438 17.375 -5.925781 16.8125 -5.53125 C 16.257812 -5.132812 15.65625 -4.769531 15 -4.4375 C 14.34375 -4.101562 13.875 -3.894531 13.59375 -3.8125 C 12.65625 -3.445312 11.738281 -3.316406 10.84375 -3.421875 C 9.945312 -3.535156 9.164062 -4.007812 8.5 -4.84375 C 8.070312 -5.425781 7.753906 -5.691406 7.546875 -5.640625 C 7.335938 -5.597656 7.078125 -5.34375 6.765625 -4.875 C 6.441406 -4.34375 5.90625 -3.71875 5.15625 -3 C 4.3125 -2.375 3.519531 -2.078125 2.78125 -2.109375 C 2.039062 -2.148438 1.414062 -2.4375 0.90625 -2.96875 C 0.40625 -3.507812 0.0820312 -4.195312 -0.0625 -5.03125 C -0.21875 -5.875 -0.140625 -6.769531 0.171875 -7.71875 C 0.441406 -8.476562 1 -8.789062 1.84375 -8.65625 C 2.0625 -8.625 2.238281 -8.53125 2.375 -8.375 C 2.507812 -8.226562 2.546875 -8.046875 2.484375 -7.828125 C 2.304688 -7.066406 2.238281 -6.316406 2.28125 -5.578125 C 2.257812 -5.085938 2.347656 -4.628906 2.546875 -4.203125 C 2.753906 -3.835938 3.035156 -3.773438 3.390625 -4.015625 C 3.742188 -4.265625 4.097656 -4.617188 4.453125 -5.078125 C 4.804688 -5.546875 5.082031 -5.929688 5.28125 -6.234375 C 5.320312 -6.316406 5.363281 -6.390625 5.40625 -6.453125 C 5.476562 -6.554688 5.554688 -6.664062 5.640625 -6.78125 C 5.890625 -7.164062 6.148438 -7.53125 6.421875 -7.875 C 6.910156 -8.445312 7.535156 -8.691406 8.296875 -8.609375 C 8.929688 -8.566406 9.382812 -8.242188 9.65625 -7.640625 C 10.175781 -6.296875 10.945312 -5.554688 11.96875 -5.421875 C 12.988281 -5.296875 14.097656 -5.617188 15.296875 -6.390625 C 15.597656 -6.617188 15.910156 -6.789062 16.234375 -6.90625 C 16.554688 -7.03125 16.910156 -7.050781 17.296875 -6.96875 Z M 17.296875 -6.96875 "/></g></g></g><g fill="#e96840" fill-opacity="1"><g transform="translate(254.88521, 190.064181)"><g><path d="M 12.171875 -6.90625 C 12.515625 -6.84375 12.703125 -6.65625 12.734375 -6.34375 C 12.773438 -6.03125 12.617188 -5.710938 12.265625 -5.390625 C 11.910156 -5.085938 11.570312 -4.800781 11.25 -4.53125 C 10.445312 -3.875 9.582031 -3.164062 8.65625 -2.40625 C 7.925781 -1.820312 7.257812 -1.175781 6.65625 -0.46875 C 6.195312 0.0078125 5.859375 0.550781 5.640625 1.15625 C 5.398438 1.945312 4.992188 2.65625 4.421875 3.28125 C 4.097656 3.644531 3.726562 3.867188 3.3125 3.953125 C 2.90625 4.035156 2.476562 4.015625 2.03125 3.890625 C 1.8125 3.835938 1.644531 3.722656 1.53125 3.546875 C 1.414062 3.367188 1.394531 3.171875 1.46875 2.953125 C 1.539062 2.609375 1.664062 2.285156 1.84375 1.984375 C 2.113281 1.597656 2.398438 1.222656 2.703125 0.859375 C 2.722656 0.816406 2.75 0.78125 2.78125 0.75 C 3.84375 -0.570312 3.910156 -1.921875 2.984375 -3.296875 C 2.753906 -3.597656 2.5 -3.890625 2.21875 -4.171875 C 2.132812 -4.273438 2.039062 -4.378906 1.9375 -4.484375 C 1.78125 -4.679688 1.609375 -4.875 1.421875 -5.0625 C 1.078125 -5.414062 0.742188 -5.796875 0.421875 -6.203125 C -0.484375 -7.484375 -0.421875 -8.707031 0.609375 -9.875 C 1.492188 -10.9375 2.601562 -11.664062 3.9375 -12.0625 C 4.769531 -12.300781 5.570312 -12.226562 6.34375 -11.84375 C 7.09375 -11.4375 7.4375 -10.8125 7.375 -9.96875 C 7.289062 -9.40625 7.007812 -9.070312 6.53125 -8.96875 C 5.90625 -8.84375 5.457031 -9.035156 5.1875 -9.546875 C 5.101562 -9.742188 5.039062 -9.914062 5 -10.0625 C 4.96875 -10.21875 4.921875 -10.335938 4.859375 -10.421875 C 4.796875 -10.503906 4.691406 -10.53125 4.546875 -10.5 C 4.410156 -10.46875 4.191406 -10.363281 3.890625 -10.1875 C 3.421875 -9.90625 3.015625 -9.539062 2.671875 -9.09375 C 2.117188 -8.425781 2.085938 -7.71875 2.578125 -6.96875 C 2.742188 -6.726562 2.925781 -6.503906 3.125 -6.296875 C 3.351562 -6.054688 3.566406 -5.816406 3.765625 -5.578125 C 4.171875 -5.171875 4.554688 -4.753906 4.921875 -4.328125 C 5.285156 -3.910156 5.597656 -3.457031 5.859375 -2.96875 C 6.066406 -3 6.421875 -3.1875 6.921875 -3.53125 C 7.429688 -3.882812 7.984375 -4.285156 8.578125 -4.734375 C 9.171875 -5.191406 9.707031 -5.601562 10.1875 -5.96875 C 10.59375 -6.289062 10.878906 -6.515625 11.046875 -6.640625 C 11.179688 -6.734375 11.347656 -6.804688 11.546875 -6.859375 C 11.753906 -6.910156 11.960938 -6.925781 12.171875 -6.90625 Z M 12.171875 -6.90625 "/></g></g></g><g fill="#e96840" fill-opacity="1"><g transform="translate(265.765634, 190.064181)"><g><path d="M 10.921875 -6.8125 C 11.128906 -6.976562 11.28125 -7.035156 11.375 -6.984375 C 11.476562 -6.929688 11.550781 -6.828125 11.59375 -6.671875 C 11.632812 -6.523438 11.65625 -6.378906 11.65625 -6.234375 C 11.632812 -5.960938 11.578125 -5.695312 11.484375 -5.4375 C 11.398438 -5.1875 11.335938 -5.019531 11.296875 -4.9375 C 11.265625 -4.914062 11.25 -4.90625 11.25 -4.90625 C 10.976562 -4.195312 10.539062 -3.5 9.9375 -2.8125 C 9.34375 -2.125 8.640625 -1.566406 7.828125 -1.140625 C 7.023438 -0.722656 6.164062 -0.539062 5.25 -0.59375 C 3.976562 -0.738281 2.960938 -1.226562 2.203125 -2.0625 C 1.441406 -2.90625 0.867188 -3.90625 0.484375 -5.0625 C 0.109375 -6.226562 -0.144531 -7.378906 -0.28125 -8.515625 C -0.613281 -11.304688 -0.710938 -14.117188 -0.578125 -16.953125 C -0.546875 -17.640625 -0.523438 -18.328125 -0.515625 -19.015625 C -0.515625 -19.253906 -0.515625 -19.492188 -0.515625 -19.734375 C -0.515625 -20.191406 -0.722656 -20.421875 -1.140625 -20.421875 C -1.597656 -20.421875 -2.046875 -20.425781 -2.484375 -20.4375 C -2.972656 -20.4375 -3.46875 -20.4375 -3.96875 -20.4375 C -4.03125 -20.4375 -4.097656 -20.4375 -4.171875 -20.4375 C -4.523438 -20.40625 -4.851562 -20.46875 -5.15625 -20.625 C -5.289062 -20.6875 -5.40625 -20.769531 -5.5 -20.875 C -5.59375 -20.988281 -5.640625 -21.128906 -5.640625 -21.296875 C -5.617188 -21.453125 -5.550781 -21.578125 -5.4375 -21.671875 C -5.332031 -21.765625 -5.195312 -21.8125 -5.03125 -21.8125 C -4.445312 -21.820312 -3.859375 -21.828125 -3.265625 -21.828125 C -2.910156 -21.828125 -2.554688 -21.828125 -2.203125 -21.828125 C -1.742188 -21.828125 -1.28125 -21.851562 -0.8125 -21.90625 C -0.550781 -21.925781 -0.390625 -22.078125 -0.328125 -22.359375 C -0.296875 -22.703125 -0.265625 -23.039062 -0.234375 -23.375 C -0.160156 -24.488281 -0.0820312 -25.601562 0 -26.71875 C 0.0625 -27.488281 0.117188 -28.25 0.171875 -29 C 0.171875 -29.019531 0.171875 -29.039062 0.171875 -29.0625 C 0.171875 -29.21875 0.1875 -29.367188 0.21875 -29.515625 C 0.375 -30.160156 0.804688 -30.460938 1.515625 -30.421875 C 2.117188 -30.378906 2.457031 -30.046875 2.53125 -29.421875 C 2.539062 -29.015625 2.539062 -28.601562 2.53125 -28.1875 C 2.53125 -28.019531 2.53125 -27.847656 2.53125 -27.671875 C 2.53125 -27.671875 2.519531 -27.671875 2.5 -27.671875 C 2.46875 -27.203125 2.441406 -26.734375 2.421875 -26.265625 C 2.335938 -25.210938 2.28125 -24.148438 2.25 -23.078125 C 2.207031 -22.515625 2.253906 -22.160156 2.390625 -22.015625 C 2.535156 -21.878906 2.910156 -21.816406 3.515625 -21.828125 C 4.660156 -21.816406 5.796875 -21.8125 6.921875 -21.8125 C 7.734375 -21.8125 8.546875 -21.800781 9.359375 -21.78125 C 9.429688 -21.78125 9.507812 -21.78125 9.59375 -21.78125 C 9.789062 -21.800781 9.976562 -21.796875 10.15625 -21.765625 C 10.34375 -21.734375 10.53125 -21.664062 10.71875 -21.5625 C 10.769531 -21.507812 10.820312 -21.453125 10.875 -21.390625 C 10.925781 -21.328125 10.96875 -21.242188 11 -21.140625 C 11 -21.046875 10.960938 -20.960938 10.890625 -20.890625 C 10.828125 -20.828125 10.769531 -20.78125 10.71875 -20.75 C 10.351562 -20.539062 9.96875 -20.457031 9.5625 -20.5 C 9.5 -20.5 9.429688 -20.5 9.359375 -20.5 C 8.140625 -20.5 6.929688 -20.488281 5.734375 -20.46875 C 5.066406 -20.445312 4.390625 -20.4375 3.703125 -20.4375 C 3.660156 -20.4375 3.625 -20.4375 3.59375 -20.4375 C 3.28125 -20.4375 2.96875 -20.429688 2.65625 -20.421875 C 2.320312 -20.367188 2.125 -20.179688 2.0625 -19.859375 C 2.019531 -19.679688 2 -19.503906 2 -19.328125 C 1.925781 -17.546875 1.894531 -15.757812 1.90625 -13.96875 C 1.914062 -12.175781 2.03125 -10.398438 2.25 -8.640625 C 2.4375 -7.222656 2.804688 -5.863281 3.359375 -4.5625 C 3.671875 -3.851562 4.039062 -3.296875 4.46875 -2.890625 C 4.90625 -2.492188 5.394531 -2.328125 5.9375 -2.390625 C 6.957031 -2.554688 7.742188 -2.914062 8.296875 -3.46875 C 8.847656 -4.019531 9.320312 -4.617188 9.71875 -5.265625 C 10.082031 -5.890625 10.484375 -6.40625 10.921875 -6.8125 Z M 10.921875 -6.8125 "/></g></g></g><g fill="#e96840" fill-opacity="1"><g transform="translate(275.84623, 190.064181)"><g><path d="M 10.046875 -6.90625 C 10.160156 -6.84375 10.210938 -6.734375 10.203125 -6.578125 C 10.191406 -6.429688 10.144531 -6.300781 10.0625 -6.1875 C 9.4375 -5.25 8.765625 -4.421875 8.046875 -3.703125 C 7.335938 -2.992188 6.550781 -2.460938 5.6875 -2.109375 C 4.832031 -1.753906 3.847656 -1.65625 2.734375 -1.8125 C 1.984375 -1.925781 1.421875 -2.175781 1.046875 -2.5625 C 0.671875 -2.945312 0.390625 -3.492188 0.203125 -4.203125 C -0.0976562 -5.316406 -0.164062 -6.460938 0 -7.640625 C 0.132812 -8.316406 0.554688 -8.671875 1.265625 -8.703125 C 1.898438 -8.703125 2.242188 -8.414062 2.296875 -7.84375 C 2.316406 -7.375 2.316406 -6.910156 2.296875 -6.453125 C 2.296875 -6.390625 2.296875 -6.332031 2.296875 -6.28125 C 2.265625 -5.019531 2.472656 -4.15625 2.921875 -3.6875 C 3.367188 -3.226562 3.945312 -3.109375 4.65625 -3.328125 C 5.375 -3.546875 6.140625 -4.050781 6.953125 -4.84375 C 7.054688 -4.945312 7.179688 -5.082031 7.328125 -5.25 C 7.484375 -5.425781 7.648438 -5.601562 7.828125 -5.78125 C 8.085938 -6.050781 8.300781 -6.273438 8.46875 -6.453125 C 8.976562 -6.960938 9.503906 -7.113281 10.046875 -6.90625 Z M 1.09375 -10.734375 C 0.53125 -10.765625 0.207031 -11.066406 0.125 -11.640625 C 0.0625 -12.078125 0.128906 -12.5 0.328125 -12.90625 C 0.515625 -13.257812 0.8125 -13.5 1.21875 -13.625 C 1.632812 -13.757812 2.03125 -13.722656 2.40625 -13.515625 C 2.539062 -13.441406 2.632812 -13.335938 2.6875 -13.203125 C 2.75 -13.066406 2.773438 -12.960938 2.765625 -12.890625 C 2.742188 -11.429688 2.1875 -10.710938 1.09375 -10.734375 Z M 1.09375 -10.734375 "/></g></g></g><g fill="#e96840" fill-opacity="1"><g transform="translate(284.299568, 190.064181)"><g><path d="M 18.203125 -6.484375 C 18.203125 -6.484375 18.210938 -6.484375 18.234375 -6.484375 C 18.335938 -6.460938 18.4375 -6.425781 18.53125 -6.375 C 18.632812 -6.320312 18.703125 -6.222656 18.734375 -6.078125 C 18.785156 -5.828125 18.710938 -5.625 18.515625 -5.46875 C 17.679688 -4.894531 16.789062 -4.441406 15.84375 -4.109375 C 14.988281 -3.835938 14.125 -3.660156 13.25 -3.578125 C 12.382812 -3.503906 11.507812 -3.507812 10.625 -3.59375 C 9.46875 -3.71875 8.535156 -4.265625 7.828125 -5.234375 C 7.609375 -5.546875 7.382812 -5.851562 7.15625 -6.15625 C 6.9375 -6.457031 6.707031 -6.769531 6.46875 -7.09375 C 6.269531 -7.351562 6.015625 -7.382812 5.703125 -7.1875 C 5.335938 -6.914062 5.007812 -6.613281 4.71875 -6.28125 C 4.425781 -5.945312 4.148438 -5.597656 3.890625 -5.234375 C 3.867188 -5.191406 3.847656 -5.15625 3.828125 -5.125 C 3.722656 -5 3.617188 -4.863281 3.515625 -4.71875 C 3.398438 -4.5 3.265625 -4.296875 3.109375 -4.109375 C 2.835938 -3.804688 2.488281 -3.609375 2.0625 -3.515625 C 1.644531 -3.429688 1.242188 -3.46875 0.859375 -3.625 C 0.566406 -3.769531 0.378906 -3.984375 0.296875 -4.265625 C 0.046875 -5.304688 -0.109375 -6.347656 -0.171875 -7.390625 C -0.171875 -7.960938 0.0859375 -8.300781 0.609375 -8.40625 C 1.210938 -8.539062 1.648438 -8.347656 1.921875 -7.828125 C 1.953125 -7.742188 1.976562 -7.640625 2 -7.515625 C 2.03125 -7.398438 2.066406 -7.285156 2.109375 -7.171875 C 2.160156 -7.054688 2.257812 -6.960938 2.40625 -6.890625 C 2.570312 -7.023438 2.722656 -7.148438 2.859375 -7.265625 C 3.179688 -7.554688 3.492188 -7.832031 3.796875 -8.09375 C 4.160156 -8.394531 4.546875 -8.609375 4.953125 -8.734375 C 5.359375 -8.867188 5.789062 -8.9375 6.25 -8.9375 C 7.320312 -8.9375 8.171875 -8.515625 8.796875 -7.671875 C 8.921875 -7.484375 9.046875 -7.304688 9.171875 -7.140625 C 9.453125 -6.722656 9.742188 -6.320312 10.046875 -5.9375 C 10.523438 -5.3125 11.171875 -4.988281 11.984375 -4.96875 C 12.816406 -4.925781 13.609375 -5 14.359375 -5.1875 C 15.117188 -5.375 15.851562 -5.664062 16.5625 -6.0625 C 16.59375 -6.070312 16.625 -6.09375 16.65625 -6.125 C 16.894531 -6.257812 17.140625 -6.367188 17.390625 -6.453125 C 17.648438 -6.535156 17.921875 -6.546875 18.203125 -6.484375 Z M 18.203125 -6.484375 "/></g></g></g><g fill="#e96840" fill-opacity="1"><g transform="translate(83.783796, 234.764677)"><g><path d="M 4.703125 -1.78125 C 4.703125 -1.195312 4.488281 -0.738281 4.0625 -0.40625 C 3.632812 -0.0703125 3.050781 0.09375 2.3125 0.09375 C 1.519531 0.09375 0.910156 -0.0078125 0.484375 -0.21875 L 0.484375 -0.96875 C 0.765625 -0.851562 1.066406 -0.757812 1.390625 -0.6875 C 1.710938 -0.625 2.03125 -0.59375 2.34375 -0.59375 C 2.863281 -0.59375 3.253906 -0.691406 3.515625 -0.890625 C 3.785156 -1.085938 3.921875 -1.359375 3.921875 -1.703125 C 3.921875 -1.941406 3.875 -2.132812 3.78125 -2.28125 C 3.6875 -2.425781 3.53125 -2.5625 3.3125 -2.6875 C 3.09375 -2.8125 2.757812 -2.957031 2.3125 -3.125 C 1.6875 -3.34375 1.238281 -3.601562 0.96875 -3.90625 C 0.707031 -4.21875 0.578125 -4.617188 0.578125 -5.109375 C 0.578125 -5.628906 0.769531 -6.039062 1.15625 -6.34375 C 1.539062 -6.644531 2.054688 -6.796875 2.703125 -6.796875 C 3.367188 -6.796875 3.976562 -6.675781 4.53125 -6.4375 L 4.296875 -5.75 C 3.742188 -5.988281 3.203125 -6.109375 2.671875 -6.109375 C 2.265625 -6.109375 1.941406 -6.019531 1.703125 -5.84375 C 1.472656 -5.664062 1.359375 -5.414062 1.359375 -5.09375 C 1.359375 -4.863281 1.398438 -4.675781 1.484375 -4.53125 C 1.578125 -4.382812 1.722656 -4.25 1.921875 -4.125 C 2.128906 -4 2.441406 -3.859375 2.859375 -3.703125 C 3.554688 -3.453125 4.035156 -3.179688 4.296875 -2.890625 C 4.566406 -2.609375 4.703125 -2.238281 4.703125 -1.78125 Z M 4.703125 -1.78125 "/></g></g></g><g fill="#e96840" fill-opacity="1"><g transform="translate(91.436642, 234.764677)"><g><path d="M 4.65625 0 L 0.921875 0 L 0.921875 -6.703125 L 4.65625 -6.703125 L 4.65625 -6.015625 L 1.703125 -6.015625 L 1.703125 -3.859375 L 4.484375 -3.859375 L 4.484375 -3.15625 L 1.703125 -3.15625 L 1.703125 -0.703125 L 4.65625 -0.703125 Z M 4.65625 0 "/></g></g></g><g fill="#e96840" fill-opacity="1"><g transform="translate(99.158245, 234.764677)"><g><path d="M 6.15625 0 L 5.265625 0 L 1.609375 -5.625 L 1.5625 -5.625 C 1.613281 -4.96875 1.640625 -4.363281 1.640625 -3.8125 L 1.640625 0 L 0.921875 0 L 0.921875 -6.703125 L 1.796875 -6.703125 L 5.453125 -1.09375 L 5.5 -1.09375 C 5.488281 -1.175781 5.472656 -1.441406 5.453125 -1.890625 C 5.429688 -2.335938 5.421875 -2.660156 5.421875 -2.859375 L 5.421875 -6.703125 L 6.15625 -6.703125 Z M 6.15625 0 "/></g></g></g><g fill="#e96840" fill-opacity="1"><g transform="translate(108.7361, 234.764677)"><g><path d="M 0.921875 0 L 0.921875 -6.703125 L 1.703125 -6.703125 L 1.703125 0 Z M 0.921875 0 "/></g></g></g><g fill="#e96840" fill-opacity="1"><g transform="translate(113.854356, 234.764677)"><g><path d="M 6.734375 -3.359375 C 6.734375 -2.285156 6.460938 -1.441406 5.921875 -0.828125 C 5.378906 -0.210938 4.625 0.09375 3.65625 0.09375 C 2.675781 0.09375 1.914062 -0.207031 1.375 -0.8125 C 0.84375 -1.414062 0.578125 -2.269531 0.578125 -3.375 C 0.578125 -4.457031 0.84375 -5.300781 1.375 -5.90625 C 1.914062 -6.507812 2.679688 -6.8125 3.671875 -6.8125 C 4.628906 -6.8125 5.378906 -6.503906 5.921875 -5.890625 C 6.460938 -5.273438 6.734375 -4.429688 6.734375 -3.359375 Z M 1.40625 -3.359375 C 1.40625 -2.453125 1.597656 -1.765625 1.984375 -1.296875 C 2.367188 -0.828125 2.925781 -0.59375 3.65625 -0.59375 C 4.40625 -0.59375 4.96875 -0.828125 5.34375 -1.296875 C 5.726562 -1.765625 5.921875 -2.453125 5.921875 -3.359375 C 5.921875 -4.265625 5.726562 -4.945312 5.34375 -5.40625 C 4.96875 -5.875 4.410156 -6.109375 3.671875 -6.109375 C 2.929688 -6.109375 2.367188 -5.875 1.984375 -5.40625 C 1.597656 -4.9375 1.40625 -4.253906 1.40625 -3.359375 Z M 1.40625 -3.359375 "/></g></g></g><g fill="#e96840" fill-opacity="1"><g transform="translate(123.66597, 234.764677)"><g><path d="M 1.703125 -2.78125 L 1.703125 0 L 0.921875 0 L 0.921875 -6.703125 L 2.765625 -6.703125 C 3.585938 -6.703125 4.191406 -6.546875 4.578125 -6.234375 C 4.972656 -5.921875 5.171875 -5.445312 5.171875 -4.8125 C 5.171875 -3.925781 4.722656 -3.328125 3.828125 -3.015625 L 5.640625 0 L 4.71875 0 L 3.09375 -2.78125 Z M 1.703125 -3.453125 L 2.765625 -3.453125 C 3.316406 -3.453125 3.71875 -3.5625 3.96875 -3.78125 C 4.226562 -4 4.359375 -4.328125 4.359375 -4.765625 C 4.359375 -5.210938 4.226562 -5.53125 3.96875 -5.71875 C 3.707031 -5.914062 3.289062 -6.015625 2.71875 -6.015625 L 1.703125 -6.015625 Z M 1.703125 -3.453125 "/></g></g></g><g fill="#e96840" fill-opacity="1"><g transform="translate(131.969651, 234.764677)"><g/></g></g><g fill="#e96840" fill-opacity="1"><g transform="translate(136.909149, 234.764677)"><g><path d="M 1.703125 -2.78125 L 1.703125 0 L 0.921875 0 L 0.921875 -6.703125 L 2.765625 -6.703125 C 3.585938 -6.703125 4.191406 -6.546875 4.578125 -6.234375 C 4.972656 -5.921875 5.171875 -5.445312 5.171875 -4.8125 C 5.171875 -3.925781 4.722656 -3.328125 3.828125 -3.015625 L 5.640625 0 L 4.71875 0 L 3.09375 -2.78125 Z M 1.703125 -3.453125 L 2.765625 -3.453125 C 3.316406 -3.453125 3.71875 -3.5625 3.96875 -3.78125 C 4.226562 -4 4.359375 -4.328125 4.359375 -4.765625 C 4.359375 -5.210938 4.226562 -5.53125 3.96875 -5.71875 C 3.707031 -5.914062 3.289062 -6.015625 2.71875 -6.015625 L 1.703125 -6.015625 Z M 1.703125 -3.453125 "/></g></g></g><g fill="#e96840" fill-opacity="1"><g transform="translate(145.212833, 234.764677)"><g><path d="M 4.65625 0 L 0.921875 0 L 0.921875 -6.703125 L 4.65625 -6.703125 L 4.65625 -6.015625 L 1.703125 -6.015625 L 1.703125 -3.859375 L 4.484375 -3.859375 L 4.484375 -3.15625 L 1.703125 -3.15625 L 1.703125 -0.703125 L 4.65625 -0.703125 Z M 4.65625 0 "/></g></g></g><g fill="#e96840" fill-opacity="1"><g transform="translate(152.934436, 234.764677)"><g><path d="M 5.140625 0 L 4.296875 -2.125 L 1.609375 -2.125 L 0.78125 0 L 0 0 L 2.65625 -6.734375 L 3.3125 -6.734375 L 5.9375 0 Z M 4.0625 -2.828125 L 3.28125 -4.90625 C 3.175781 -5.175781 3.070312 -5.5 2.96875 -5.875 C 2.894531 -5.582031 2.796875 -5.257812 2.671875 -4.90625 L 1.890625 -2.828125 Z M 4.0625 -2.828125 "/></g></g></g><g fill="#e96840" fill-opacity="1"><g transform="translate(161.37562, 234.764677)"><g><path d="M 0.921875 0 L 0.921875 -6.703125 L 1.703125 -6.703125 L 1.703125 -0.703125 L 4.65625 -0.703125 L 4.65625 0 Z M 0.921875 0 "/></g></g></g><g fill="#e96840" fill-opacity="1"><g transform="translate(168.748888, 234.764677)"><g/></g></g><g fill="#e96840" fill-opacity="1"><g transform="translate(173.688387, 234.764677)"><g><path d="M 4.65625 0 L 0.921875 0 L 0.921875 -6.703125 L 4.65625 -6.703125 L 4.65625 -6.015625 L 1.703125 -6.015625 L 1.703125 -3.859375 L 4.484375 -3.859375 L 4.484375 -3.15625 L 1.703125 -3.15625 L 1.703125 -0.703125 L 4.65625 -0.703125 Z M 4.65625 0 "/></g></g></g><g fill="#e96840" fill-opacity="1"><g transform="translate(181.409984, 234.764677)"><g><path d="M 4.703125 -1.78125 C 4.703125 -1.195312 4.488281 -0.738281 4.0625 -0.40625 C 3.632812 -0.0703125 3.050781 0.09375 2.3125 0.09375 C 1.519531 0.09375 0.910156 -0.0078125 0.484375 -0.21875 L 0.484375 -0.96875 C 0.765625 -0.851562 1.066406 -0.757812 1.390625 -0.6875 C 1.710938 -0.625 2.03125 -0.59375 2.34375 -0.59375 C 2.863281 -0.59375 3.253906 -0.691406 3.515625 -0.890625 C 3.785156 -1.085938 3.921875 -1.359375 3.921875 -1.703125 C 3.921875 -1.941406 3.875 -2.132812 3.78125 -2.28125 C 3.6875 -2.425781 3.53125 -2.5625 3.3125 -2.6875 C 3.09375 -2.8125 2.757812 -2.957031 2.3125 -3.125 C 1.6875 -3.34375 1.238281 -3.601562 0.96875 -3.90625 C 0.707031 -4.21875 0.578125 -4.617188 0.578125 -5.109375 C 0.578125 -5.628906 0.769531 -6.039062 1.15625 -6.34375 C 1.539062 -6.644531 2.054688 -6.796875 2.703125 -6.796875 C 3.367188 -6.796875 3.976562 -6.675781 4.53125 -6.4375 L 4.296875 -5.75 C 3.742188 -5.988281 3.203125 -6.109375 2.671875 -6.109375 C 2.265625 -6.109375 1.941406 -6.019531 1.703125 -5.84375 C 1.472656 -5.664062 1.359375 -5.414062 1.359375 -5.09375 C 1.359375 -4.863281 1.398438 -4.675781 1.484375 -4.53125 C 1.578125 -4.382812 1.722656 -4.25 1.921875 -4.125 C 2.128906 -4 2.441406 -3.859375 2.859375 -3.703125 C 3.554688 -3.453125 4.035156 -3.179688 4.296875 -2.890625 C 4.566406 -2.609375 4.703125 -2.238281 4.703125 -1.78125 Z M 4.703125 -1.78125 "/></g></g></g><g fill="#e96840" fill-opacity="1"><g transform="translate(189.062831, 234.764677)"><g><path d="M 2.984375 0 L 2.203125 0 L 2.203125 -6.015625 L 0.078125 -6.015625 L 0.078125 -6.703125 L 5.109375 -6.703125 L 5.109375 -6.015625 L 2.984375 -6.015625 Z M 2.984375 0 "/></g></g></g><g fill="#e96840" fill-opacity="1"><g transform="translate(196.756933, 234.764677)"><g><path d="M 5.140625 0 L 4.296875 -2.125 L 1.609375 -2.125 L 0.78125 0 L 0 0 L 2.65625 -6.734375 L 3.3125 -6.734375 L 5.9375 0 Z M 4.0625 -2.828125 L 3.28125 -4.90625 C 3.175781 -5.175781 3.070312 -5.5 2.96875 -5.875 C 2.894531 -5.582031 2.796875 -5.257812 2.671875 -4.90625 L 1.890625 -2.828125 Z M 4.0625 -2.828125 "/></g></g></g><g fill="#e96840" fill-opacity="1"><g transform="translate(205.198118, 234.764677)"><g><path d="M 2.984375 0 L 2.203125 0 L 2.203125 -6.015625 L 0.078125 -6.015625 L 0.078125 -6.703125 L 5.109375 -6.703125 L 5.109375 -6.015625 L 2.984375 -6.015625 Z M 2.984375 0 "/></g></g></g><g fill="#e96840" fill-opacity="1"><g transform="translate(212.892221, 234.764677)"><g><path d="M 4.65625 0 L 0.921875 0 L 0.921875 -6.703125 L 4.65625 -6.703125 L 4.65625 -6.015625 L 1.703125 -6.015625 L 1.703125 -3.859375 L 4.484375 -3.859375 L 4.484375 -3.15625 L 1.703125 -3.15625 L 1.703125 -0.703125 L 4.65625 -0.703125 Z M 4.65625 0 "/></g></g></g><g fill="#e96840" fill-opacity="1"><g transform="translate(220.613823, 234.764677)"><g/></g></g><g fill="#e96840" fill-opacity="1"><g transform="translate(225.553322, 234.764677)"><g><path d="M 4.703125 -1.78125 C 4.703125 -1.195312 4.488281 -0.738281 4.0625 -0.40625 C 3.632812 -0.0703125 3.050781 0.09375 2.3125 0.09375 C 1.519531 0.09375 0.910156 -0.0078125 0.484375 -0.21875 L 0.484375 -0.96875 C 0.765625 -0.851562 1.066406 -0.757812 1.390625 -0.6875 C 1.710938 -0.625 2.03125 -0.59375 2.34375 -0.59375 C 2.863281 -0.59375 3.253906 -0.691406 3.515625 -0.890625 C 3.785156 -1.085938 3.921875 -1.359375 3.921875 -1.703125 C 3.921875 -1.941406 3.875 -2.132812 3.78125 -2.28125 C 3.6875 -2.425781 3.53125 -2.5625 3.3125 -2.6875 C 3.09375 -2.8125 2.757812 -2.957031 2.3125 -3.125 C 1.6875 -3.34375 1.238281 -3.601562 0.96875 -3.90625 C 0.707031 -4.21875 0.578125 -4.617188 0.578125 -5.109375 C 0.578125 -5.628906 0.769531 -6.039062 1.15625 -6.34375 C 1.539062 -6.644531 2.054688 -6.796875 2.703125 -6.796875 C 3.367188 -6.796875 3.976562 -6.675781 4.53125 -6.4375 L 4.296875 -5.75 C 3.742188 -5.988281 3.203125 -6.109375 2.671875 -6.109375 C 2.265625 -6.109375 1.941406 -6.019531 1.703125 -5.84375 C 1.472656 -5.664062 1.359375 -5.414062 1.359375 -5.09375 C 1.359375 -4.863281 1.398438 -4.675781 1.484375 -4.53125 C 1.578125 -4.382812 1.722656 -4.25 1.921875 -4.125 C 2.128906 -4 2.441406 -3.859375 2.859375 -3.703125 C 3.554688 -3.453125 4.035156 -3.179688 4.296875 -2.890625 C 4.566406 -2.609375 4.703125 -2.238281 4.703125 -1.78125 Z M 4.703125 -1.78125 "/></g></g></g><g fill="#e96840" fill-opacity="1"><g transform="translate(233.206169, 234.764677)"><g><path d="M 5.171875 -4.75 C 5.171875 -4.070312 4.9375 -3.550781 4.46875 -3.1875 C 4.007812 -2.820312 3.347656 -2.640625 2.484375 -2.640625 L 1.703125 -2.640625 L 1.703125 0 L 0.921875 0 L 0.921875 -6.703125 L 2.65625 -6.703125 C 4.332031 -6.703125 5.171875 -6.050781 5.171875 -4.75 Z M 1.703125 -3.3125 L 2.40625 -3.3125 C 3.09375 -3.3125 3.585938 -3.421875 3.890625 -3.640625 C 4.203125 -3.859375 4.359375 -4.21875 4.359375 -4.71875 C 4.359375 -5.15625 4.210938 -5.484375 3.921875 -5.703125 C 3.640625 -5.921875 3.191406 -6.03125 2.578125 -6.03125 L 1.703125 -6.03125 Z M 1.703125 -3.3125 "/></g></g></g><g fill="#e96840" fill-opacity="1"><g transform="translate(241.358607, 234.764677)"><g><path d="M 4.65625 0 L 0.921875 0 L 0.921875 -6.703125 L 4.65625 -6.703125 L 4.65625 -6.015625 L 1.703125 -6.015625 L 1.703125 -3.859375 L 4.484375 -3.859375 L 4.484375 -3.15625 L 1.703125 -3.15625 L 1.703125 -0.703125 L 4.65625 -0.703125 Z M 4.65625 0 "/></g></g></g><g fill="#e96840" fill-opacity="1"><g transform="translate(249.08021, 234.764677)"><g><path d="M 3.796875 -6.109375 C 3.054688 -6.109375 2.472656 -5.859375 2.046875 -5.359375 C 1.617188 -4.867188 1.40625 -4.203125 1.40625 -3.359375 C 1.40625 -2.472656 1.609375 -1.789062 2.015625 -1.3125 C 2.429688 -0.832031 3.019531 -0.59375 3.78125 -0.59375 C 4.25 -0.59375 4.785156 -0.679688 5.390625 -0.859375 L 5.390625 -0.171875 C 4.921875 0.00390625 4.34375 0.09375 3.65625 0.09375 C 2.675781 0.09375 1.914062 -0.203125 1.375 -0.796875 C 0.84375 -1.398438 0.578125 -2.253906 0.578125 -3.359375 C 0.578125 -4.046875 0.703125 -4.648438 0.953125 -5.171875 C 1.210938 -5.691406 1.585938 -6.09375 2.078125 -6.375 C 2.566406 -6.65625 3.140625 -6.796875 3.796875 -6.796875 C 4.503906 -6.796875 5.117188 -6.671875 5.640625 -6.421875 L 5.3125 -5.75 C 4.800781 -5.988281 4.296875 -6.109375 3.796875 -6.109375 Z M 3.796875 -6.109375 "/></g></g></g><g fill="#e96840" fill-opacity="1"><g transform="translate(257.503061, 234.764677)"><g><path d="M 0.921875 0 L 0.921875 -6.703125 L 1.703125 -6.703125 L 1.703125 0 Z M 0.921875 0 "/></g></g></g><g fill="#e96840" fill-opacity="1"><g transform="translate(262.621317, 234.764677)"><g><path d="M 5.140625 0 L 4.296875 -2.125 L 1.609375 -2.125 L 0.78125 0 L 0 0 L 2.65625 -6.734375 L 3.3125 -6.734375 L 5.9375 0 Z M 4.0625 -2.828125 L 3.28125 -4.90625 C 3.175781 -5.175781 3.070312 -5.5 2.96875 -5.875 C 2.894531 -5.582031 2.796875 -5.257812 2.671875 -4.90625 L 1.890625 -2.828125 Z M 4.0625 -2.828125 "/></g></g></g><g fill="#e96840" fill-opacity="1"><g transform="translate(271.062501, 234.764677)"><g><path d="M 0.921875 0 L 0.921875 -6.703125 L 1.703125 -6.703125 L 1.703125 -0.703125 L 4.65625 -0.703125 L 4.65625 0 Z M 0.921875 0 "/></g></g></g><g fill="#e96840" fill-opacity="1"><g transform="translate(278.435769, 234.764677)"><g><path d="M 0.921875 0 L 0.921875 -6.703125 L 1.703125 -6.703125 L 1.703125 0 Z M 0.921875 0 "/></g></g></g><g fill="#e96840" fill-opacity="1"><g transform="translate(283.554024, 234.764677)"><g><path d="M 4.703125 -1.78125 C 4.703125 -1.195312 4.488281 -0.738281 4.0625 -0.40625 C 3.632812 -0.0703125 3.050781 0.09375 2.3125 0.09375 C 1.519531 0.09375 0.910156 -0.0078125 0.484375 -0.21875 L 0.484375 -0.96875 C 0.765625 -0.851562 1.066406 -0.757812 1.390625 -0.6875 C 1.710938 -0.625 2.03125 -0.59375 2.34375 -0.59375 C 2.863281 -0.59375 3.253906 -0.691406 3.515625 -0.890625 C 3.785156 -1.085938 3.921875 -1.359375 3.921875 -1.703125 C 3.921875 -1.941406 3.875 -2.132812 3.78125 -2.28125 C 3.6875 -2.425781 3.53125 -2.5625 3.3125 -2.6875 C 3.09375 -2.8125 2.757812 -2.957031 2.3125 -3.125 C 1.6875 -3.34375 1.238281 -3.601562 0.96875 -3.90625 C 0.707031 -4.21875 0.578125 -4.617188 0.578125 -5.109375 C 0.578125 -5.628906 0.769531 -6.039062 1.15625 -6.34375 C 1.539062 -6.644531 2.054688 -6.796875 2.703125 -6.796875 C 3.367188 -6.796875 3.976562 -6.675781 4.53125 -6.4375 L 4.296875 -5.75 C 3.742188 -5.988281 3.203125 -6.109375 2.671875 -6.109375 C 2.265625 -6.109375 1.941406 -6.019531 1.703125 -5.84375 C 1.472656 -5.664062 1.359375 -5.414062 1.359375 -5.09375 C 1.359375 -4.863281 1.398438 -4.675781 1.484375 -4.53125 C 1.578125 -4.382812 1.722656 -4.25 1.921875 -4.125 C 2.128906 -4 2.441406 -3.859375 2.859375 -3.703125 C 3.554688 -3.453125 4.035156 -3.179688 4.296875 -2.890625 C 4.566406 -2.609375 4.703125 -2.238281 4.703125 -1.78125 Z M 4.703125 -1.78125 "/></g></g></g><g fill="#e96840" fill-opacity="1"><g transform="translate(291.206871, 234.764677)"><g><path d="M 2.984375 0 L 2.203125 0 L 2.203125 -6.015625 L 0.078125 -6.015625 L 0.078125 -6.703125 L 5.109375 -6.703125 L 5.109375 -6.015625 L 2.984375 -6.015625 Z M 2.984375 0 "/></g></g></g></svg>